SplineFontDB: 3.0
FontName: LinLibertineO
FullName: Linux Libertine O
FamilyName: Linux Libertine O
Weight: Book
Copyright: Linux Libertine by Philipp H. Poll,\nOpen Font under Terms of following Free Software Licenses:\nGPL (General Public License) with font-exception and OFL (Open Font License).\nCreated with FontForge (http://fontforge.sf.net)\nSept 2003, 2004, 2005, 2006, 2007, 2008, 2009, 2010, 2011,2012
Version: 5.3.0
ItalicAngle: 0
UnderlinePosition: -98
UnderlineWidth: 40
Ascent: 800
Descent: 200
sfntRevision: 0x00054ccc
LayerCount: 2
Layer: 0 1 "Back"  1
Layer: 1 1 "Fore"  0
XUID: [1021 659 359406346 8679892]
FSType: 0
OS2Version: 3
OS2_WeightWidthSlopeOnly: 0
OS2_UseTypoMetrics: 1
CreationTime: 1156455862
ModificationTime: 1365120613
PfmFamily: 17
TTFWeight: 400
TTFWidth: 5
LineGap: 0
VLineGap: 0
Panose: 2 0 5 3 0 0 0 0 0 0
OS2TypoAscent: 894
OS2TypoAOffset: 0
OS2TypoDescent: -246
OS2TypoDOffset: 0
OS2TypoLinegap: 0
OS2WinAscent: 894
OS2WinAOffset: 0
OS2WinDescent: 246
OS2WinDOffset: 0
HheadAscent: 894
HheadAOffset: 0
HheadDescent: -246
HheadDOffset: 0
OS2SubXSize: 650
OS2SubYSize: 700
OS2SubXOff: 0
OS2SubYOff: 140
OS2SupXSize: 650
OS2SupYSize: 700
OS2SupXOff: 0
OS2SupYOff: 480
OS2StrikeYSize: 49
OS2StrikeYPos: 258
OS2FamilyClass: 261
OS2Vendor: 'PfEd'
OS2CodePages: 600001bf.00000000
OS2UnicodeRanges: e0000aff.5200e5fb.02000020.00000000
Lookup: 3 0 0 "'aalt' Access All Alternates lookup 0"  {"'aalt' Access All Alternates lookup 0 subtable"  } ['aalt' ('DFLT' <'dflt' > 'cyrl' <'dflt' > 'grek' <'dflt' > 'latn' <'AZE ' 'CRT ' 'DEU ' 'MOL ' 'ROM ' 'TRK ' 'dflt' > ) ]
Lookup: 1 0 0 "'locl' Localized Forms in Latin lookup 1"  {"'locl' Localized Forms in Latin lookup 1 subtable"  } ['locl' ('latn' <'MOL ' 'ROM ' > ) ]
Lookup: 1 0 0 "'locl' Localized Forms in Cyrillic lookup 2"  {"'locl' Localized Forms in Cyrillic lookup 2 subtable"  } ['locl' ('cyrl' <'SRB ' > ) ]

StartChar: .notdef
Encoding: 65536 -1 0
Width: 500
Flags: W
LayerCount: 2
Fore
SplineSet
50 603 m 1,0,-1
 50 95 l 1,1,-1
 220 349 l 1,2,-1
 50 603 l 1,0,-1
80 50 m 1,3,-1
 420 50 l 1,4,-1
 250 304 l 1,5,-1
 80 50 l 1,3,-1
280 349 m 1,6,-1
 450 95 l 1,7,-1
 450 603 l 1,8,-1
 280 349 l 1,6,-1
250 394 m 1,9,-1
 420 647 l 1,10,-1
 80 647 l 1,11,-1
 250 394 l 1,9,-1
0 0 m 1,12,-1
 0 698 l 1,13,-1
 500 698 l 1,14,-1
 500 0 l 1,15,-1
 0 0 l 1,12,-1
EndSplineSet
EndChar

StartChar: exclam
Encoding: 33 33 2
Width: 288
GlyphClass: 2
Flags: W
LayerCount: 2
Fore
SplineSet
144 658 m 128,-1,1
 165 658 165 658 181 640 c 128,-1,2
 197 622 197 622 197 585 c 0,3,4
 197 556 197 556 193.5 528.5 c 128,-1,5
 190 501 190 501 183.5 462.5 c 128,-1,6
 177 424 177 424 173 392 c 0,7,8
 167 345 167 345 164 302.5 c 128,-1,9
 161 260 161 260 160 237 c 128,-1,10
 159 214 159 214 158 210 c 0,11,12
 156 190 156 190 144 190 c 128,-1,13
 132 190 132 190 130 203 c 0,14,15
 129 209 129 209 127 241 c 128,-1,16
 125 273 125 273 121.5 315.5 c 128,-1,17
 118 358 118 358 114 392 c 0,18,19
 111 423 111 423 101 484 c 128,-1,20
 91 545 91 545 91 585 c 0,21,22
 91 622 91 622 107 640 c 128,-1,0
 123 658 123 658 144 658 c 128,-1,1
91 43 m 128,-1,24
 91 65 91 65 106.5 80.5 c 128,-1,25
 122 96 122 96 144 96 c 128,-1,26
 166 96 166 96 181.5 80.5 c 128,-1,27
 197 65 197 65 197 43 c 128,-1,28
 197 21 197 21 181.5 5.5 c 128,-1,29
 166 -10 166 -10 144 -10 c 128,-1,30
 122 -10 122 -10 106.5 5.5 c 128,-1,23
 91 21 91 21 91 43 c 128,-1,24
EndSplineSet
EndChar

StartChar: quotedbl
Encoding: 34 34 3
Width: 336
GlyphClass: 2
Flags: W
LayerCount: 2
Fore
SplineSet
215 427 m 1,0,1
 189 586 189 586 189 595 c 0,2,3
 189 613 189 613 204 629 c 128,-1,4
 219 645 219 645 240 645 c 0,5,6
 275 645 275 645 275 612 c 1,7,-1
 242 431 l 1,8,-1
 215 427 l 1,0,1
89 426 m 1,9,10
 63 585 63 585 63 594 c 0,11,12
 63 612 63 612 78 628 c 128,-1,13
 93 644 93 644 114 644 c 0,14,15
 149 644 149 644 149 611 c 1,16,-1
 116 430 l 1,17,-1
 89 426 l 1,9,10
EndSplineSet
EndChar

StartChar: numbersign
Encoding: 35 35 4
Width: 465
GlyphClass: 2
Flags: W
LayerCount: 2
Fore
SplineSet
279 245 m 1,0,-1
 297 360 l 1,1,-1
 184 360 l 1,2,-1
 165 245 l 1,3,-1
 279 245 l 1,0,-1
335 360 m 1,4,-1
 316 245 l 1,5,-1
 411 245 l 1,6,-1
 404 192 l 1,7,-1
 310 192 l 1,8,-1
 280 14 l 1,9,-1
 242 14 l 1,10,-1
 269 192 l 1,11,-1
 157 192 l 1,12,-1
 128 14 l 1,13,-1
 91 14 l 1,14,-1
 119 192 l 1,15,-1
 26 192 l 1,16,-1
 34 245 l 1,17,-1
 128 245 l 1,18,-1
 146 360 l 1,19,-1
 53 360 l 1,20,-1
 61 413 l 1,21,-1
 154 413 l 1,22,-1
 183 592 l 1,23,-1
 221 592 l 1,24,-1
 191 413 l 1,25,-1
 305 413 l 1,26,-1
 333 592 l 1,27,-1
 371 592 l 1,28,-1
 342 413 l 1,29,-1
 438 413 l 1,30,-1
 430 360 l 1,31,-1
 335 360 l 1,4,-1
EndSplineSet
EndChar

StartChar: dollar
Encoding: 36 36 5
Width: 465
GlyphClass: 2
Flags: W
LayerCount: 2
Fore
SplineSet
207 367 m 1,0,-1
 219 578 l 1,1,2
 192 578 192 578 168.5 563 c 128,-1,3
 145 548 145 548 131.5 524.5 c 128,-1,4
 118 501 118 501 118 476 c 0,5,6
 118 411 118 411 207 367 c 1,0,-1
238 268 m 1,7,-1
 225 24 l 1,8,9
 280 25 280 25 309.5 54.5 c 128,-1,10
 339 84 339 84 339 139 c 0,11,12
 339 192 339 192 312 220.5 c 128,-1,13
 285 249 285 249 238 268 c 1,7,-1
371 585 m 1,14,15
 384 519 384 519 388 465 c 1,16,17
 381 459 381 459 357 459 c 1,18,19
 342 507 342 507 320 536.5 c 128,-1,20
 298 566 298 566 255 575 c 1,21,-1
 243 351 l 1,22,23
 250 348 250 348 259.5 344.5 c 128,-1,24
 269 341 269 341 276.5 338 c 128,-1,25
 284 335 284 335 289 333 c 0,26,27
 417 278 417 278 417 171 c 0,28,29
 417 127 417 127 393.5 86.5 c 128,-1,30
 370 46 370 46 330 21 c 0,31,32
 285 -7 285 -7 223 -9 c 1,33,-1
 218 -93 l 1,34,35
 210 -98 210 -98 182 -98 c 1,36,-1
 187 -8 l 1,37,38
 157 -6 157 -6 116 3 c 128,-1,39
 75 12 75 12 48 12 c 1,40,41
 33 73 33 73 29 153 c 1,42,43
 44 161 44 161 59 156 c 1,44,45
 85 41 85 41 188 26 c 1,46,-1
 202 281 l 1,47,48
 193 285 193 285 186 288 c 0,49,50
 51 346 51 346 51 451 c 0,51,52
 51 521 51 521 100 564 c 128,-1,53
 149 607 149 607 220 610 c 1,54,-1
 225 689 l 1,55,56
 238 694 238 694 262 694 c 1,57,-1
 257 609 l 1,58,59
 292 607 292 607 322 597 c 128,-1,60
 352 587 352 587 371 585 c 1,14,15
EndSplineSet
EndChar

StartChar: percent
Encoding: 37 37 6
Width: 637
GlyphClass: 2
Flags: W
LayerCount: 2
Fore
SplineSet
433 83 m 0,0,1
 433 19 433 19 477 19 c 0,2,3
 515 19 515 19 540 67.5 c 128,-1,4
 565 116 565 116 565 164 c 0,5,6
 565 198 565 198 551.5 211.5 c 128,-1,7
 538 225 538 225 523 225 c 0,8,9
 488 225 488 225 460.5 177.5 c 128,-1,10
 433 130 433 130 433 83 c 0,0,1
378 98 m 0,11,12
 378 160 378 160 417.5 208 c 128,-1,13
 457 256 457 256 512 256 c 0,14,15
 548 256 548 256 573 235.5 c 128,-1,16
 598 215 598 215 598 165 c 0,17,18
 598 106 598 106 563 47 c 128,-1,19
 528 -12 528 -12 471 -12 c 0,20,21
 428 -12 428 -12 403 21.5 c 128,-1,22
 378 55 378 55 378 98 c 0,11,12
364 521 m 0,23,24
 404 521 404 521 448.5 534 c 128,-1,25
 493 547 493 547 514 575 c 1,26,-1
 546 559 l 1,27,-1
 136 -12 l 1,28,-1
 102 3 l 1,29,-1
 461 503 l 1,30,31
 413 484 413 484 354 484 c 0,32,33
 310 484 310 484 274 505 c 1,34,35
 277 494 277 494 277 480 c 0,36,37
 277 422 277 422 241.5 362.5 c 128,-1,38
 206 303 206 303 149 303 c 0,39,40
 106 303 106 303 81.5 336.5 c 128,-1,41
 57 370 57 370 57 412 c 0,42,43
 57 478 57 478 96.5 524.5 c 128,-1,44
 136 571 136 571 190 571 c 0,45,46
 210 571 210 571 229.5 563.5 c 128,-1,47
 249 556 249 556 257 546 c 1,48,49
 311 521 311 521 364 521 c 0,23,24
111 398 m 0,50,51
 111 363 111 363 124.5 348.5 c 128,-1,52
 138 334 138 334 155 334 c 0,53,54
 193 334 193 334 218.5 382 c 128,-1,55
 244 430 244 430 244 479 c 0,56,57
 244 540 244 540 201 540 c 0,58,59
 166 540 166 540 138.5 492.5 c 128,-1,60
 111 445 111 445 111 398 c 0,50,51
EndSplineSet
EndChar

StartChar: ampersand
Encoding: 38 38 7
Width: 705
GlyphClass: 2
Flags: W
LayerCount: 2
Fore
SplineSet
250 338 m 1,0,1
 177 298 177 298 151 256 c 128,-1,2
 125 214 125 214 125 156 c 0,3,4
 125 87 125 87 157.5 55 c 128,-1,5
 190 23 190 23 242 23 c 0,6,7
 292 23 292 23 324.5 46.5 c 128,-1,8
 357 70 357 70 398 126 c 1,9,10
 357 180 357 180 308 250.5 c 128,-1,11
 259 321 259 321 250 338 c 1,0,1
421 94 m 1,12,13
 384 43 384 43 339.5 16.5 c 128,-1,14
 295 -10 295 -10 235 -10 c 0,15,16
 193 -10 193 -10 159.5 -1 c 128,-1,17
 126 8 126 8 99 27 c 128,-1,18
 72 46 72 46 57.5 79 c 128,-1,19
 43 112 43 112 43 156 c 0,20,21
 43 216 43 216 86.5 268.5 c 128,-1,22
 130 321 130 321 228 376 c 1,23,24
 177 464 177 464 177 517 c 0,25,26
 177 535 177 535 183.5 553 c 128,-1,27
 190 571 190 571 203 588 c 128,-1,28
 216 605 216 605 233.5 618 c 128,-1,29
 251 631 251 631 276.5 639 c 128,-1,30
 302 647 302 647 331 647 c 0,31,32
 366 647 366 647 395 633.5 c 128,-1,33
 424 620 424 620 441.5 595 c 128,-1,34
 459 570 459 570 459 539 c 0,35,36
 459 499 459 499 417 454 c 128,-1,37
 375 409 375 409 310 371 c 1,38,-1
 314 363 l 1,39,40
 345 310 345 310 436 187 c 1,41,42
 478 249 478 249 513 315 c 1,43,44
 528 341 528 341 532.5 356 c 128,-1,45
 537 371 537 371 531.5 379 c 128,-1,46
 526 387 526 387 515.5 389.5 c 128,-1,47
 505 392 505 392 482 393 c 1,48,49
 478 398 478 398 478 410 c 128,-1,50
 478 422 478 422 482 426 c 1,51,52
 522 424 522 424 577 424 c 0,53,54
 621 424 621 424 661 426 c 1,55,56
 666 422 666 422 666 410 c 128,-1,57
 666 398 666 398 661 393 c 1,58,59
 615 390 615 390 598 376.5 c 128,-1,60
 581 363 581 363 547 302 c 0,61,62
 498 215 498 215 458 157 c 1,63,-1
 494 107 l 2,64,65
 516 77 516 77 537 60.5 c 128,-1,66
 558 44 558 44 571 44 c 0,67,68
 619 44 619 44 647 98 c 1,69,70
 658 98 658 98 668 88 c 1,71,72
 652 39 652 39 623 14.5 c 128,-1,73
 594 -10 594 -10 565 -10 c 0,74,75
 545 -10 545 -10 531 -7.5 c 128,-1,76
 517 -5 517 -5 494.5 11 c 128,-1,77
 472 27 472 27 450 57 c 1,78,-1
 421 94 l 1,12,13
289 409 m 1,79,80
 336 440 336 440 363 475.5 c 128,-1,81
 390 511 390 511 390 539 c 0,82,83
 390 573 390 573 373 593.5 c 128,-1,84
 356 614 356 614 326 614 c 0,85,86
 302 614 302 614 276.5 589 c 128,-1,87
 251 564 251 564 251 519 c 0,88,89
 251 481 251 481 289 409 c 1,79,80
EndSplineSet
Substitution2: "'ss06' Style Set 6 lookup 26 subtable" ampersand.alt
Substitution2: "'salt' Stylistic Alternatives lookup 19 subtable" ampersand.alt
Substitution2: "'c2sc' Capitals to Small Capitals lookup 9 subtable" ampersand.alt
Substitution2: "'smcp' Lowercase to Small Capitals lookup 4 subtable" ampersand.alt
AlternateSubs2: "'aalt' Access All Alternates lookup 0 subtable" ampersand.alt
EndChar

StartChar: quotesingle
Encoding: 39 39 8
Width: 190
GlyphClass: 2
Flags: W
LayerCount: 2
Fore
SplineSet
79 426 m 1,0,1
 53 585 53 585 53 594 c 0,2,3
 53 612 53 612 68 628 c 128,-1,4
 83 644 83 644 104 644 c 0,5,6
 139 644 139 644 139 611 c 1,7,-1
 106 430 l 1,8,-1
 79 426 l 1,0,1
EndSplineSet
EndChar

StartChar: parenleft
Encoding: 40 40 9
Width: 298
GlyphClass: 2
Flags: W
GlyphCompositionVertical: 3  uni239D%0,0,136,894 uni239C%1,893,893,894 uni239B%0,136,0,894
LayerCount: 2
Fore
SplineSet
44 252 m 0,0,1
 44 386 44 386 103 506 c 128,-1,2
 162 626 162 626 256 707 c 1,3,4
 271 706 271 706 277 689 c 1,5,6
 127 520 127 520 127 252 c 0,7,8
 127 -14 127 -14 277 -187 c 1,9,10
 272 -201 272 -201 256 -204 c 1,11,12
 197 -153 197 -153 154.5 -91 c 128,-1,13
 112 -29 112 -29 91.5 20.5 c 128,-1,14
 71 70 71 70 59 124.5 c 128,-1,15
 47 179 47 179 45.5 203.5 c 128,-1,16
 44 228 44 228 44 252 c 0,0,1
EndSplineSet
Substitution2: "'case' Case-Sensitive Forms lookup 27 subtable" parenleft.sc
Substitution2: "'c2sc' Capitals to Small Capitals lookup 9 subtable" parenleft.sc
Substitution2: "'sinf' Scientific Inferiors lookup 8 subtable" parenleft.inferior
Substitution2: "'sups' Superscript lookup 7 subtable" parenleft.superior
AlternateSubs2: "'aalt' Access All Alternates lookup 0 subtable" parenleft.sc
EndChar

StartChar: parenright
Encoding: 41 41 10
Width: 298
GlyphClass: 2
Flags: W
LayerCount: 2
Fore
SplineSet
254 252 m 0,0,1
 254 118 254 118 195 -2 c 128,-1,2
 136 -122 136 -122 42 -203 c 1,3,4
 27 -202 27 -202 21 -185 c 1,5,6
 171 -16 171 -16 171 252 c 0,7,8
 171 518 171 518 21 691 c 1,9,10
 26 705 26 705 42 708 c 1,11,12
 101 657 101 657 143.5 595 c 128,-1,13
 186 533 186 533 206.5 483.5 c 128,-1,14
 227 434 227 434 239 379.5 c 128,-1,15
 251 325 251 325 252.5 300.5 c 128,-1,16
 254 276 254 276 254 252 c 0,0,1
EndSplineSet
Substitution2: "'case' Case-Sensitive Forms lookup 27 subtable" parenright.sc
Substitution2: "'c2sc' Capitals to Small Capitals lookup 9 subtable" parenright.sc
Substitution2: "'sinf' Scientific Inferiors lookup 8 subtable" parenright.inferior
Substitution2: "'sups' Superscript lookup 7 subtable" parenright.superior
AlternateSubs2: "'aalt' Access All Alternates lookup 0 subtable" parenright.sc
EndChar

StartChar: asterisk
Encoding: 42 42 11
Width: 369
GlyphClass: 2
Flags: W
LayerCount: 2
Fore
SplineSet
168 547 m 1,0,1
 151 551 151 551 126 551 c 0,2,3
 45 551 45 551 45 588 c 0,4,5
 45 600 45 600 53 609 c 128,-1,6
 61 618 61 618 78 618 c 0,7,8
 97 618 97 618 126.5 596 c 128,-1,9
 156 574 156 574 174 567 c 1,10,11
 172 587 172 587 161.5 616.5 c 128,-1,12
 151 646 151 646 151 659 c 0,13,14
 151 675 151 675 159.5 686.5 c 128,-1,15
 168 698 168 698 181 698 c 0,16,17
 214 698 214 698 214 663 c 0,18,19
 214 649 214 649 205 614.5 c 128,-1,20
 196 580 196 580 195 566 c 1,21,22
 214 574 214 574 243 596 c 128,-1,23
 272 618 272 618 290 618 c 128,-1,24
 308 618 308 618 316 608 c 128,-1,25
 324 598 324 598 324 588 c 0,26,27
 324 551 324 551 255 551 c 0,28,29
 224 551 224 551 200 547 c 1,30,31
 212 534 212 534 235 518.5 c 128,-1,32
 258 503 258 503 270.5 490.5 c 128,-1,33
 283 478 283 478 283 460 c 0,34,35
 283 447 283 447 274 439 c 128,-1,36
 265 431 265 431 254 431 c 0,37,38
 237 431 237 431 225.5 447 c 128,-1,39
 214 463 214 463 202.5 492.5 c 128,-1,40
 191 522 191 522 183 535 c 1,41,42
 176 522 176 522 164 491 c 128,-1,43
 152 460 152 460 141 445.5 c 128,-1,44
 130 431 130 431 113 431 c 0,45,46
 100 431 100 431 92 439.5 c 128,-1,47
 84 448 84 448 84 459 c 0,48,49
 84 478 84 478 97 491 c 128,-1,50
 110 504 110 504 133 518.5 c 128,-1,51
 156 533 156 533 168 547 c 1,0,1
EndSplineSet
EndChar

StartChar: plus
Encoding: 43 43 12
Width: 550
GlyphClass: 2
Flags: W
LayerCount: 2
Fore
SplineSet
250 435 m 2,0,1
 250 444 250 444 262.5 453 c 128,-1,2
 275 462 275 462 283 462 c 0,3,4
 300 462 300 462 300 448 c 2,5,-1
 300 276 l 1,6,-1
 476 276 l 2,7,8
 490 276 490 276 490 259 c 0,9,10
 490 251 490 251 481 238.5 c 128,-1,11
 472 226 472 226 463 226 c 2,12,-1
 300 226 l 1,13,-1
 300 66 l 2,14,15
 300 57 300 57 288.5 49 c 128,-1,16
 277 41 277 41 266 41 c 0,17,18
 250 41 250 41 250 56 c 2,19,-1
 250 226 l 1,20,-1
 75 226 l 2,21,22
 60 226 60 226 60 242 c 0,23,24
 60 253 60 253 68 264.5 c 128,-1,25
 76 276 76 276 85 276 c 2,26,-1
 250 276 l 1,27,-1
 250 435 l 2,0,1
EndSplineSet
Substitution2: "'sinf' Scientific Inferiors lookup 8 subtable" plus.inferior
Substitution2: "'sups' Superscript lookup 7 subtable" plus.superior
AlternateSubs2: "'aalt' Access All Alternates lookup 0 subtable" plus.superior plus.inferior uni2098
EndChar

StartChar: comma
Encoding: 44 44 13
Width: 220
GlyphClass: 2
Flags: W
LayerCount: 2
Fore
SplineSet
104 95 m 0,0,1
 134 95 134 95 152 68 c 128,-1,2
 170 41 170 41 170 -4 c 0,3,4
 170 -54 170 -54 135 -89 c 128,-1,5
 100 -124 100 -124 52 -133 c 1,6,7
 43 -124 43 -124 43 -109 c 1,8,9
 79 -100 79 -100 105 -73.5 c 128,-1,10
 131 -47 131 -47 131 -29 c 0,11,12
 131 -2 131 -2 95 2 c 1,13,14
 51 9 51 9 51 46 c 0,15,16
 51 67 51 67 66 81 c 128,-1,17
 81 95 81 95 104 95 c 0,0,1
EndSplineSet
EndChar

StartChar: hyphen
Encoding: 45 45 14
Width: 338
GlyphClass: 2
Flags: W
LayerCount: 2
Fore
SplineSet
271 223 m 2,0,-1
 55 223 l 2,1,2
 40 223 40 223 40 242 c 0,3,4
 40 256 40 256 48 269.5 c 128,-1,5
 56 283 56 283 65 283 c 2,6,-1
 284 283 l 2,7,8
 298 283 298 283 298 263 c 0,9,10
 298 253 298 253 289 238 c 128,-1,11
 280 223 280 223 271 223 c 2,0,-1
EndSplineSet
Substitution2: "'case' Case-Sensitive Forms lookup 27 subtable" hyphen.cap
Substitution2: "'c2sc' Capitals to Small Capitals lookup 9 subtable" hyphen.sc
Substitution2: "'sinf' Scientific Inferiors lookup 8 subtable" minus.inferior
Substitution2: "'sups' Superscript lookup 7 subtable" minus.superior
Substitution2: "'smcp' Lowercase to Small Capitals lookup 4 subtable" hyphen.sc
AlternateSubs2: "'aalt' Access All Alternates lookup 0 subtable" hyphen.sc
Position2: "'lfbd' Left Bounds lookup 5 subtable" dx=-43 dy=0 dh=-43 dv=0
Position2: "'rtbd' Right Bounds lookup 4 subtable" dx=0 dy=0 dh=0 dv=0
EndChar

StartChar: period
Encoding: 46 46 15
Width: 220
GlyphClass: 2
Flags: W
LayerCount: 2
Fore
SplineSet
57 43 m 128,-1,1
 57 65 57 65 72.5 80.5 c 128,-1,2
 88 96 88 96 110 96 c 128,-1,3
 132 96 132 96 147.5 80.5 c 128,-1,4
 163 65 163 65 163 43 c 128,-1,5
 163 21 163 21 147.5 5.5 c 128,-1,6
 132 -10 132 -10 110 -10 c 128,-1,7
 88 -10 88 -10 72.5 5.5 c 128,-1,0
 57 21 57 21 57 43 c 128,-1,1
EndSplineSet
EndChar

StartChar: slash
Encoding: 47 47 16
Width: 323
GlyphClass: 3
Flags: W
LayerCount: 2
Fore
SplineSet
293 646 m 1,0,-1
 56 -59 l 1,1,-1
 15 -59 l 1,2,-1
 252 646 l 1,3,-1
 293 646 l 1,0,-1
EndSplineSet
Substitution2: "'sups' Superscript lookup 7 subtable" fraction
Ligature2: "'frac' Diagonal Fractions lookup 6 subtable" uni2215
AlternateSubs2: "'aalt' Access All Alternates lookup 0 subtable" uni2215
EndChar

StartChar: zero
Encoding: 48 48 17
Width: 465
GlyphClass: 2
Flags: W
LayerCount: 2
Fore
SplineSet
232 575 m 0,0,1
 213 575 213 575 196 563 c 128,-1,2
 179 551 179 551 162.5 522 c 128,-1,3
 146 493 146 493 136 431.5 c 128,-1,4
 126 370 126 370 126 283 c 0,5,6
 126 25 126 25 229 25 c 0,7,8
 238 25 238 25 248 28 c 128,-1,9
 258 31 258 31 271.5 39.5 c 128,-1,10
 285 48 285 48 297.5 67.5 c 128,-1,11
 310 87 310 87 318 116 c 0,12,13
 335 178 335 178 335 322 c 0,14,15
 335 509 335 509 277 558 c 0,16,17
 258 575 258 575 232 575 c 0,0,1
228 -10 m 0,18,19
 169 -10 169 -10 127 32 c 0,20,21
 100 59 100 59 80 100 c 128,-1,22
 60 141 60 141 49.5 191 c 128,-1,23
 39 241 39 241 39 294 c 0,24,25
 39 436 39 436 96.5 523 c 128,-1,26
 154 610 154 610 232 610 c 0,27,28
 305 610 305 610 354 545 c 0,29,30
 422 455 422 455 422 303 c 0,31,32
 422 220 422 220 403 156 c 128,-1,33
 384 92 384 92 353.5 57.5 c 128,-1,34
 323 23 323 23 291 6.5 c 128,-1,35
 259 -10 259 -10 228 -10 c 0,18,19
EndSplineSet
Substitution2: "'case' Case-Sensitive Forms lookup 27 subtable" zero.cap
Substitution2: "'zero' Slashed Zero lookup 18 subtable" zero.slash
Substitution2: "'pnum' Proportional Numbers lookup 16 subtable" zero.fitted
Substitution2: "'onum' Oldstyle Figures lookup 14 subtable" zero.taboldstyle
Substitution2: "'sinf' Scientific Inferiors lookup 8 subtable" zero.inferior
Substitution2: "'sups' Superscript lookup 7 subtable" zero.superior
AlternateSubs2: "'aalt' Access All Alternates lookup 0 subtable" zero.oldstyle zero.fitted zero.slash zero.slashfitted perthousandzero
EndChar

StartChar: one
Encoding: 49 49 18
Width: 465
GlyphClass: 2
Flags: W
LayerCount: 2
Fore
SplineSet
288 122 m 2,0,1
 288 62 288 62 303.5 47.5 c 128,-1,2
 319 33 319 33 375 31 c 1,3,4
 380 26 380 26 380 14 c 128,-1,5
 380 2 380 2 375 -2 c 1,6,7
 275 0 275 0 253 0 c 0,8,9
 212 0 212 0 114 -2 c 1,10,11
 110 2 110 2 110 14 c 128,-1,12
 110 26 110 26 114 31 c 1,13,14
 172 33 172 33 191.5 48.5 c 128,-1,15
 211 64 211 64 211 122 c 2,16,-1
 211 448 l 2,17,18
 211 506 211 506 191 506 c 0,19,20
 164 506 164 506 104 481 c 1,21,22
 92 489 92 489 89 508 c 1,23,24
 229 573 229 573 285 608 c 1,25,26
 291 608 291 608 291 603 c 0,27,28
 288 580 288 580 288 469 c 2,29,-1
 288 122 l 2,0,1
EndSplineSet
Substitution2: "'case' Case-Sensitive Forms lookup 27 subtable" one.cap
Substitution2: "'pnum' Proportional Numbers lookup 16 subtable" one.fitted
Substitution2: "'onum' Oldstyle Figures lookup 14 subtable" one.taboldstyle
Substitution2: "'sinf' Scientific Inferiors lookup 8 subtable" one.inferior
Substitution2: "'sups' Superscript lookup 7 subtable" one.superior
AlternateSubs2: "'aalt' Access All Alternates lookup 0 subtable" one.oldstyle one.superior one.fitted
EndChar

StartChar: two
Encoding: 50 50 19
Width: 465
GlyphClass: 2
Flags: W
LayerCount: 2
Fore
SplineSet
61 468 m 0,0,1
 61 518 61 518 112 564 c 128,-1,2
 163 610 163 610 241 610 c 0,3,4
 309 610 309 610 359.5 571.5 c 128,-1,5
 410 533 410 533 410 458 c 0,6,7
 410 422 410 422 395 390 c 128,-1,8
 380 358 380 358 362.5 337.5 c 128,-1,9
 345 317 345 317 310 283 c 2,10,-1
 209 186 l 1,11,12
 135 112 135 112 135 65 c 1,13,-1
 313 65 l 2,14,15
 340 65 340 65 355 86 c 128,-1,16
 370 107 370 107 383 161 c 1,17,18
 402 165 402 165 412 156 c 1,19,20
 410 86 410 86 388 -2 c 1,21,22
 342 0 342 0 310 0 c 2,23,-1
 135 0 l 1,24,-1
 52 -2 l 1,25,26
 52 46 52 46 74.5 90.5 c 128,-1,27
 97 135 97 135 166 205 c 1,28,-1
 240 278 l 1,29,30
 322 361 322 361 322 454 c 0,31,32
 322 519 322 519 295.5 547 c 128,-1,33
 269 575 269 575 235 575 c 0,34,35
 185 575 185 575 160.5 556 c 128,-1,36
 136 537 136 537 136 514 c 0,37,38
 136 509 136 509 140 500 c 128,-1,39
 144 491 144 491 144 490 c 0,40,41
 148 476 148 476 148 469 c 0,42,43
 148 454 148 454 131.5 441.5 c 128,-1,44
 115 429 115 429 101 429 c 0,45,46
 85 429 85 429 73 440.5 c 128,-1,47
 61 452 61 452 61 468 c 0,0,1
EndSplineSet
Substitution2: "'case' Case-Sensitive Forms lookup 27 subtable" two.cap
Substitution2: "'pnum' Proportional Numbers lookup 16 subtable" two.fitted
Substitution2: "'onum' Oldstyle Figures lookup 14 subtable" two.taboldstyle
Substitution2: "'sinf' Scientific Inferiors lookup 8 subtable" two.inferior
Substitution2: "'sups' Superscript lookup 7 subtable" two.superior
AlternateSubs2: "'aalt' Access All Alternates lookup 0 subtable" two.oldstyle two.superior two.fitted
EndChar

StartChar: three
Encoding: 51 51 20
Width: 465
GlyphClass: 2
Flags: W
LayerCount: 2
Fore
SplineSet
215 575 m 0,0,1
 203 575 203 575 189 572 c 128,-1,2
 175 569 175 569 158.5 561.5 c 128,-1,3
 142 554 142 554 131 537.5 c 128,-1,4
 120 521 120 521 120 499 c 0,5,6
 120 447 120 447 81 447 c 0,7,8
 65 447 65 447 56 458 c 128,-1,9
 47 469 47 469 47 481 c 0,10,11
 47 496 47 496 56.5 515.5 c 128,-1,12
 66 535 66 535 86 557.5 c 128,-1,13
 106 580 106 580 145.5 595 c 128,-1,14
 185 610 185 610 236 610 c 0,15,16
 307 610 307 610 345 571 c 0,17,18
 376 539 376 539 376 492 c 0,19,20
 376 450 376 450 353 418.5 c 128,-1,21
 330 387 330 387 271 359 c 1,22,-1
 272 357 l 1,23,24
 297 353 297 353 319.5 343 c 128,-1,25
 342 333 342 333 364 315.5 c 128,-1,26
 386 298 386 298 399.5 268 c 128,-1,27
 413 238 413 238 413 199 c 0,28,29
 413 104 413 104 347 47 c 128,-1,30
 281 -10 281 -10 188 -10 c 0,31,32
 157 -10 157 -10 124 -2 c 128,-1,33
 91 6 91 6 67.5 22 c 128,-1,34
 44 38 44 38 44 57 c 0,35,36
 44 69 44 69 57.5 80.5 c 128,-1,37
 71 92 71 92 86 92 c 0,38,39
 110 92 110 92 129 66 c 0,40,41
 130 65 130 65 133.5 59.5 c 128,-1,42
 137 54 137 54 138.5 52 c 128,-1,43
 140 50 140 50 143.5 45.5 c 128,-1,44
 147 41 147 41 150 39 c 128,-1,45
 153 37 153 37 158.5 33.5 c 128,-1,46
 164 30 164 30 170 28.5 c 128,-1,47
 176 27 176 27 184 26 c 128,-1,48
 192 25 192 25 201 25 c 0,49,50
 213 25 213 25 227.5 28.5 c 128,-1,51
 242 32 242 32 260 43 c 128,-1,52
 278 54 278 54 292 71 c 128,-1,53
 306 88 306 88 315.5 117.5 c 128,-1,54
 325 147 325 147 325 185 c 0,55,56
 325 314 325 314 194 314 c 0,57,58
 163 314 163 314 146 312 c 1,59,-1
 141 344 l 1,60,61
 210 354 210 354 254 398.5 c 128,-1,62
 298 443 298 443 298 485 c 0,63,64
 298 508 298 508 291 526 c 128,-1,65
 284 544 284 544 272.5 554.5 c 128,-1,66
 261 565 261 565 246.5 570 c 128,-1,67
 232 575 232 575 215 575 c 0,0,1
EndSplineSet
Substitution2: "'case' Case-Sensitive Forms lookup 27 subtable" three.cap
Substitution2: "'pnum' Proportional Numbers lookup 16 subtable" three.fitted
Substitution2: "'onum' Oldstyle Figures lookup 14 subtable" three.taboldstyle
Substitution2: "'sinf' Scientific Inferiors lookup 8 subtable" three.inferior
Substitution2: "'sups' Superscript lookup 7 subtable" three.superior
AlternateSubs2: "'aalt' Access All Alternates lookup 0 subtable" three.oldstyle three.superior three.fitted
EndChar

StartChar: four
Encoding: 52 52 21
Width: 465
GlyphClass: 2
Flags: W
LayerCount: 2
Fore
SplineSet
271 507 m 1,0,1
 195 403 195 403 80 219 c 1,2,-1
 271 219 l 1,3,-1
 271 507 l 1,0,1
430 219 m 2,4,5
 445 219 445 219 445 203 c 0,6,7
 445 194 445 194 435.5 183 c 128,-1,8
 426 172 426 172 416 172 c 2,9,-1
 347 172 l 1,10,-1
 347 80 l 2,11,12
 347 64 347 64 349.5 54.5 c 128,-1,13
 352 45 352 45 362.5 40.5 c 128,-1,14
 373 36 373 36 379 35 c 128,-1,15
 385 34 385 34 407 32 c 0,16,17
 414 31 414 31 417 31 c 1,18,19
 422 26 422 26 422 14 c 128,-1,20
 422 2 422 2 417 -2 c 1,21,22
 353 0 353 0 308 0 c 0,23,24
 254 0 254 0 190 -2 c 1,25,26
 186 2 186 2 186 14 c 128,-1,27
 186 26 186 26 190 31 c 1,28,29
 244 35 244 35 257 45 c 0,30,31
 271 56 271 56 271 80 c 2,32,-1
 271 172 l 1,33,-1
 67 172 l 2,34,35
 36 172 36 172 28 214 c 1,36,37
 183 457 183 457 299 599 c 0,38,39
 308 610 308 610 315 610 c 2,40,-1
 347 610 l 1,41,-1
 349 608 l 1,42,43
 347 599 347 599 347 511 c 2,44,-1
 347 219 l 1,45,-1
 430 219 l 2,4,5
EndSplineSet
Substitution2: "'case' Case-Sensitive Forms lookup 27 subtable" four.cap
Substitution2: "'pnum' Proportional Numbers lookup 16 subtable" four.fitted
Substitution2: "'onum' Oldstyle Figures lookup 14 subtable" four.taboldstyle
Substitution2: "'sinf' Scientific Inferiors lookup 8 subtable" four.inferior
Substitution2: "'sups' Superscript lookup 7 subtable" four.superior
AlternateSubs2: "'aalt' Access All Alternates lookup 0 subtable" four.oldstyle four.superior four.fitted
EndChar

StartChar: five
Encoding: 53 53 22
Width: 465
GlyphClass: 2
Flags: W
LayerCount: 2
Fore
SplineSet
319 189 m 0,0,1
 319 267 319 267 287 304 c 128,-1,2
 255 341 255 341 203 341 c 0,3,4
 140 341 140 341 76 317 c 1,5,-1
 110 605 l 1,6,7
 168 600 168 600 218 600 c 0,8,9
 278 600 278 600 382 611 c 1,10,-1
 389 607 l 1,11,-1
 373 539 l 1,12,13
 311 533 311 533 268 533 c 0,14,15
 234 533 234 533 151 542 c 1,16,-1
 131 375 l 1,17,18
 172 391 172 391 229 391 c 0,19,20
 310 391 310 391 359 337 c 128,-1,21
 408 283 408 283 408 207 c 0,22,23
 408 112 408 112 348.5 50.5 c 128,-1,24
 289 -11 289 -11 196 -11 c 0,25,26
 150 -11 150 -11 102 12 c 128,-1,27
 54 35 54 35 54 64 c 0,28,29
 54 79 54 79 65.5 90 c 128,-1,30
 77 101 77 101 92 101 c 0,31,32
 119 101 119 101 143 69 c 0,33,34
 144 67 144 67 149 60.5 c 128,-1,35
 154 54 154 54 156 51 c 128,-1,36
 158 48 158 48 163 43 c 128,-1,37
 168 38 168 38 172 35.5 c 128,-1,38
 176 33 176 33 182 29.5 c 128,-1,39
 188 26 188 26 194.5 25 c 128,-1,40
 201 24 201 24 209 24 c 0,41,42
 255 24 255 24 287 71.5 c 128,-1,43
 319 119 319 119 319 189 c 0,0,1
EndSplineSet
Substitution2: "'case' Case-Sensitive Forms lookup 27 subtable" five.cap
Substitution2: "'pnum' Proportional Numbers lookup 16 subtable" five.fitted
Substitution2: "'onum' Oldstyle Figures lookup 14 subtable" five.taboldstyle
Substitution2: "'sinf' Scientific Inferiors lookup 8 subtable" five.inferior
Substitution2: "'sups' Superscript lookup 7 subtable" five.superior
AlternateSubs2: "'aalt' Access All Alternates lookup 0 subtable" five.oldstyle five.superior five.fitted
EndChar

StartChar: six
Encoding: 54 54 23
Width: 465
GlyphClass: 2
Flags: W
LayerCount: 2
Fore
SplineSet
135 307 m 1,0,1
 127 267 127 267 127 229 c 0,2,3
 127 111 127 111 159.5 67.5 c 128,-1,4
 192 24 192 24 247 24 c 0,5,6
 286 24 286 24 312 65 c 128,-1,7
 338 106 338 106 338 184 c 0,8,9
 338 206 338 206 332.5 228.5 c 128,-1,10
 327 251 327 251 315 275 c 128,-1,11
 303 299 303 299 278 314.5 c 128,-1,12
 253 330 253 330 218 330 c 0,13,14
 170 330 170 330 135 307 c 1,0,1
144 343 m 1,15,16
 192 365 192 365 239 365 c 0,17,18
 334 365 334 365 377.5 319.5 c 128,-1,19
 421 274 421 274 421 202 c 0,20,21
 421 175 421 175 414.5 146.5 c 128,-1,22
 408 118 408 118 393.5 89.5 c 128,-1,23
 379 61 379 61 358 39 c 128,-1,24
 337 17 337 17 305.5 3 c 128,-1,25
 274 -11 274 -11 236 -11 c 0,26,27
 210 -11 210 -11 186 -5.5 c 128,-1,28
 162 0 162 0 135.5 16.5 c 128,-1,29
 109 33 109 33 89.5 58.5 c 128,-1,30
 70 84 70 84 57 129 c 128,-1,31
 44 174 44 174 44 232 c 0,32,33
 44 293 44 293 68 357 c 128,-1,34
 92 421 92 421 137 474 c 0,35,36
 180 524 180 524 231 556.5 c 128,-1,37
 282 589 282 589 356 611 c 1,38,39
 368 603 368 603 368 585 c 1,40,41
 276 551 276 551 222 486 c 128,-1,42
 168 421 168 421 144 343 c 1,15,16
EndSplineSet
Substitution2: "'case' Case-Sensitive Forms lookup 27 subtable" six.cap
Substitution2: "'pnum' Proportional Numbers lookup 16 subtable" six.fitted
Substitution2: "'onum' Oldstyle Figures lookup 14 subtable" six.taboldstyle
Substitution2: "'sinf' Scientific Inferiors lookup 8 subtable" six.inferior
Substitution2: "'sups' Superscript lookup 7 subtable" six.superior
AlternateSubs2: "'aalt' Access All Alternates lookup 0 subtable" six.oldstyle six.superior six.fitted
EndChar

StartChar: seven
Encoding: 55 55 24
Width: 465
GlyphClass: 2
Flags: W
LayerCount: 2
Fore
SplineSet
170 535 m 2,0,1
 151 535 151 535 137.5 530.5 c 128,-1,2
 124 526 124 526 108.5 506 c 128,-1,3
 93 486 93 486 83 448 c 1,4,5
 68 446 68 446 51 451 c 1,6,7
 70 576 70 576 71 611 c 0,8,9
 71 614 71 614 75 614 c 0,10,11
 79 613 79 613 92 606.5 c 128,-1,12
 105 600 105 600 125 600 c 2,13,-1
 331 600 l 2,14,15
 371 600 371 600 408 611 c 1,16,-1
 424 599 l 1,17,18
 316 335 316 335 200 -10 c 1,19,-1
 132 -13 l 1,20,-1
 124 -6 l 1,21,22
 198 159 198 159 349 535 c 1,23,-1
 170 535 l 2,0,1
EndSplineSet
Substitution2: "'case' Case-Sensitive Forms lookup 27 subtable" seven.cap
Substitution2: "'pnum' Proportional Numbers lookup 16 subtable" seven.fitted
Substitution2: "'onum' Oldstyle Figures lookup 14 subtable" seven.taboldstyle
Substitution2: "'sinf' Scientific Inferiors lookup 8 subtable" seven.inferior
Substitution2: "'sups' Superscript lookup 7 subtable" seven.superior
AlternateSubs2: "'aalt' Access All Alternates lookup 0 subtable" seven.oldstyle seven.superior seven.fitted
EndChar

StartChar: eight
Encoding: 56 56 25
Width: 465
GlyphClass: 2
Flags: W
LayerCount: 2
Fore
SplineSet
234 575 m 0,0,1
 191 575 191 575 166.5 551 c 128,-1,2
 142 527 142 527 142 491 c 0,3,4
 142 463 142 463 155.5 438.5 c 128,-1,5
 169 414 169 414 212 386 c 1,6,-1
 243 367 l 1,7,8
 323 426 323 426 323 486 c 0,9,10
 323 524 323 524 301.5 549.5 c 128,-1,11
 280 575 280 575 234 575 c 0,0,1
393 485 m 0,12,13
 393 442 393 442 354.5 405.5 c 128,-1,14
 316 369 316 369 270 346 c 1,15,-1
 341 303 l 2,16,17
 419 256 419 256 419 162 c 0,18,19
 419 98 419 98 367 44 c 128,-1,20
 315 -10 315 -10 224 -10 c 0,21,22
 143 -10 143 -10 94.5 30.5 c 128,-1,23
 46 71 46 71 46 146 c 0,24,25
 46 215 46 215 104 266 c 0,26,27
 139 296 139 296 184 321 c 1,28,-1
 159 337 l 1,29,30
 71 392 71 392 71 472 c 0,31,32
 71 531 71 531 117.5 570.5 c 128,-1,33
 164 610 164 610 239 610 c 0,34,35
 311 610 311 610 352 575 c 128,-1,36
 393 540 393 540 393 485 c 0,12,13
226 25 m 0,37,38
 272 25 272 25 309 50.5 c 128,-1,39
 346 76 346 76 346 142 c 0,40,41
 346 222 346 222 259 275 c 1,42,-1
 212 303 l 1,43,44
 156 266 156 266 134.5 222.5 c 128,-1,45
 113 179 113 179 113 146 c 0,46,47
 113 85 113 85 148.5 55 c 128,-1,48
 184 25 184 25 226 25 c 0,37,38
EndSplineSet
Substitution2: "'case' Case-Sensitive Forms lookup 27 subtable" eight.cap
Substitution2: "'pnum' Proportional Numbers lookup 16 subtable" eight.fitted
Substitution2: "'onum' Oldstyle Figures lookup 14 subtable" eight.taboldstyle
Substitution2: "'sinf' Scientific Inferiors lookup 8 subtable" eight.inferior
Substitution2: "'sups' Superscript lookup 7 subtable" eight.superior
AlternateSubs2: "'aalt' Access All Alternates lookup 0 subtable" eight.oldstyle eight.superior eight.fitted
EndChar

StartChar: nine
Encoding: 57 57 26
Width: 465
GlyphClass: 2
Flags: W
LayerCount: 2
Fore
SplineSet
336 292 m 1,0,1
 344 332 344 332 344 370 c 0,2,3
 344 488 344 488 311.5 531.5 c 128,-1,4
 279 575 279 575 224 575 c 0,5,6
 185 575 185 575 159 534 c 128,-1,7
 133 493 133 493 133 415 c 0,8,9
 133 393 133 393 138.5 370.5 c 128,-1,10
 144 348 144 348 156 324 c 128,-1,11
 168 300 168 300 193 284.5 c 128,-1,12
 218 269 218 269 253 269 c 0,13,14
 301 269 301 269 336 292 c 1,0,1
327 256 m 1,15,16
 279 234 279 234 232 234 c 0,17,18
 137 234 137 234 93.5 279.5 c 128,-1,19
 50 325 50 325 50 397 c 0,20,21
 50 431 50 431 61 467 c 128,-1,22
 72 503 72 503 93 535.5 c 128,-1,23
 114 568 114 568 151 589 c 128,-1,24
 188 610 188 610 235 610 c 0,25,26
 261 610 261 610 285 604.5 c 128,-1,27
 309 599 309 599 335.5 582.5 c 128,-1,28
 362 566 362 566 381.5 540.5 c 128,-1,29
 401 515 401 515 414 470 c 128,-1,30
 427 425 427 425 427 367 c 0,31,32
 427 306 427 306 403 242 c 128,-1,33
 379 178 379 178 334 125 c 0,34,35
 291 75 291 75 240 42.5 c 128,-1,36
 189 10 189 10 115 -12 c 1,37,38
 103 -5 103 -5 103 14 c 1,39,40
 195 48 195 48 249 113 c 128,-1,41
 303 178 303 178 327 256 c 1,15,16
EndSplineSet
Substitution2: "'case' Case-Sensitive Forms lookup 27 subtable" nine.cap
Substitution2: "'pnum' Proportional Numbers lookup 16 subtable" nine.fitted
Substitution2: "'onum' Oldstyle Figures lookup 14 subtable" nine.taboldstyle
Substitution2: "'sinf' Scientific Inferiors lookup 8 subtable" nine.inferior
Substitution2: "'sups' Superscript lookup 7 subtable" nine.superior
AlternateSubs2: "'aalt' Access All Alternates lookup 0 subtable" nine.oldstyle nine.superior nine.fitted
EndChar

StartChar: colon
Encoding: 58 58 27
Width: 236
GlyphClass: 2
Flags: W
LayerCount: 2
Fore
SplineSet
70 355 m 128,-1,1
 70 377 70 377 85.5 392.5 c 128,-1,2
 101 408 101 408 123 408 c 128,-1,3
 145 408 145 408 160.5 392.5 c 128,-1,4
 176 377 176 377 176 355 c 128,-1,5
 176 333 176 333 160.5 317.5 c 128,-1,6
 145 302 145 302 123 302 c 128,-1,7
 101 302 101 302 85.5 317.5 c 128,-1,0
 70 333 70 333 70 355 c 128,-1,1
70 72 m 128,-1,9
 70 94 70 94 85.5 109.5 c 128,-1,10
 101 125 101 125 123 125 c 128,-1,11
 145 125 145 125 160.5 109.5 c 128,-1,12
 176 94 176 94 176 72 c 128,-1,13
 176 50 176 50 160.5 34.5 c 128,-1,14
 145 19 145 19 123 19 c 128,-1,15
 101 19 101 19 85.5 34.5 c 128,-1,8
 70 50 70 50 70 72 c 128,-1,9
EndSplineSet
EndChar

StartChar: semicolon
Encoding: 59 59 28
Width: 236
GlyphClass: 2
Flags: W
LayerCount: 2
Fore
SplineSet
70 355 m 128,-1,1
 70 377 70 377 85.5 392.5 c 128,-1,2
 101 408 101 408 123 408 c 128,-1,3
 145 408 145 408 160.5 392.5 c 128,-1,4
 176 377 176 377 176 355 c 128,-1,5
 176 333 176 333 160.5 317.5 c 128,-1,6
 145 302 145 302 123 302 c 128,-1,7
 101 302 101 302 85.5 317.5 c 128,-1,0
 70 333 70 333 70 355 c 128,-1,1
123 95 m 0,8,9
 153 95 153 95 171 68 c 128,-1,10
 189 41 189 41 189 -4 c 0,11,12
 189 -54 189 -54 154 -89 c 128,-1,13
 119 -124 119 -124 71 -133 c 1,14,15
 62 -124 62 -124 62 -109 c 1,16,17
 98 -100 98 -100 124 -73.5 c 128,-1,18
 150 -47 150 -47 150 -29 c 0,19,20
 150 -2 150 -2 114 2 c 1,21,22
 70 9 70 9 70 46 c 0,23,24
 70 67 70 67 85 81 c 128,-1,25
 100 95 100 95 123 95 c 0,8,9
EndSplineSet
EndChar

StartChar: less
Encoding: 60 60 29
Width: 550
GlyphClass: 2
Flags: W
LayerCount: 2
Fore
SplineSet
138 239 m 1,0,-1
 455 123 l 1,1,2
 465 112 465 112 465 95 c 128,-1,3
 465 78 465 78 455 73 c 1,4,-1
 65 215 l 1,5,6
 51 237 51 237 65 263 c 1,7,-1
 455 404 l 1,8,9
 465 399 465 399 465 382 c 128,-1,10
 465 365 465 365 455 354 c 1,11,-1
 138 239 l 1,0,-1
EndSplineSet
EndChar

StartChar: equal
Encoding: 61 61 30
Width: 550
GlyphClass: 2
Flags: W
LayerCount: 2
Fore
SplineSet
464 309 m 2,0,-1
 75 309 l 2,1,2
 60 309 60 309 60 325 c 0,3,4
 60 336 60 336 68 347.5 c 128,-1,5
 76 359 76 359 85 359 c 2,6,-1
 477 359 l 2,7,8
 491 359 491 359 491 342 c 0,9,10
 491 334 491 334 482 321.5 c 128,-1,11
 473 309 473 309 464 309 c 2,0,-1
464 143 m 2,12,-1
 75 143 l 2,13,14
 60 143 60 143 60 159 c 0,15,16
 60 170 60 170 68 181.5 c 128,-1,17
 76 193 76 193 85 193 c 2,18,-1
 477 193 l 2,19,20
 491 193 491 193 491 176 c 0,21,22
 491 168 491 168 482 155.5 c 128,-1,23
 473 143 473 143 464 143 c 2,12,-1
EndSplineSet
Substitution2: "'sinf' Scientific Inferiors lookup 8 subtable" equal.inferior
Substitution2: "'sups' Superscript lookup 7 subtable" equal.superior
AlternateSubs2: "'aalt' Access All Alternates lookup 0 subtable" equal.superior
EndChar

StartChar: greater
Encoding: 62 62 31
Width: 550
GlyphClass: 2
Flags: W
LayerCount: 2
Fore
SplineSet
412 236 m 1,0,-1
 95 352 l 1,1,2
 85 363 85 363 85 380 c 128,-1,3
 85 397 85 397 95 402 c 1,4,-1
 485 260 l 1,5,6
 499 238 499 238 485 212 c 1,7,-1
 95 71 l 1,8,9
 85 76 85 76 85 93 c 128,-1,10
 85 110 85 110 95 121 c 1,11,-1
 412 236 l 1,0,-1
EndSplineSet
EndChar

StartChar: question
Encoding: 63 63 32
Width: 435
GlyphClass: 2
Flags: W
LayerCount: 2
Fore
SplineSet
114 572 m 0,0,1
 114 554 114 554 120 546 c 128,-1,2
 126 538 126 538 126 522 c 128,-1,3
 126 506 126 506 114 496.5 c 128,-1,4
 102 487 102 487 87 487 c 0,5,6
 71 487 71 487 58.5 497 c 128,-1,7
 46 507 46 507 46 530 c 0,8,9
 46 579 46 579 97 620 c 1,10,11
 142 659 142 659 221 659 c 0,12,13
 297 659 297 659 343 617.5 c 128,-1,14
 389 576 389 576 389 508 c 0,15,16
 389 480 389 480 380 456 c 128,-1,17
 371 432 371 432 351 411.5 c 128,-1,18
 331 391 331 391 318 380 c 128,-1,19
 305 369 305 369 280 351 c 0,20,21
 238 320 238 320 228 301 c 0,22,23
 214 274 214 274 214 228 c 2,24,-1
 214 184 l 2,25,26
 214 174 214 174 197 174 c 0,27,28
 181 174 181 174 181 184 c 2,29,-1
 181 230 l 2,30,31
 181 327 181 327 251 391 c 0,32,33
 281 419 281 419 293.5 444 c 128,-1,34
 306 469 306 469 306 504 c 0,35,36
 306 554 306 554 279.5 590 c 128,-1,37
 253 626 253 626 211 626 c 128,-1,38
 169 626 169 626 141.5 610.5 c 128,-1,39
 114 595 114 595 114 572 c 0,0,1
144 43 m 128,-1,41
 144 65 144 65 159.5 80.5 c 128,-1,42
 175 96 175 96 197 96 c 128,-1,43
 219 96 219 96 234.5 80.5 c 128,-1,44
 250 65 250 65 250 43 c 128,-1,45
 250 21 250 21 234.5 5.5 c 128,-1,46
 219 -10 219 -10 197 -10 c 128,-1,47
 175 -10 175 -10 159.5 5.5 c 128,-1,40
 144 21 144 21 144 43 c 128,-1,41
EndSplineSet
EndChar

StartChar: at
Encoding: 64 64 33
Width: 895
GlyphClass: 2
Flags: W
LayerCount: 2
Fore
SplineSet
569 316 m 0,0,1
 569 344 569 344 550.5 361.5 c 128,-1,2
 532 379 532 379 504 379 c 0,3,4
 487 379 487 379 460.5 369.5 c 128,-1,5
 434 360 434 360 414 339 c 0,6,7
 346 271 346 271 346 162 c 0,8,9
 346 70 346 70 424 70 c 0,10,11
 450 70 450 70 483 107.5 c 128,-1,12
 516 145 516 145 539 200 c 0,13,14
 569 272 569 272 569 316 c 0,0,1
583 74 m 0,15,16
 583 62 583 62 594 62 c 0,17,18
 676 62 676 62 717.5 109.5 c 128,-1,19
 759 157 759 157 759 275 c 0,20,21
 759 349 759 349 730 409 c 128,-1,22
 701 469 701 469 655.5 505 c 128,-1,23
 610 541 610 541 559 560.5 c 128,-1,24
 508 580 508 580 459 580 c 0,25,26
 400 580 400 580 344.5 559.5 c 128,-1,27
 289 539 289 539 242.5 499.5 c 128,-1,28
 196 460 196 460 167.5 393 c 128,-1,29
 139 326 139 326 139 241 c 0,30,31
 139 193 139 193 148.5 145 c 128,-1,32
 158 97 158 97 182.5 47.5 c 128,-1,33
 207 -2 207 -2 243.5 -39.5 c 128,-1,34
 280 -77 280 -77 339.5 -101 c 128,-1,35
 399 -125 399 -125 473 -125 c 0,36,37
 591 -125 591 -125 674 -59 c 1,38,-1
 687 -77 l 1,39,40
 634 -117 634 -117 583 -137.5 c 128,-1,41
 532 -158 532 -158 454 -158 c 0,42,43
 278 -158 278 -158 168.5 -49 c 128,-1,44
 59 60 59 60 59 223 c 0,45,46
 59 384 59 384 179.5 497.5 c 128,-1,47
 300 611 300 611 469 611 c 0,48,49
 629 611 629 611 734 517 c 128,-1,50
 839 423 839 423 839 282 c 0,51,52
 839 236 839 236 824 193.5 c 128,-1,53
 809 151 809 151 777.5 112.5 c 128,-1,54
 746 74 746 74 687.5 50.5 c 128,-1,55
 629 27 629 27 551 27 c 0,56,57
 515 27 515 27 515 68 c 0,58,59
 515 84 515 84 530 131 c 1,60,-1
 528 132 l 1,61,62
 497 80 497 80 460.5 54.5 c 128,-1,63
 424 29 424 29 395 29 c 0,64,65
 360 29 360 29 334 42.5 c 128,-1,66
 308 56 308 56 296 76.5 c 128,-1,67
 284 97 284 97 278.5 116 c 128,-1,68
 273 135 273 135 273 153 c 0,69,70
 273 256 273 256 347.5 333 c 128,-1,71
 422 410 422 410 506 410 c 0,72,73
 531 410 531 410 553.5 398 c 128,-1,74
 576 386 576 386 583 367 c 1,75,-1
 588 391 l 1,76,-1
 641 404 l 1,77,-1
 656 399 l 1,78,-1
 596 141 l 2,79,80
 583 83 583 83 583 74 c 0,15,16
EndSplineSet
EndChar

StartChar: A
Encoding: 65 65 34
Width: 695
GlyphClass: 2
Flags: W
AnchorPoint: "Anchor-6" 308 -110 basechar 0
AnchorPoint: "Anchor-5" 116 5 basechar 0
AnchorPoint: "Anchor-2" 354 850 basechar 0
LayerCount: 2
Fore
SplineSet
263 283 m 2,0,-1
 440 283 l 1,1,-1
 346 555 l 1,2,-1
 340 555 l 1,3,-1
 238 296 l 2,4,5
 235 289 235 289 240.5 286 c 128,-1,6
 246 283 246 283 263 283 c 2,0,-1
155 79 m 1,7,8
 154 69 154 69 152 61.5 c 128,-1,9
 150 54 150 54 157.5 49 c 128,-1,10
 165 44 165 44 169.5 41 c 128,-1,11
 174 38 174 38 186 35.5 c 128,-1,12
 198 33 198 33 205 32.5 c 128,-1,13
 212 32 212 32 224 31 c 1,14,15
 228 26 228 26 228 14 c 128,-1,16
 228 2 228 2 224 -2 c 1,17,18
 150 0 150 0 96 0 c 0,19,20
 59 0 59 0 7 -2 c 1,21,22
 2 2 2 2 2 14 c 128,-1,23
 2 26 2 26 7 31 c 1,24,25
 45 34 45 34 67 46.5 c 128,-1,26
 89 59 89 59 107 102 c 2,27,-1
 334 638 l 1,28,29
 356 638 356 638 389 658 c 1,30,-1
 595 86 l 2,31,32
 603 63 603 63 618.5 51 c 128,-1,33
 634 39 634 39 647 36 c 128,-1,34
 660 33 660 33 685 31 c 1,35,36
 690 26 690 26 690 14 c 128,-1,37
 690 2 690 2 685 -2 c 1,38,39
 615 0 615 0 571 0 c 0,40,41
 514 0 514 0 440 -2 c 1,42,43
 436 2 436 2 436 14 c 128,-1,44
 436 26 436 26 440 31 c 1,45,46
 449 32 449 32 454 32 c 128,-1,47
 459 32 459 32 467 33 c 128,-1,48
 475 34 475 34 479.5 35 c 128,-1,49
 484 36 484 36 490 37 c 128,-1,50
 496 38 496 38 499.5 39.5 c 128,-1,51
 503 41 503 41 507 43.5 c 128,-1,52
 511 46 511 46 512.5 48.5 c 128,-1,53
 514 51 514 51 515.5 54.5 c 128,-1,54
 517 58 517 58 516.5 62.5 c 128,-1,55
 516 67 516 67 514 72 c 2,56,-1
 456 241 l 1,57,-1
 245 241 l 2,58,59
 227 241 227 241 220.5 237.5 c 128,-1,60
 214 234 214 234 210 224 c 2,61,-1
 155 79 l 1,7,8
EndSplineSet
Substitution2: "'c2sc' Capitals to Small Capitals lookup 9 subtable" a.sc
Position2: "'cpsp' Capital Spacing lookup 0 subtable" dx=2 dy=0 dh=5 dv=0
EndChar

StartChar: B
Encoding: 66 66 35
Width: 588
GlyphClass: 2
Flags: W
AnchorPoint: "Anchor-6" 268 -110 basechar 0
AnchorPoint: "Anchor-5" 250 0 basechar 0
AnchorPoint: "Anchor-3" 306 175 basechar 0
AnchorPoint: "Anchor-2" 267 850 basechar 0
AnchorPoint: "Anchor-0" 509 732 basechar 0
LayerCount: 2
Fore
SplineSet
191 550 m 2,0,-1
 191 366 l 1,1,-1
 265 366 l 2,2,3
 407 366 407 366 407 481 c 0,4,5
 407 550 407 550 368 581.5 c 128,-1,6
 329 613 329 613 278 613 c 0,7,8
 234 613 234 613 216.5 607.5 c 128,-1,9
 199 602 199 602 195 591.5 c 128,-1,10
 191 581 191 581 191 550 c 2,0,-1
191 332 m 1,11,-1
 191 118 l 2,12,13
 191 70 191 70 207.5 50.5 c 128,-1,14
 224 31 224 31 274 31 c 0,15,16
 379 31 379 31 416.5 66.5 c 128,-1,17
 454 102 454 102 454 165 c 0,18,19
 454 238 454 238 405.5 285 c 128,-1,20
 357 332 357 332 260 332 c 2,21,-1
 191 332 l 1,11,-1
148 645 m 0,22,23
 166 645 166 645 211 646 c 128,-1,24
 256 647 256 647 273 647 c 0,25,26
 488 647 488 647 488 493 c 0,27,28
 488 454 488 454 460.5 418 c 128,-1,29
 433 382 433 382 393 362 c 1,30,-1
 393 360 l 1,31,32
 463 340 463 340 505 296 c 128,-1,33
 547 252 547 252 547 184 c 0,34,35
 547 149 547 149 535 118 c 128,-1,36
 523 87 523 87 496 59 c 128,-1,37
 469 31 469 31 417.5 14.5 c 128,-1,38
 366 -2 366 -2 295 -2 c 0,39,40
 247 -2 247 -2 204 -1 c 128,-1,41
 161 0 161 0 149 0 c 0,42,43
 97 0 97 0 19 -2 c 1,44,45
 14 2 14 2 14 14 c 128,-1,46
 14 26 14 26 19 31 c 1,47,48
 75 33 75 33 90.5 47.5 c 128,-1,49
 106 62 106 62 106 122 c 2,50,-1
 106 523 l 2,51,52
 106 583 106 583 90.5 597.5 c 128,-1,53
 75 612 75 612 19 614 c 1,54,55
 14 618 14 618 14 630 c 128,-1,56
 14 642 14 642 19 647 c 1,57,58
 97 645 97 645 148 645 c 0,22,23
EndSplineSet
Substitution2: "'c2sc' Capitals to Small Capitals lookup 9 subtable" b.sc
Position2: "'cpsp' Capital Spacing lookup 0 subtable" dx=2 dy=0 dh=5 dv=0
EndChar

StartChar: C
Encoding: 67 67 36
Width: 646
GlyphClass: 2
Flags: W
AnchorPoint: "Anchor-6" 363 -110 basechar 0
AnchorPoint: "Anchor-5" 356 -7 basechar 0
AnchorPoint: "Anchor-3" 346 315 basechar 0
AnchorPoint: "Anchor-2" 340 850 basechar 0
AnchorPoint: "Anchor-1" 620 606 basechar 0
AnchorPoint: "Anchor-0" 609 732 basechar 0
LayerCount: 2
Fore
SplineSet
357 -10 m 0,0,1
 203 -10 203 -10 120 81 c 128,-1,2
 37 172 37 172 37 310 c 0,3,4
 37 388 37 388 65 457.5 c 128,-1,5
 93 527 93 527 143 573 c 0,6,7
 236 658 236 658 358 658 c 0,8,9
 430 658 430 658 498.5 636 c 128,-1,10
 567 614 567 614 577 613 c 1,11,12
 592 530 592 530 599 458 c 1,13,14
 580 448 580 448 566 453 c 1,15,16
 515 621 515 621 347 621 c 0,17,18
 260 621 260 621 187 532 c 0,19,20
 128 459 128 459 128 329 c 0,21,22
 128 214 128 214 193.5 122.5 c 128,-1,23
 259 31 259 31 356 31 c 0,24,25
 426 31 426 31 480.5 56.5 c 128,-1,26
 535 82 535 82 588 140 c 1,27,28
 603 140 603 140 611 125 c 1,29,30
 508 -10 508 -10 357 -10 c 0,0,1
EndSplineSet
Substitution2: "'c2sc' Capitals to Small Capitals lookup 9 subtable" c.sc
Position2: "'cpsp' Capital Spacing lookup 0 subtable" dx=2 dy=0 dh=5 dv=0
EndChar

StartChar: D
Encoding: 68 68 37
Width: 701
GlyphClass: 2
Flags: W
AnchorPoint: "Anchor-6" 309 -110 basechar 0
AnchorPoint: "Anchor-5" 309 1 basechar 0
AnchorPoint: "Anchor-3" 346 315 basechar 0
AnchorPoint: "Anchor-2" 306 850 basechar 0
AnchorPoint: "Anchor-0" 619 732 basechar 0
LayerCount: 2
Fore
SplineSet
191 84 m 2,0,1
 191 57 191 57 211.5 44.5 c 128,-1,2
 232 32 232 32 300 32 c 0,3,4
 357 32 357 32 401 43.5 c 128,-1,5
 445 55 445 55 483 82 c 128,-1,6
 521 109 521 109 541.5 160 c 128,-1,7
 562 211 562 211 562 284 c 0,8,9
 562 345 562 345 547 401 c 128,-1,10
 532 457 532 457 500 506 c 128,-1,11
 468 555 468 555 410 584 c 128,-1,12
 352 613 352 613 275 613 c 0,13,14
 191 613 191 613 191 564 c 2,15,-1
 191 84 l 2,0,1
148 645 m 0,16,17
 164 645 164 645 219 646 c 128,-1,18
 274 647 274 647 313 647 c 0,19,20
 457 647 457 647 557.5 547.5 c 128,-1,21
 658 448 658 448 658 308 c 0,22,23
 658 220 658 220 627.5 156.5 c 128,-1,24
 597 93 597 93 546.5 60 c 128,-1,25
 496 27 496 27 442.5 12.5 c 128,-1,26
 389 -2 389 -2 331 -2 c 0,27,28
 271 -2 271 -2 215 -1 c 128,-1,29
 159 0 159 0 149 0 c 0,30,31
 97 0 97 0 19 -2 c 1,32,33
 14 2 14 2 14 14 c 128,-1,34
 14 26 14 26 19 31 c 1,35,36
 75 33 75 33 90.5 47.5 c 128,-1,37
 106 62 106 62 106 122 c 2,38,-1
 106 523 l 2,39,40
 106 583 106 583 90.5 597.5 c 128,-1,41
 75 612 75 612 19 614 c 1,42,43
 14 618 14 618 14 630 c 128,-1,44
 14 642 14 642 19 647 c 1,45,46
 99 645 99 645 148 645 c 0,16,17
EndSplineSet
Substitution2: "'c2sc' Capitals to Small Capitals lookup 9 subtable" d.sc
Position2: "'cpsp' Capital Spacing lookup 0 subtable" dx=2 dy=0 dh=5 dv=0
EndChar

StartChar: E
Encoding: 69 69 38
Width: 557
GlyphClass: 2
Flags: W
AnchorPoint: "Anchor-6" 287 -110 basechar 0
AnchorPoint: "Anchor-5" 287 4 basechar 0
AnchorPoint: "Anchor-2" 281 850 basechar 0
AnchorPoint: "Anchor-0" 527 732 basechar 0
LayerCount: 2
Fore
SplineSet
281 361 m 2,0,1
 342 361 342 361 356 373 c 128,-1,2
 370 385 370 385 372 429 c 1,3,4
 376 434 376 434 388 434 c 128,-1,5
 400 434 400 434 405 429 c 1,6,7
 403 381 403 381 403 343 c 0,8,9
 403 307 403 307 405 255 c 1,10,11
 400 250 400 250 388 250 c 128,-1,12
 376 250 376 250 372 255 c 1,13,14
 370 282 370 282 366 293.5 c 128,-1,15
 362 305 362 305 342 314 c 128,-1,16
 322 323 322 323 281 323 c 2,17,-1
 190 323 l 1,18,-1
 190 102 l 2,19,20
 190 67 190 67 202.5 53 c 128,-1,21
 215 39 215 39 246 39 c 2,22,-1
 362 39 l 2,23,24
 457 39 457 39 493 170 c 1,25,26
 511 174 511 174 528 165 c 1,27,28
 516 86 516 86 491 -2 c 1,29,30
 411 0 411 0 363 0 c 2,31,-1
 148 0 l 2,32,33
 92 0 92 0 18 -2 c 1,34,35
 14 2 14 2 14 14 c 128,-1,36
 14 26 14 26 18 31 c 1,37,38
 74 33 74 33 89.5 47.5 c 128,-1,39
 105 62 105 62 105 122 c 2,40,-1
 105 523 l 2,41,42
 105 583 105 583 89.5 597.5 c 128,-1,43
 74 612 74 612 18 614 c 1,44,45
 14 618 14 618 14 630 c 128,-1,46
 14 642 14 642 18 647 c 1,47,48
 98 645 98 645 147 645 c 2,49,-1
 402 645 l 2,50,51
 428 645 428 645 451 649 c 0,52,53
 455 649 455 649 455 646 c 0,54,55
 463 612 463 612 477 501 c 1,56,57
 461 493 461 493 444 496 c 1,58,59
 425 556 425 556 404 580.5 c 128,-1,60
 383 605 383 605 331 605 c 2,61,-1
 256 605 l 2,62,63
 217 605 217 605 203.5 590.5 c 128,-1,64
 190 576 190 576 190 541 c 2,65,-1
 190 361 l 1,66,-1
 281 361 l 2,0,1
EndSplineSet
Substitution2: "'c2sc' Capitals to Small Capitals lookup 9 subtable" e.sc
Position2: "'cpsp' Capital Spacing lookup 0 subtable" dx=2 dy=0 dh=5 dv=0
EndChar

StartChar: F
Encoding: 70 70 39
Width: 485
GlyphClass: 2
Flags: W
AnchorPoint: "Anchor-6" 209 -110 basechar 0
AnchorPoint: "Anchor-5" 153 -1 basechar 0
AnchorPoint: "Anchor-2" 284 850 basechar 0
AnchorPoint: "Anchor-0" 507 732 basechar 0
LayerCount: 2
Fore
SplineSet
283 323 m 2,0,-1
 190 323 l 1,1,-1
 190 122 l 2,2,3
 190 90 190 90 193 73 c 128,-1,4
 196 56 196 56 207.5 46.5 c 128,-1,5
 219 37 219 37 233 34.5 c 128,-1,6
 247 32 247 32 277 31 c 1,7,8
 281 26 281 26 281 14 c 128,-1,9
 281 2 281 2 277 -2 c 1,10,11
 207 0 207 0 148 0 c 0,12,13
 88 0 88 0 18 -2 c 1,14,15
 13 2 13 2 13 14 c 128,-1,16
 13 26 13 26 18 31 c 1,17,18
 48 32 48 32 62 34.5 c 128,-1,19
 76 37 76 37 87.5 46.5 c 128,-1,20
 99 56 99 56 102 73 c 128,-1,21
 105 90 105 90 105 122 c 2,22,-1
 105 523 l 2,23,24
 105 555 105 555 102 572 c 128,-1,25
 99 589 99 589 87.5 598.5 c 128,-1,26
 76 608 76 608 62 610.5 c 128,-1,27
 48 613 48 613 18 614 c 1,28,29
 13 618 13 618 13 630 c 128,-1,30
 13 642 13 642 18 647 c 1,31,32
 98 645 98 645 147 645 c 2,33,-1
 402 645 l 2,34,35
 429 645 429 645 449 649 c 0,36,37
 453 649 453 649 453 646 c 0,38,39
 464 588 464 588 475 501 c 1,40,41
 462 496 462 496 444 496 c 1,42,43
 432 535 432 535 418 556 c 128,-1,44
 404 577 404 577 373 591 c 128,-1,45
 342 605 342 605 291 605 c 2,46,-1
 246 605 l 2,47,48
 212 605 212 605 201 593 c 128,-1,49
 190 581 190 581 190 541 c 2,50,-1
 190 361 l 1,51,-1
 283 361 l 2,52,53
 344 361 344 361 358 373 c 128,-1,54
 372 385 372 385 374 429 c 1,55,56
 378 434 378 434 390 434 c 128,-1,57
 402 434 402 434 407 429 c 1,58,59
 405 377 405 377 405 343 c 0,60,61
 405 305 405 305 407 255 c 1,62,63
 402 250 402 250 390 250 c 128,-1,64
 378 250 378 250 374 255 c 1,65,66
 372 282 372 282 368 293.5 c 128,-1,67
 364 305 364 305 344 314 c 128,-1,68
 324 323 324 323 283 323 c 2,0,-1
EndSplineSet
Substitution2: "'c2sc' Capitals to Small Capitals lookup 9 subtable" f.sc
Position2: "'cpsp' Capital Spacing lookup 0 subtable" dx=2 dy=0 dh=5 dv=0
EndChar

StartChar: G
Encoding: 71 71 40
Width: 685
GlyphClass: 2
Flags: W
AnchorPoint: "Anchor-6" 367 -110 basechar 0
AnchorPoint: "Anchor-5" 337 2 basechar 0
AnchorPoint: "Anchor-3" 308 335 basechar 0
AnchorPoint: "Anchor-2" 365 850 basechar 0
AnchorPoint: "Anchor-1" 600 606 basechar 0
AnchorPoint: "Anchor-0" 631 732 basechar 0
LayerCount: 2
Fore
SplineSet
377 658 m 0,0,1
 426 658 426 658 463.5 649 c 128,-1,2
 501 640 501 640 532.5 628 c 128,-1,3
 564 616 564 616 585 613 c 1,4,5
 604 528 604 528 608 459 c 1,6,7
 591 452 591 452 575 453 c 1,8,9
 564 491 564 491 551 517 c 128,-1,10
 538 543 538 543 514.5 569 c 128,-1,11
 491 595 491 595 453 608.5 c 128,-1,12
 415 622 415 622 363 622 c 0,13,14
 272 622 272 622 202.5 538 c 128,-1,15
 133 454 133 454 133 327 c 0,16,17
 133 258 133 258 159.5 190.5 c 128,-1,18
 186 123 186 123 243 74.5 c 128,-1,19
 300 26 300 26 375 26 c 0,20,21
 490 26 490 26 530 64 c 1,22,-1
 530 217 l 2,23,24
 530 245 530 245 512.5 253 c 128,-1,25
 495 261 495 261 448 265 c 1,26,27
 444 270 444 270 444 283 c 128,-1,28
 444 296 444 296 448 301 c 1,29,30
 536 299 536 299 572 299 c 0,31,32
 613 299 613 299 661 301 c 1,33,34
 666 296 666 296 666 283 c 128,-1,35
 666 270 666 270 661 265 c 1,36,37
 637 263 637 263 626 252.5 c 128,-1,38
 615 242 615 242 615 217 c 2,39,-1
 615 101 l 2,40,41
 615 86 615 86 631 73 c 1,42,43
 534 -10 534 -10 352 -10 c 0,44,45
 211 -10 211 -10 124 80 c 128,-1,46
 37 170 37 170 37 307 c 0,47,48
 37 412 37 412 87.5 494 c 128,-1,49
 138 576 138 576 215 617 c 128,-1,50
 292 658 292 658 377 658 c 0,0,1
EndSplineSet
Substitution2: "'c2sc' Capitals to Small Capitals lookup 9 subtable" g.sc
Position2: "'cpsp' Capital Spacing lookup 0 subtable" dx=2 dy=0 dh=5 dv=0
EndChar

StartChar: H
Encoding: 72 72 41
Width: 730
GlyphClass: 2
Flags: W
AnchorPoint: "Anchor-6" 360 -110 basechar 0
AnchorPoint: "Anchor-5" 150 0 basechar 0
AnchorPoint: "Anchor-3" 356 485 basechar 0
AnchorPoint: "Anchor-2" 361 850 basechar 0
AnchorPoint: "Anchor-0" 729 732 basechar 0
LayerCount: 2
Fore
SplineSet
618 122 m 2,0,1
 618 62 618 62 633.5 47.5 c 128,-1,2
 649 33 649 33 705 31 c 1,3,4
 710 26 710 26 710 14 c 128,-1,5
 710 2 710 2 705 -2 c 1,6,7
 617 0 617 0 576 0 c 0,8,9
 536 0 536 0 446 -2 c 1,10,11
 442 2 442 2 442 14 c 128,-1,12
 442 26 442 26 446 31 c 1,13,14
 502 33 502 33 517.5 47.5 c 128,-1,15
 533 62 533 62 533 122 c 2,16,-1
 533 321 l 1,17,-1
 191 321 l 1,18,-1
 191 122 l 2,19,20
 191 62 191 62 206.5 47.5 c 128,-1,21
 222 33 222 33 278 31 c 1,22,23
 282 26 282 26 282 14 c 128,-1,24
 282 2 282 2 278 -2 c 1,25,26
 190 0 190 0 149 0 c 0,27,28
 107 0 107 0 19 -2 c 1,29,30
 14 2 14 2 14 14 c 128,-1,31
 14 26 14 26 19 31 c 1,32,33
 75 33 75 33 90.5 47.5 c 128,-1,34
 106 62 106 62 106 122 c 2,35,-1
 106 523 l 2,36,37
 106 583 106 583 90.5 597.5 c 128,-1,38
 75 612 75 612 19 614 c 1,39,40
 14 618 14 618 14 630 c 128,-1,41
 14 642 14 642 19 647 c 1,42,43
 95 645 95 645 148 645 c 0,44,45
 202 645 202 645 278 647 c 1,46,47
 282 642 282 642 282 630 c 128,-1,48
 282 618 282 618 278 614 c 1,49,50
 222 612 222 612 206.5 597.5 c 128,-1,51
 191 583 191 583 191 523 c 2,52,-1
 191 363 l 1,53,-1
 533 363 l 1,54,-1
 533 523 l 2,55,56
 533 583 533 583 517.5 597.5 c 128,-1,57
 502 612 502 612 446 614 c 1,58,59
 442 618 442 618 442 630 c 128,-1,60
 442 642 442 642 446 647 c 1,61,62
 534 645 534 645 575 645 c 0,63,64
 623 645 623 645 705 647 c 1,65,66
 710 642 710 642 710 630 c 128,-1,67
 710 618 710 618 705 614 c 1,68,69
 649 612 649 612 633.5 597.5 c 128,-1,70
 618 583 618 583 618 523 c 2,71,-1
 618 122 l 2,0,1
EndSplineSet
Substitution2: "'c2sc' Capitals to Small Capitals lookup 9 subtable" h.sc
Position2: "'cpsp' Capital Spacing lookup 0 subtable" dx=2 dy=0 dh=5 dv=0
EndChar

StartChar: I
Encoding: 73 73 42
Width: 297
GlyphClass: 2
Flags: W
AnchorPoint: "Anchor-6" 147 -110 basechar 0
AnchorPoint: "Anchor-5" 147 1 basechar 0
AnchorPoint: "Anchor-3" 148 325 basechar 0
AnchorPoint: "Anchor-2" 150 850 basechar 0
LayerCount: 2
Fore
SplineSet
191 122 m 2,0,1
 191 62 191 62 206.5 47.5 c 128,-1,2
 222 33 222 33 278 31 c 1,3,4
 282 26 282 26 282 14 c 128,-1,5
 282 2 282 2 278 -2 c 1,6,7
 188 0 188 0 149 0 c 0,8,9
 109 0 109 0 19 -2 c 1,10,11
 14 2 14 2 14 14 c 128,-1,12
 14 26 14 26 19 31 c 1,13,14
 75 33 75 33 90.5 47.5 c 128,-1,15
 106 62 106 62 106 122 c 2,16,-1
 106 523 l 2,17,18
 106 583 106 583 90.5 597.5 c 128,-1,19
 75 612 75 612 19 614 c 1,20,21
 14 618 14 618 14 630 c 128,-1,22
 14 642 14 642 19 647 c 1,23,24
 113 645 113 645 148 645 c 0,25,26
 190 645 190 645 278 647 c 1,27,28
 282 642 282 642 282 630 c 128,-1,29
 282 618 282 618 278 614 c 1,30,31
 222 612 222 612 206.5 597.5 c 128,-1,32
 191 583 191 583 191 523 c 2,33,-1
 191 122 l 2,0,1
EndSplineSet
Substitution2: "'c2sc' Capitals to Small Capitals lookup 9 subtable" i.sc
Position2: "'cpsp' Capital Spacing lookup 0 subtable" dx=2 dy=0 dh=5 dv=0
EndChar

StartChar: J
Encoding: 74 74 43
Width: 322
GlyphClass: 2
Flags: W
AnchorPoint: "Anchor-3" 186 315 basechar 0
AnchorPoint: "Anchor-2" 182 850 basechar 0
LayerCount: 2
Fore
SplineSet
226 523 m 2,0,-1
 226 103 l 2,1,2
 226 52 226 52 217 13 c 128,-1,3
 208 -26 208 -26 190 -54 c 128,-1,4
 172 -82 172 -82 159 -96 c 128,-1,5
 146 -110 146 -110 124 -129 c 0,6,7
 74 -172 74 -172 7 -172 c 0,8,9
 -15 -172 -15 -172 -41.5 -157 c 128,-1,10
 -68 -142 -68 -142 -68 -118 c 0,11,12
 -68 -103 -68 -103 -52 -89 c 128,-1,13
 -36 -75 -36 -75 -24 -75 c 0,14,15
 4 -75 4 -75 16 -100 c 0,16,17
 28 -127 28 -127 56 -127 c 0,18,19
 76 -127 76 -127 93 -114 c 128,-1,20
 110 -101 110 -101 125.5 -51.5 c 128,-1,21
 141 -2 141 -2 141 81 c 2,22,-1
 141 523 l 2,23,24
 141 583 141 583 124 597.5 c 128,-1,25
 107 612 107 612 44 614 c 1,26,27
 40 618 40 618 40 630 c 128,-1,28
 40 642 40 642 44 647 c 1,29,30
 144 645 144 645 183 645 c 0,31,32
 227 645 227 645 303 647 c 1,33,34
 308 642 308 642 308 630 c 128,-1,35
 308 618 308 618 303 614 c 1,36,37
 255 612 255 612 240.5 597 c 128,-1,38
 226 582 226 582 226 523 c 2,0,-1
EndSplineSet
Substitution2: "'ss02' Style Set 2 lookup 22 subtable" J.alt
Substitution2: "'c2sc' Capitals to Small Capitals lookup 9 subtable" j.sc
Position2: "'cpsp' Capital Spacing lookup 0 subtable" dx=2 dy=0 dh=5 dv=0
EndChar

StartChar: K
Encoding: 75 75 44
Width: 637
GlyphClass: 2
Flags: W
AnchorPoint: "Anchor-6" 342 -110 basechar 0
AnchorPoint: "Anchor-5" 148 -1 basechar 0
AnchorPoint: "Anchor-2" 336 850 basechar 0
AnchorPoint: "Anchor-0" 649 732 basechar 0
LayerCount: 2
Fore
SplineSet
191 122 m 2,0,1
 191 101 191 101 192.5 87 c 128,-1,2
 194 73 194 73 198.5 62.5 c 128,-1,3
 203 52 203 52 208 46.5 c 128,-1,4
 213 41 213 41 224.5 37.5 c 128,-1,5
 236 34 236 34 247 33 c 128,-1,6
 258 32 258 32 278 31 c 1,7,8
 283 26 283 26 283 14 c 128,-1,9
 283 2 283 2 278 -2 c 1,10,11
 188 0 188 0 149 0 c 0,12,13
 109 0 109 0 19 -2 c 1,14,15
 15 2 15 2 15 14 c 128,-1,16
 15 26 15 26 19 31 c 1,17,18
 49 32 49 32 63 34.5 c 128,-1,19
 77 37 77 37 88.5 46.5 c 128,-1,20
 100 56 100 56 103 73 c 128,-1,21
 106 90 106 90 106 122 c 2,22,-1
 106 523 l 2,23,24
 106 555 106 555 103 572 c 128,-1,25
 100 589 100 589 88.5 598.5 c 128,-1,26
 77 608 77 608 63 610.5 c 128,-1,27
 49 613 49 613 19 614 c 1,28,29
 15 618 15 618 15 630 c 128,-1,30
 15 642 15 642 19 647 c 1,31,32
 109 645 109 645 148 645 c 0,33,34
 186 645 186 645 278 647 c 1,35,36
 283 642 283 642 283 630 c 128,-1,37
 283 618 283 618 278 614 c 1,38,39
 248 613 248 613 234 610.5 c 128,-1,40
 220 608 220 608 208.5 598.5 c 128,-1,41
 197 589 197 589 194 572 c 128,-1,42
 191 555 191 555 191 523 c 2,43,-1
 191 347 l 1,44,45
 237 351 237 351 270 386 c 2,46,-1
 435 562 l 2,47,48
 450 578 450 578 454 588.5 c 128,-1,49
 458 599 458 599 450 604 c 128,-1,50
 442 609 442 609 433.5 610.5 c 128,-1,51
 425 612 425 612 407 614 c 1,52,53
 402 618 402 618 402 630 c 128,-1,54
 402 642 402 642 407 647 c 1,55,56
 481 645 481 645 520 645 c 0,57,58
 553 645 553 645 615 647 c 1,59,60
 620 642 620 642 620 630 c 128,-1,61
 620 618 620 618 615 614 c 1,62,63
 589 612 589 612 573.5 609 c 128,-1,64
 558 606 558 606 534.5 593.5 c 128,-1,65
 511 581 511 581 489 558 c 2,66,-1
 342 407 l 2,67,68
 307 371 307 371 307 358 c 0,69,70
 307 348 307 348 320 333 c 2,71,-1
 539 73 l 2,72,73
 548 63 548 63 557.5 55 c 128,-1,74
 567 47 567 47 574.5 43 c 128,-1,75
 582 39 582 39 592.5 36.5 c 128,-1,76
 603 34 603 34 609.5 33 c 128,-1,77
 616 32 616 32 627 31 c 1,78,79
 632 27 632 27 632 15 c 128,-1,80
 632 3 632 3 627 -2 c 1,81,82
 561 0 561 0 526 0 c 0,83,84
 512 0 512 0 472 -2 c 0,85,86
 468 -2 468 -2 467 4 c 0,87,88
 463 32 463 32 431 73 c 2,89,-1
 274 271 l 2,90,91
 245 307 245 307 191 309 c 1,92,-1
 191 122 l 2,0,1
EndSplineSet
Substitution2: "'ss02' Style Set 2 lookup 22 subtable" K.alt
Substitution2: "'c2sc' Capitals to Small Capitals lookup 9 subtable" k.sc
AlternateSubs2: "'aalt' Access All Alternates lookup 0 subtable" K.alt k.sc
Position2: "'cpsp' Capital Spacing lookup 0 subtable" dx=2 dy=0 dh=5 dv=0
EndChar

StartChar: L
Encoding: 76 76 45
Width: 528
GlyphClass: 2
Flags: W
AnchorPoint: "Anchor-6" 262 -110 basechar 0
AnchorPoint: "Anchor-5" 262 1 basechar 0
AnchorPoint: "Anchor-3" 288 315 basechar 0
AnchorPoint: "Anchor-2" 151 850 basechar 0
AnchorPoint: "Anchor-0" 471 732 basechar 0
LayerCount: 2
Fore
SplineSet
149 0 m 2,0,1
 97 0 97 0 19 -2 c 1,2,3
 14 2 14 2 14 14 c 128,-1,4
 14 26 14 26 19 31 c 1,5,6
 75 33 75 33 90.5 47.5 c 128,-1,7
 106 62 106 62 106 122 c 2,8,-1
 106 523 l 2,9,10
 106 583 106 583 90.5 597.5 c 128,-1,11
 75 612 75 612 19 614 c 1,12,13
 14 618 14 618 14 630 c 128,-1,14
 14 642 14 642 19 647 c 1,15,16
 111 645 111 645 148 645 c 0,17,18
 188 645 188 645 278 647 c 1,19,20
 282 642 282 642 282 630 c 128,-1,21
 282 618 282 618 278 614 c 1,22,23
 222 612 222 612 206.5 597.5 c 128,-1,24
 191 583 191 583 191 523 c 2,25,-1
 191 109 l 2,26,27
 191 71 191 71 204.5 55 c 128,-1,28
 218 39 218 39 248 39 c 2,29,-1
 311 39 l 2,30,31
 384 39 384 39 420.5 73.5 c 128,-1,32
 457 108 457 108 474 170 c 1,33,34
 491 173 491 173 507 165 c 1,35,36
 497 78 497 78 481 -2 c 1,37,38
 389 0 389 0 362 0 c 2,39,-1
 149 0 l 2,0,1
EndSplineSet
Substitution2: "'c2sc' Capitals to Small Capitals lookup 9 subtable" l.sc
Position2: "'cpsp' Capital Spacing lookup 0 subtable" dx=2 dy=0 dh=5 dv=0
EndChar

StartChar: M
Encoding: 77 77 46
Width: 839
GlyphClass: 2
Flags: W
AnchorPoint: "Anchor-6" 393 -110 basechar 0
AnchorPoint: "Anchor-5" 107 2 basechar 0
AnchorPoint: "Anchor-3" 426 445 basechar 0
AnchorPoint: "Anchor-2" 431 850 basechar 0
LayerCount: 2
Fore
SplineSet
663 116 m 2,0,-1
 637 534 l 1,1,-1
 635 534 l 1,2,-1
 410 5 l 2,3,4
 403 -10 403 -10 396 -10 c 0,5,6
 387 -10 387 -10 381 5 c 2,7,-1
 174 524 l 1,8,-1
 172 524 l 1,9,-1
 134 123 l 2,10,11
 132 102 132 102 133 85.5 c 128,-1,12
 134 69 134 69 140 57.5 c 128,-1,13
 146 46 146 46 161 39.5 c 128,-1,14
 176 33 176 33 200 31 c 1,15,16
 205 26 205 26 205 14 c 128,-1,17
 205 2 205 2 200 -2 c 1,18,19
 140 0 140 0 106 0 c 0,20,21
 80 0 80 0 20 -2 c 1,22,23
 16 2 16 2 16 14 c 128,-1,24
 16 26 16 26 20 31 c 1,25,26
 61 35 61 35 75.5 54 c 128,-1,27
 90 73 90 73 95 121 c 2,28,-1
 135 533 l 2,29,30
 136 548 136 548 137 558 c 128,-1,31
 138 568 138 568 137 577 c 128,-1,32
 136 586 136 586 135 590.5 c 128,-1,33
 134 595 134 595 129.5 600 c 128,-1,34
 125 605 125 605 121 606.5 c 128,-1,35
 117 608 117 608 107.5 610 c 128,-1,36
 98 612 98 612 90 612.5 c 128,-1,37
 82 613 82 613 67 614 c 1,38,39
 63 618 63 618 63 630 c 128,-1,40
 63 642 63 642 67 647 c 1,41,-1
 212 645 l 1,42,-1
 417 137 l 2,43,44
 422 124 422 124 425 124 c 256,45,46
 428 124 428 124 434 138 c 2,47,-1
 646 645 l 1,48,-1
 777 647 l 1,49,50
 782 642 782 642 782 630 c 128,-1,51
 782 618 782 618 777 614 c 1,52,53
 728 611 728 611 716.5 597.5 c 128,-1,54
 705 584 705 584 708 542 c 2,55,-1
 738 121 l 2,56,57
 740 97 740 97 741 85.5 c 128,-1,58
 742 74 742 74 745.5 62 c 128,-1,59
 749 50 749 50 753 46 c 128,-1,60
 757 42 757 42 766.5 37.5 c 128,-1,61
 776 33 776 33 786 32.5 c 128,-1,62
 796 32 796 32 815 31 c 1,63,64
 820 26 820 26 820 14 c 128,-1,65
 820 2 820 2 815 -2 c 1,66,67
 749 0 749 0 706 0 c 0,68,69
 673 0 673 0 599 -2 c 1,70,71
 594 2 594 2 594 14 c 128,-1,72
 594 26 594 26 599 31 c 1,73,74
 619 32 619 32 627 32.5 c 128,-1,75
 635 33 635 33 645 36.5 c 128,-1,76
 655 40 655 40 657.5 44 c 128,-1,77
 660 48 660 48 662.5 59 c 128,-1,78
 665 70 665 70 664.5 81.5 c 128,-1,79
 664 93 664 93 663 116 c 2,0,-1
EndSplineSet
Substitution2: "'c2sc' Capitals to Small Capitals lookup 9 subtable" m.sc
Position2: "'cpsp' Capital Spacing lookup 0 subtable" dx=2 dy=0 dh=5 dv=0
EndChar

StartChar: N
Encoding: 78 78 47
Width: 699
GlyphClass: 2
Flags: W
AnchorPoint: "Anchor-6" 348 -110 basechar 0
AnchorPoint: "Anchor-5" 125 -4 basechar 0
AnchorPoint: "Anchor-3" 356 320 basechar 0
AnchorPoint: "Anchor-2" 346 850 basechar 0
LayerCount: 2
Fore
SplineSet
556 512 m 2,0,1
 556 547 556 547 553 565.5 c 128,-1,2
 550 584 550 584 538 594.5 c 128,-1,3
 526 605 526 605 513 608 c 128,-1,4
 500 611 500 611 469 614 c 1,5,6
 464 618 464 618 464 630 c 128,-1,7
 464 642 464 642 469 647 c 1,8,9
 557 645 557 645 580 645 c 0,10,11
 610 645 610 645 692 647 c 1,12,13
 696 642 696 642 696 630 c 128,-1,14
 696 618 696 618 692 614 c 1,15,16
 636 608 636 608 620.5 592 c 128,-1,17
 605 576 605 576 605 512 c 2,18,-1
 605 21 l 2,19,20
 605 -10 605 -10 582 -10 c 0,21,22
 560 -10 560 -10 542 14 c 2,23,-1
 193 455 l 2,24,25
 167 488 167 488 159 488 c 128,-1,26
 151 488 151 488 151 439 c 2,27,-1
 151 133 l 2,28,29
 151 98 151 98 154 79.5 c 128,-1,30
 157 61 157 61 169 50.5 c 128,-1,31
 181 40 181 40 194 37 c 128,-1,32
 207 34 207 34 238 31 c 1,33,34
 242 26 242 26 242 14 c 128,-1,35
 242 2 242 2 238 -2 c 1,36,37
 154 0 154 0 127 0 c 0,38,39
 101 0 101 0 15 -2 c 1,40,41
 10 2 10 2 10 14 c 128,-1,42
 10 26 10 26 15 31 c 1,43,44
 71 37 71 37 86.5 53 c 128,-1,45
 102 69 102 69 102 133 c 2,46,-1
 102 550 l 1,47,48
 97 572 97 572 75 592 c 128,-1,49
 53 612 53 612 23 614 c 1,50,51
 18 618 18 618 18 630 c 128,-1,52
 18 642 18 642 23 647 c 1,53,-1
 158 645 l 1,54,-1
 501 210 l 2,55,56
 544 155 544 155 549 155 c 0,57,58
 556 155 556 155 556 185 c 2,59,-1
 556 512 l 2,0,1
EndSplineSet
Substitution2: "'c2sc' Capitals to Small Capitals lookup 9 subtable" n.sc
Position2: "'cpsp' Capital Spacing lookup 0 subtable" dx=2 dy=0 dh=5 dv=0
EndChar

StartChar: O
Encoding: 79 79 48
Width: 702
GlyphClass: 2
Flags: W
AnchorPoint: "Anchor-6" 350 -110 basechar 0
AnchorPoint: "Anchor-5" 350 0 basechar 0
AnchorPoint: "Anchor-3" 346 322 basechar 0
AnchorPoint: "Anchor-2" 335 850 basechar 0
AnchorPoint: "Anchor-1" 620 606 basechar 0
LayerCount: 2
Fore
SplineSet
331 622 m 0,0,1
 249 622 249 622 191 548 c 128,-1,2
 133 474 133 474 133 327 c 0,3,4
 133 189 133 189 203 107.5 c 128,-1,5
 273 26 273 26 370 26 c 0,6,7
 458 26 458 26 514 102.5 c 128,-1,8
 570 179 570 179 570 310 c 0,9,10
 570 456 570 456 502 539 c 128,-1,11
 434 622 434 622 331 622 c 0,0,1
666 329 m 0,12,13
 666 204 666 204 604 116 c 0,14,15
 562 56 562 56 497 23 c 128,-1,16
 432 -10 432 -10 350 -10 c 0,17,18
 218 -10 218 -10 127.5 78 c 128,-1,19
 37 166 37 166 37 310 c 0,20,21
 37 460 37 460 120 559 c 128,-1,22
 203 658 203 658 344 658 c 0,23,24
 483 658 483 658 574.5 569 c 128,-1,25
 666 480 666 480 666 329 c 0,12,13
EndSplineSet
Substitution2: "'c2sc' Capitals to Small Capitals lookup 9 subtable" o.sc
Position2: "'cpsp' Capital Spacing lookup 0 subtable" dx=2 dy=0 dh=5 dv=0
EndChar

StartChar: P
Encoding: 80 80 49
Width: 541
GlyphClass: 2
Flags: W
AnchorPoint: "Anchor-6" 240 -110 basechar 0
AnchorPoint: "Anchor-5" 150 -3 basechar 0
AnchorPoint: "Anchor-3" 286 464 basechar 0
AnchorPoint: "Anchor-2" 277 850 basechar 0
AnchorPoint: "Anchor-0" 509 732 basechar 0
LayerCount: 2
Fore
SplineSet
189 554 m 2,0,-1
 189 321 l 1,1,2
 207 316 207 316 265 316 c 0,3,4
 339 316 339 316 376.5 352.5 c 128,-1,5
 414 389 414 389 414 468 c 0,6,7
 414 555 414 555 376 586.5 c 128,-1,8
 338 618 338 618 276 618 c 0,9,10
 189 618 189 618 189 554 c 2,0,-1
104 523 m 2,11,12
 104 583 104 583 88.5 597.5 c 128,-1,13
 73 612 73 612 17 614 c 1,14,15
 12 618 12 618 12 630 c 128,-1,16
 12 642 12 642 17 647 c 1,17,18
 97 645 97 645 146 645 c 0,19,20
 166 645 166 645 215 648.5 c 128,-1,21
 264 652 264 652 283 652 c 0,22,23
 348 652 348 652 395 635 c 128,-1,24
 442 618 442 618 465 590.5 c 128,-1,25
 488 563 488 563 497.5 537.5 c 128,-1,26
 507 512 507 512 507 486 c 0,27,28
 507 451 507 451 495 417.5 c 128,-1,29
 483 384 483 384 457.5 352.5 c 128,-1,30
 432 321 432 321 383.5 301.5 c 128,-1,31
 335 282 335 282 270 282 c 0,32,33
 220 282 220 282 189 292 c 1,34,-1
 189 122 l 2,35,36
 189 63 189 63 208 48.5 c 128,-1,37
 227 34 227 34 291 31 c 1,38,39
 296 26 296 26 296 14 c 128,-1,40
 296 2 296 2 291 -2 c 1,41,42
 191 0 191 0 147 0 c 0,43,44
 107 0 107 0 17 -2 c 1,45,46
 12 2 12 2 12 14 c 128,-1,47
 12 26 12 26 17 31 c 1,48,49
 73 33 73 33 88.5 47.5 c 128,-1,50
 104 62 104 62 104 122 c 2,51,-1
 104 523 l 2,11,12
EndSplineSet
Substitution2: "'c2sc' Capitals to Small Capitals lookup 9 subtable" p.sc
Position2: "'cpsp' Capital Spacing lookup 0 subtable" dx=2 dy=0 dh=5 dv=0
EndChar

StartChar: Q
Encoding: 81 81 50
Width: 702
GlyphClass: 2
Flags: W
AnchorPoint: "Anchor-3" 336 324 basechar 0
AnchorPoint: "Anchor-2" 348 850 basechar 0
AnchorPoint: "Anchor-1" 620 606 basechar 0
AnchorPoint: "Anchor-0" 619 732 basechar 0
LayerCount: 2
Fore
SplineSet
331 622 m 0,0,1
 249 622 249 622 191 548 c 128,-1,2
 133 474 133 474 133 327 c 0,3,4
 133 189 133 189 203 107.5 c 128,-1,5
 273 26 273 26 370 26 c 0,6,7
 458 26 458 26 514 102.5 c 128,-1,8
 570 179 570 179 570 310 c 0,9,10
 570 456 570 456 502 539 c 128,-1,11
 434 622 434 622 331 622 c 0,0,1
666 329 m 0,12,13
 666 204 666 204 604 116 c 0,14,15
 534 16 534 16 409 -5 c 1,16,17
 343 -24 343 -24 278 -71 c 1,18,19
 289 -70 289 -70 298 -70 c 0,20,21
 361 -70 361 -70 452 -114 c 0,22,23
 531 -152 531 -152 577 -152 c 0,24,25
 634 -152 634 -152 664 -115 c 1,26,-1
 681 -127 l 1,27,28
 651 -170 651 -170 617.5 -189.5 c 128,-1,29
 584 -209 584 -209 537 -209 c 256,30,31
 490 -209 490 -209 452 -195 c 128,-1,32
 414 -181 414 -181 369 -155 c 0,33,34
 296 -114 296 -114 251 -114 c 0,35,36
 235 -114 235 -114 216 -127 c 1,37,38
 195 -149 195 -149 178 -173 c 1,39,-1
 139 -153 l 1,40,41
 146 -141 146 -141 157 -130 c 1,42,43
 219 -55 219 -55 309 -8 c 1,44,45
 192 6 192 6 114.5 92 c 128,-1,46
 37 178 37 178 37 310 c 0,47,48
 37 460 37 460 120 559 c 128,-1,49
 203 658 203 658 344 658 c 0,50,51
 483 658 483 658 574.5 569 c 128,-1,52
 666 480 666 480 666 329 c 0,12,13
EndSplineSet
Substitution2: "'c2sc' Capitals to Small Capitals lookup 9 subtable" q.sc
Position2: "'cpsp' Capital Spacing lookup 0 subtable" dx=2 dy=0 dh=5 dv=0
EndChar

StartChar: R
Encoding: 82 82 51
Width: 587
GlyphClass: 2
Flags: W
AnchorPoint: "Anchor-6" 258 -110 basechar 0
AnchorPoint: "Anchor-5" 148 -1 basechar 0
AnchorPoint: "Anchor-3" 278 468 basechar 0
AnchorPoint: "Anchor-2" 269 850 basechar 0
AnchorPoint: "Anchor-0" 519 732 basechar 0
LayerCount: 2
Fore
SplineSet
272 618 m 0,0,1
 189 618 189 618 189 554 c 2,2,-1
 189 325 l 1,3,-1
 237 325 l 2,4,5
 318 325 318 325 361.5 358 c 128,-1,6
 405 391 405 391 405 478 c 0,7,8
 405 618 405 618 272 618 c 0,0,1
189 122 m 2,9,10
 189 62 189 62 204.5 47.5 c 128,-1,11
 220 33 220 33 276 31 c 1,12,13
 280 26 280 26 280 14 c 128,-1,14
 280 2 280 2 276 -2 c 1,15,16
 188 0 188 0 147 0 c 0,17,18
 107 0 107 0 17 -2 c 1,19,20
 12 2 12 2 12 14 c 128,-1,21
 12 26 12 26 17 31 c 1,22,23
 73 33 73 33 88.5 47.5 c 128,-1,24
 104 62 104 62 104 122 c 2,25,-1
 104 523 l 2,26,27
 104 583 104 583 88.5 597.5 c 128,-1,28
 73 612 73 612 17 614 c 1,29,30
 12 618 12 618 12 630 c 128,-1,31
 12 642 12 642 17 647 c 1,32,33
 111 645 111 645 146 645 c 0,34,35
 163 645 163 645 204.5 648.5 c 128,-1,36
 246 652 246 652 271 652 c 0,37,38
 330 652 330 652 371 643 c 128,-1,39
 412 634 412 634 444 604 c 0,40,41
 497 554 497 554 497 479 c 0,42,43
 497 410 497 410 453.5 366.5 c 128,-1,44
 410 323 410 323 364 308 c 1,45,-1
 490 98 l 2,46,47
 513 60 513 60 534 40.5 c 128,-1,48
 555 21 555 21 586 21 c 1,49,50
 593 8 593 8 587 -3 c 1,51,52
 573 -10 573 -10 545 -10 c 0,53,54
 468 -10 468 -10 413 79 c 2,55,-1
 306 253 l 2,56,57
 294 273 294 273 270.5 282 c 128,-1,58
 247 291 247 291 189 291 c 1,59,-1
 189 122 l 2,9,10
EndSplineSet
Substitution2: "'ss02' Style Set 2 lookup 22 subtable" R.alt
Substitution2: "'c2sc' Capitals to Small Capitals lookup 9 subtable" r.sc
AlternateSubs2: "'aalt' Access All Alternates lookup 0 subtable" R.alt r.sc
Position2: "'cpsp' Capital Spacing lookup 0 subtable" dx=2 dy=0 dh=5 dv=0
EndChar

StartChar: S
Encoding: 83 83 52
Width: 485
GlyphClass: 2
Flags: W
AnchorPoint: "Anchor-6" 234 -110 basechar 0
AnchorPoint: "Anchor-5" 223 2 basechar 0
AnchorPoint: "Anchor-3" 236 345 basechar 0
AnchorPoint: "Anchor-2" 231 850 basechar 0
AnchorPoint: "Anchor-0" 480 732 basechar 0
LayerCount: 2
Fore
SplineSet
395 631 m 1,0,1
 408 562 408 562 412 502 c 1,2,3
 400 493 400 493 380 496 c 1,4,5
 371 524 371 524 361.5 544 c 128,-1,6
 352 564 352 564 335.5 584 c 128,-1,7
 319 604 319 604 293 614 c 128,-1,8
 267 624 267 624 232 624 c 0,9,10
 203 624 203 624 177.5 607.5 c 128,-1,11
 152 591 152 591 137 565.5 c 128,-1,12
 122 540 122 540 122 512 c 0,13,14
 122 488 122 488 134 466.5 c 128,-1,15
 146 445 146 445 160.5 431.5 c 128,-1,16
 175 418 175 418 200.5 404 c 128,-1,17
 226 390 226 390 241 383.5 c 128,-1,18
 256 377 256 377 282 368 c 0,19,20
 316 355 316 355 342 340.5 c 128,-1,21
 368 326 368 326 393 304.5 c 128,-1,22
 418 283 418 283 431 252.5 c 128,-1,23
 444 222 444 222 444 184 c 0,24,25
 444 136 444 136 418.5 93 c 128,-1,26
 393 50 393 50 350 23 c 0,27,28
 297 -10 297 -10 227 -10 c 0,29,30
 179 -10 179 -10 127 1.5 c 128,-1,31
 75 13 75 13 47 13 c 1,32,33
 32 76 32 76 27 165 c 1,34,35
 43 173 43 173 60 168 c 1,36,37
 91 26 91 26 235 26 c 0,38,39
 295 26 295 26 327.5 57.5 c 128,-1,40
 360 89 360 89 360 149 c 0,41,42
 360 177 360 177 351 200 c 128,-1,43
 342 223 342 223 331 237 c 128,-1,44
 320 251 320 251 298.5 264 c 128,-1,45
 277 277 277 277 263.5 283 c 128,-1,46
 250 289 250 289 226 298 c 0,47,48
 188 312 188 312 160.5 327 c 128,-1,49
 133 342 133 342 106 364 c 128,-1,50
 79 386 79 386 65 416.5 c 128,-1,51
 51 447 51 447 51 485 c 0,52,53
 51 562 51 562 107 610 c 128,-1,54
 163 658 163 658 241 658 c 0,55,56
 298 658 298 658 339.5 645.5 c 128,-1,57
 381 633 381 633 395 631 c 1,0,1
EndSplineSet
Substitution2: "'c2sc' Capitals to Small Capitals lookup 9 subtable" s.sc
Position2: "'cpsp' Capital Spacing lookup 0 subtable" dx=2 dy=0 dh=5 dv=0
EndChar

StartChar: T
Encoding: 84 84 53
Width: 597
GlyphClass: 2
Flags: W
AnchorPoint: "Anchor-6" 300 -110 basechar 0
AnchorPoint: "Anchor-5" 308 10 basechar 0
AnchorPoint: "Anchor-3" 307 285 basechar 0
AnchorPoint: "Anchor-2" 307 850 basechar 0
AnchorPoint: "Anchor-0" 619 732 basechar 0
LayerCount: 2
Fore
SplineSet
350 122 m 2,0,1
 350 62 350 62 367 47.5 c 128,-1,2
 384 33 384 33 447 31 c 1,3,4
 452 26 452 26 452 14 c 128,-1,5
 452 2 452 2 447 -2 c 1,6,7
 347 0 347 0 308 0 c 0,8,9
 266 0 266 0 168 -2 c 1,10,11
 164 2 164 2 164 14 c 128,-1,12
 164 26 164 26 168 31 c 1,13,14
 231 33 231 33 248 47.5 c 128,-1,15
 265 62 265 62 265 122 c 2,16,-1
 265 507 l 2,17,18
 265 556 265 556 254.5 581 c 128,-1,19
 244 606 244 606 218 606 c 2,20,-1
 169 606 l 2,21,22
 117 606 117 606 84 582 c 128,-1,23
 51 558 51 558 37 500 c 1,24,25
 16 500 16 500 3 505 c 1,26,27
 23 591 23 591 28 650 c 0,28,29
 28 653 28 653 32 653 c 0,30,31
 133 645 133 645 265 645 c 2,32,-1
 351 645 l 2,33,34
 484 645 484 645 575 653 c 0,35,36
 578 653 578 653 578 650 c 0,37,38
 579 584 579 584 591 508 c 1,39,40
 580 503 580 503 557 503 c 1,41,42
 545 559 545 559 511 582.5 c 128,-1,43
 477 606 477 606 418 606 c 2,44,-1
 396 606 l 2,45,46
 370 606 370 606 360 580.5 c 128,-1,47
 350 555 350 555 350 504 c 2,48,-1
 350 122 l 2,0,1
EndSplineSet
Substitution2: "'c2sc' Capitals to Small Capitals lookup 9 subtable" t.sc
Position2: "'cpsp' Capital Spacing lookup 0 subtable" dx=2 dy=0 dh=5 dv=0
EndChar

StartChar: U
Encoding: 85 85 54
Width: 661
GlyphClass: 2
Flags: W
AnchorPoint: "Anchor-6" 328 -110 basechar 0
AnchorPoint: "Anchor-5" 328 4 basechar 0
AnchorPoint: "Anchor-3" 336 321 basechar 0
AnchorPoint: "Anchor-2" 346 850 basechar 0
LayerCount: 2
Fore
SplineSet
172 523 m 2,0,-1
 172 266 l 2,1,2
 172 224 172 224 174 197 c 128,-1,3
 176 170 176 170 188 135 c 128,-1,4
 200 100 200 100 223 78 c 0,5,6
 272 31 272 31 342 31 c 0,7,8
 391 31 391 31 426 46.5 c 128,-1,9
 461 62 461 62 480 84.5 c 128,-1,10
 499 107 499 107 510 142.5 c 128,-1,11
 521 178 521 178 523.5 207.5 c 128,-1,12
 526 237 526 237 526 277 c 2,13,-1
 526 523 l 2,14,15
 526 554 526 554 523 570.5 c 128,-1,16
 520 587 520 587 507.5 596.5 c 128,-1,17
 495 606 495 606 481 608.5 c 128,-1,18
 467 611 467 611 434 614 c 1,19,20
 430 618 430 618 430 630 c 128,-1,21
 430 642 430 642 434 647 c 1,22,23
 526 645 526 645 550 645 c 0,24,25
 576 645 576 645 652 647 c 1,26,27
 656 642 656 642 656 630 c 128,-1,28
 656 618 656 618 652 614 c 1,29,30
 603 608 603 608 589 594 c 128,-1,31
 575 580 575 580 575 523 c 2,32,-1
 575 295 l 2,33,34
 575 224 575 224 564 171.5 c 128,-1,35
 553 119 553 119 525.5 76.5 c 128,-1,36
 498 34 498 34 447 12 c 128,-1,37
 396 -10 396 -10 321 -10 c 0,38,39
 277 -10 277 -10 240 0 c 128,-1,40
 203 10 203 10 166.5 34.5 c 128,-1,41
 130 59 130 59 108.5 109.5 c 128,-1,42
 87 160 87 160 87 233 c 2,43,-1
 87 523 l 2,44,45
 87 582 87 582 72.5 597 c 128,-1,46
 58 612 58 612 10 614 c 1,47,48
 6 618 6 618 6 630 c 128,-1,49
 6 642 6 642 10 647 c 1,50,51
 88 645 88 645 129 645 c 128,-1,52
 170 645 170 645 264 647 c 1,53,54
 268 642 268 642 268 630 c 128,-1,55
 268 618 268 618 264 614 c 1,56,57
 204 612 204 612 188 597.5 c 128,-1,58
 172 583 172 583 172 523 c 2,0,-1
EndSplineSet
Substitution2: "'c2sc' Capitals to Small Capitals lookup 9 subtable" u.sc
Position2: "'cpsp' Capital Spacing lookup 0 subtable" dx=2 dy=0 dh=5 dv=0
EndChar

StartChar: V
Encoding: 86 86 55
Width: 652
GlyphClass: 2
Flags: W
AnchorPoint: "Anchor-6" 318 -110 basechar 0
AnchorPoint: "Anchor-5" 318 3 basechar 0
AnchorPoint: "Anchor-3" 334 474 basechar 0
AnchorPoint: "Anchor-2" 336 850 basechar 0
AnchorPoint: "Anchor-0" 679 732 basechar 0
LayerCount: 2
Fore
SplineSet
448 614 m 1,0,1
 444 618 444 618 444 630 c 128,-1,2
 444 642 444 642 448 647 c 1,3,4
 530 645 530 645 557 645 c 0,5,6
 585 645 585 645 645 647 c 1,7,8
 650 642 650 642 650 630 c 128,-1,9
 650 618 650 618 645 614 c 1,10,11
 622 611 622 611 606 604 c 128,-1,12
 590 597 590 597 579 582 c 128,-1,13
 568 567 568 567 562 555.5 c 128,-1,14
 556 544 556 544 547 521 c 2,15,-1
 340 11 l 2,16,17
 331 -12 331 -12 316 -12 c 0,18,19
 302 -12 302 -12 293 11 c 2,20,-1
 96 523 l 2,21,22
 74 578 74 578 59.5 594 c 128,-1,23
 45 610 45 610 6 614 c 1,24,25
 1 619 1 619 1 630.5 c 128,-1,26
 1 642 1 642 5 647 c 1,27,28
 71 645 71 645 109 645 c 0,29,30
 150 645 150 645 230 647 c 1,31,32
 234 642 234 642 234 630 c 128,-1,33
 234 618 234 618 230 614 c 1,34,35
 180 609 180 609 170.5 594 c 128,-1,36
 161 579 161 579 179 534 c 2,37,-1
 338 127 l 1,38,-1
 343 127 l 1,39,-1
 501 528 l 1,40,41
 520 569 520 569 510 589.5 c 128,-1,42
 500 610 500 610 448 614 c 1,0,1
EndSplineSet
Substitution2: "'c2sc' Capitals to Small Capitals lookup 9 subtable" v.sc
AlternateSubs2: "'aalt' Access All Alternates lookup 0 subtable" uniE0EA
Position2: "'lfbd' Left Bounds lookup 5 subtable" dx=-27 dy=0 dh=-27 dv=0
Position2: "'rtbd' Right Bounds lookup 4 subtable" dx=0 dy=0 dh=-31 dv=0
Position2: "'cpsp' Capital Spacing lookup 0 subtable" dx=2 dy=0 dh=5 dv=0
EndChar

StartChar: W
Encoding: 87 87 56
Width: 951
GlyphClass: 2
Flags: W
AnchorPoint: "Anchor-6" 479 -110 basechar 0
AnchorPoint: "Anchor-5" 295 0 basechar 0
AnchorPoint: "Anchor-2" 450 850 basechar 0
AnchorPoint: "Anchor-0" 979 732 basechar 0
LayerCount: 2
Fore
SplineSet
810 565 m 2,0,1
 813 574 813 574 813 581 c 128,-1,2
 813 588 813 588 811 593 c 128,-1,3
 809 598 809 598 803 601.5 c 128,-1,4
 797 605 797 605 792 607 c 128,-1,5
 787 609 787 609 777.5 610.5 c 128,-1,6
 768 612 768 612 761.5 612.5 c 128,-1,7
 755 613 755 613 744 614 c 1,8,9
 740 618 740 618 740 630 c 128,-1,10
 740 642 740 642 744 647 c 1,11,12
 824 645 824 645 854 645 c 0,13,14
 883 645 883 645 941 647 c 1,15,16
 946 642 946 642 946 630 c 128,-1,17
 946 618 946 618 941 614 c 1,18,19
 903 612 903 612 884.5 597 c 128,-1,20
 866 582 866 582 855 553 c 2,21,-1
 654 14 l 2,22,23
 645 -12 645 -12 631 -12 c 128,-1,24
 617 -12 617 -12 608 15 c 2,25,-1
 493 347 l 2,26,27
 483 375 483 375 479 375 c 0,28,29
 473 375 473 375 462 350 c 2,30,-1
 313 15 l 2,31,32
 301 -12 301 -12 287 -12 c 0,33,34
 274 -12 274 -12 265 15 c 2,35,-1
 77 556 l 2,36,37
 64 595 64 595 52.5 603.5 c 128,-1,38
 41 612 41 612 6 614 c 1,39,40
 2 618 2 618 2 630 c 128,-1,41
 2 642 2 642 6 647 c 1,42,43
 64 645 64 645 99 645 c 0,44,45
 149 645 149 645 215 647 c 1,46,47
 220 642 220 642 220 630 c 128,-1,48
 220 618 220 618 215 614 c 1,49,50
 184 612 184 612 170.5 604 c 128,-1,51
 157 596 157 596 165 572 c 2,52,-1
 311 130 l 1,53,-1
 316 129 l 1,54,-1
 445 422 l 2,55,56
 454 442 454 442 454 457 c 0,57,58
 454 466 454 466 447 488 c 2,59,-1
 424 554 l 2,60,61
 404 610 404 610 340 614 c 1,62,63
 336 618 336 618 336 630 c 128,-1,64
 336 642 336 642 340 647 c 1,65,66
 404 645 404 645 440 645 c 0,67,68
 483 645 483 645 565 647 c 1,69,70
 570 642 570 642 570 630 c 128,-1,71
 570 618 570 618 565 614 c 1,72,73
 551 613 551 613 544.5 612 c 128,-1,74
 538 611 538 611 527 607 c 128,-1,75
 516 603 516 603 514 597.5 c 128,-1,76
 512 592 512 592 508.5 581 c 128,-1,77
 505 570 505 570 513 554 c 1,78,-1
 650 132 l 1,79,-1
 654 131 l 1,80,-1
 810 565 l 2,0,1
EndSplineSet
Substitution2: "'ss05' Style Set 5 lookup 25 subtable" W.alt
Substitution2: "'c2sc' Capitals to Small Capitals lookup 9 subtable" w.sc
AlternateSubs2: "'aalt' Access All Alternates lookup 0 subtable" uniE0E9
Position2: "'lfbd' Left Bounds lookup 5 subtable" dx=-29 dy=0 dh=-29 dv=0
Position2: "'cpsp' Capital Spacing lookup 0 subtable" dx=2 dy=0 dh=5 dv=0
EndChar

StartChar: X
Encoding: 88 88 57
Width: 660
GlyphClass: 2
Flags: W
AnchorPoint: "Anchor-6" 307 -110 basechar 0
AnchorPoint: "Anchor-5" 102 0 basechar 0
AnchorPoint: "Anchor-3" 326 325 basechar 0
AnchorPoint: "Anchor-2" 332 850 basechar 0
AnchorPoint: "Anchor-0" 689 732 basechar 0
LayerCount: 2
Fore
SplineSet
538 102 m 2,0,1
 569 59 569 59 588 46 c 128,-1,2
 607 33 607 33 639 31 c 1,3,4
 644 26 644 26 644 14.5 c 128,-1,5
 644 3 644 3 640 -2 c 1,6,7
 580 0 580 0 538 0 c 0,8,9
 498 0 498 0 424 -2 c 1,10,11
 420 2 420 2 420 14 c 128,-1,12
 420 26 420 26 424 31 c 1,13,14
 464 33 464 33 467.5 44 c 128,-1,15
 471 55 471 55 448 85 c 1,16,-1
 324 261 l 2,17,18
 316 272 316 272 310 272 c 0,19,20
 305 272 305 272 295 258 c 2,21,-1
 163 73 l 1,22,23
 148 47 148 47 156.5 40 c 128,-1,24
 165 33 165 33 202 31 c 1,25,26
 206 26 206 26 206 14 c 128,-1,27
 206 2 206 2 202 -2 c 1,28,29
 122 0 122 0 97 0 c 0,30,31
 67 0 67 0 7 -2 c 1,32,33
 2 2 2 2 2 14 c 128,-1,34
 2 26 2 26 7 31 c 1,35,36
 43 34 43 34 68.5 47 c 128,-1,37
 94 60 94 60 118 93 c 2,38,-1
 266 291 l 2,39,40
 276 304 276 304 276 314 c 128,-1,41
 276 324 276 324 262 344 c 2,42,-1
 120 547 l 2,43,44
 91 589 91 589 71.5 600.5 c 128,-1,45
 52 612 52 612 18 614 c 1,46,47
 13 619 13 619 13 630.5 c 128,-1,48
 13 642 13 642 17 647 c 1,49,50
 77 645 77 645 119 645 c 0,51,52
 159 645 159 645 233 647 c 1,53,54
 238 642 238 642 238 630 c 128,-1,55
 238 618 238 618 233 614 c 1,56,57
 193 612 193 612 189.5 601 c 128,-1,58
 186 590 186 590 210 560 c 1,59,-1
 320 396 l 2,60,61
 328 385 328 385 332 385 c 0,62,63
 340 385 340 385 348 397 c 2,64,-1
 471 572 l 1,65,66
 486 597 486 597 477 604.5 c 128,-1,67
 468 612 468 612 432 614 c 1,68,69
 428 618 428 618 428 630 c 128,-1,70
 428 642 428 642 432 647 c 1,71,72
 512 645 512 645 537 645 c 0,73,74
 567 645 567 645 627 647 c 1,75,76
 632 642 632 642 632 630 c 128,-1,77
 632 618 632 618 627 614 c 1,78,79
 591 611 591 611 566 597.5 c 128,-1,80
 541 584 541 584 516 552 c 2,81,-1
 379 375 l 2,82,83
 369 362 369 362 369 345 c 0,84,85
 369 334 369 334 385 312 c 2,86,-1
 538 102 l 2,0,1
EndSplineSet
Substitution2: "'c2sc' Capitals to Small Capitals lookup 9 subtable" x.sc
Position2: "'cpsp' Capital Spacing lookup 0 subtable" dx=2 dy=0 dh=5 dv=0
EndChar

StartChar: Y
Encoding: 89 89 58
Width: 575
GlyphClass: 2
Flags: W
AnchorPoint: "Anchor-6" 295 -110 basechar 0
AnchorPoint: "Anchor-5" 293 1 basechar 0
AnchorPoint: "Anchor-2" 295 850 basechar 0
LayerCount: 2
Fore
SplineSet
337 122 m 2,0,1
 337 90 337 90 340 73 c 128,-1,2
 343 56 343 56 356 46.5 c 128,-1,3
 369 37 369 37 384.5 34.5 c 128,-1,4
 400 32 400 32 434 31 c 1,5,6
 438 26 438 26 438 14 c 128,-1,7
 438 2 438 2 434 -2 c 1,8,9
 334 0 334 0 295 0 c 0,10,11
 253 0 253 0 155 -2 c 1,12,13
 150 2 150 2 150 14 c 128,-1,14
 150 26 150 26 155 31 c 1,15,16
 189 32 189 32 204.5 34.5 c 128,-1,17
 220 37 220 37 233 46.5 c 128,-1,18
 246 56 246 56 249 73 c 128,-1,19
 252 90 252 90 252 122 c 2,20,-1
 252 249 l 2,21,22
 252 276 252 276 248 289.5 c 128,-1,23
 244 303 244 303 231 326 c 2,24,-1
 100 547 l 2,25,26
 75 588 75 588 57.5 600 c 128,-1,27
 40 612 40 612 6 614 c 1,28,29
 1 619 1 619 1 630.5 c 128,-1,30
 1 642 1 642 5 647 c 1,31,32
 65 645 65 645 107 645 c 128,-1,33
 149 645 149 645 221 647 c 1,34,35
 226 642 226 642 226 630 c 128,-1,36
 226 618 226 618 221 614 c 1,37,38
 179 612 179 612 173 601.5 c 128,-1,39
 167 591 167 591 185 559 c 2,40,-1
 301 354 l 2,41,42
 308 342 308 342 312.5 341.5 c 128,-1,43
 317 341 317 341 323 352 c 2,44,-1
 434 561 l 1,45,46
 448 591 448 591 439 601.5 c 128,-1,47
 430 612 430 612 395 614 c 1,48,49
 390 618 390 618 390 630 c 128,-1,50
 390 642 390 642 395 647 c 1,51,52
 459 645 459 645 486 645 c 128,-1,53
 513 645 513 645 569 647 c 1,54,55
 574 642 574 642 574 630 c 128,-1,56
 574 618 574 618 569 614 c 1,57,58
 533 611 533 611 513.5 598.5 c 128,-1,59
 494 586 494 586 474 550 c 2,60,-1
 354 334 l 2,61,62
 347 320 347 320 343 307.5 c 128,-1,63
 339 295 339 295 338 285 c 128,-1,64
 337 275 337 275 337 258 c 2,65,-1
 337 122 l 2,0,1
EndSplineSet
Substitution2: "'c2sc' Capitals to Small Capitals lookup 9 subtable" y.sc
Position2: "'cpsp' Capital Spacing lookup 0 subtable" dx=2 dy=0 dh=5 dv=0
EndChar

StartChar: Z
Encoding: 90 90 59
Width: 604
GlyphClass: 2
Flags: W
AnchorPoint: "Anchor-6" 287 -110 basechar 0
AnchorPoint: "Anchor-5" 287 4 basechar 0
AnchorPoint: "Anchor-3" 305 321 basechar 0
AnchorPoint: "Anchor-2" 320 850 basechar 0
AnchorPoint: "Anchor-0" 619 732 basechar 0
LayerCount: 2
Fore
SplineSet
551 -2 m 1,0,1
 451 0 451 0 424 0 c 2,2,-1
 60 0 l 2,3,4
 41 0 41 0 41 15 c 0,5,6
 41 27 41 27 49 38 c 0,7,8
 129 157 129 157 248.5 323.5 c 128,-1,9
 368 490 368 490 438 579 c 0,10,11
 446 590 446 590 446 597 c 0,12,13
 446 606 446 606 436 606 c 2,14,-1
 225 602 l 2,15,16
 170 601 170 601 138.5 575 c 128,-1,17
 107 549 107 549 91 496 c 1,18,19
 78 496 78 496 61 501 c 1,20,21
 78 590 78 590 83 653 c 1,22,23
 182 645 182 645 264 645 c 2,24,-1
 485 645 l 2,25,26
 502 645 502 645 528 646 c 128,-1,27
 554 647 554 647 558 647 c 0,28,29
 571 647 571 647 571 636 c 0,30,31
 571 622 571 622 547 591 c 0,32,33
 391 390 391 390 172 72 c 1,34,35
 164 58 164 58 164 52 c 0,36,37
 164 37 164 37 189 38 c 2,38,-1
 382 42 l 2,39,40
 421 43 421 43 448.5 52 c 128,-1,41
 476 61 476 61 494.5 81.5 c 128,-1,42
 513 102 513 102 522.5 119 c 128,-1,43
 532 136 532 136 547 170 c 1,44,45
 560 170 560 170 578 165 c 1,46,47
 558 80 558 80 551 -2 c 1,0,1
EndSplineSet
Substitution2: "'c2sc' Capitals to Small Capitals lookup 9 subtable" z.sc
Position2: "'cpsp' Capital Spacing lookup 0 subtable" dx=2 dy=0 dh=5 dv=0
EndChar

StartChar: bracketleft
Encoding: 91 91 60
Width: 356
GlyphClass: 2
Flags: W
LayerCount: 2
Fore
SplineSet
108 -193 m 1,0,-1
 108 703 l 1,1,-1
 320 703 l 1,2,3
 324 698 324 698 324 688 c 128,-1,4
 324 678 324 678 320 673 c 1,5,6
 249 668 249 668 220 657.5 c 128,-1,7
 191 647 191 647 183 628 c 128,-1,8
 175 609 175 609 175 561 c 2,9,-1
 175 -50 l 2,10,11
 175 -87 175 -87 178 -103.5 c 128,-1,12
 181 -120 181 -120 196.5 -134.5 c 128,-1,13
 212 -149 212 -149 239 -154 c 128,-1,14
 266 -159 266 -159 320 -163 c 1,15,16
 324 -168 324 -168 324 -178 c 128,-1,17
 324 -188 324 -188 320 -193 c 1,18,-1
 108 -193 l 1,0,-1
EndSplineSet
Substitution2: "'case' Case-Sensitive Forms lookup 27 subtable" bracketleft.sc
Substitution2: "'c2sc' Capitals to Small Capitals lookup 9 subtable" bracketleft.sc
AlternateSubs2: "'aalt' Access All Alternates lookup 0 subtable" bracketleft.sc
EndChar

StartChar: backslash
Encoding: 92 92 61
Width: 287
GlyphClass: 2
Flags: W
LayerCount: 2
Fore
SplineSet
55 698 m 1,0,-1
 285 -48 l 1,1,-1
 241 -48 l 1,2,-1
 11 698 l 1,3,-1
 55 698 l 1,0,-1
EndSplineSet
EndChar

StartChar: bracketright
Encoding: 93 93 62
Width: 356
GlyphClass: 2
Flags: W
LayerCount: 2
Fore
SplineSet
248 704 m 1,0,-1
 248 -192 l 1,1,-1
 36 -192 l 1,2,3
 32 -188 32 -188 32 -177 c 128,-1,4
 32 -166 32 -166 36 -162 c 1,5,6
 107 -157 107 -157 136 -146.5 c 128,-1,7
 165 -136 165 -136 173 -117 c 128,-1,8
 181 -98 181 -98 181 -50 c 2,9,-1
 181 561 l 2,10,11
 181 598 181 598 178 614.5 c 128,-1,12
 175 631 175 631 159.5 645.5 c 128,-1,13
 144 660 144 660 117 665 c 128,-1,14
 90 670 90 670 36 674 c 1,15,16
 32 678 32 678 32 689 c 128,-1,17
 32 700 32 700 36 704 c 1,18,-1
 248 704 l 1,0,-1
EndSplineSet
Substitution2: "'case' Case-Sensitive Forms lookup 27 subtable" bracketright.sc
Substitution2: "'c2sc' Capitals to Small Capitals lookup 9 subtable" bracketright.sc
AlternateSubs2: "'aalt' Access All Alternates lookup 0 subtable" bracketright.sc
EndChar

StartChar: asciicircum
Encoding: 94 94 63
Width: 518
GlyphClass: 2
Flags: W
LayerCount: 2
Fore
SplineSet
259 593 m 1,0,-1
 157 346 l 1,1,-1
 112 346 l 1,2,-1
 239 650 l 1,3,-1
 281 650 l 1,4,-1
 407 346 l 1,5,-1
 362 346 l 1,6,-1
 259 593 l 1,0,-1
EndSplineSet
EndChar

StartChar: underscore
Encoding: 95 95 64
Width: 486
GlyphClass: 2
Flags: W
LayerCount: 2
Fore
SplineSet
476 -110 m 1,0,1
 482 -116 482 -116 482 -132 c 128,-1,2
 482 -148 482 -148 476 -154 c 1,3,-1
 10 -154 l 1,4,5
 4 -148 4 -148 4 -132 c 128,-1,6
 4 -116 4 -116 10 -110 c 1,7,-1
 476 -110 l 1,0,1
EndSplineSet
EndChar

StartChar: grave
Encoding: 96 96 65
Width: 392
GlyphClass: 2
Flags: W
LayerCount: 2
Fore
SplineSet
178 699 m 1,0,-1
 248 573 l 2,1,2
 254 561 254 561 254 549 c 0,3,4
 254 545 254 545 249.5 541.5 c 128,-1,5
 245 538 245 538 239 538 c 0,6,7
 231 538 231 538 210 558 c 2,8,-1
 96 667 l 1,9,-1
 98 678 l 1,10,11
 129 701 129 701 163 701 c 0,12,13
 170 701 170 701 178 699 c 1,0,-1
EndSplineSet
Substitution2: "'case' Case-Sensitive Forms lookup 27 subtable" uni0358
EndChar

StartChar: a
Encoding: 97 97 66
Width: 457
GlyphClass: 2
Flags: W
AnchorPoint: "Anchor-6" 196 -110 basechar 0
AnchorPoint: "Anchor-5" 167 -3 basechar 0
AnchorPoint: "Anchor-4" 410 16 basechar 0
AnchorPoint: "Anchor-2" 209 645 basechar 0
LayerCount: 2
Fore
SplineSet
293 233 m 1,0,-1
 214 212 l 1,1,2
 119 188 119 188 119 102 c 0,3,4
 119 75 119 75 137.5 53 c 128,-1,5
 156 31 156 31 191 31 c 0,6,7
 225 31 225 31 279 75 c 0,8,9
 293 86 293 86 293 101 c 2,10,-1
 293 233 l 1,0,-1
293 48 m 1,11,-1
 291 48 l 1,12,-1
 271 32 l 2,13,14
 217 -10 217 -10 162 -10 c 0,15,16
 36 -10 36 -10 36 98 c 0,17,18
 36 148 36 148 81.5 186 c 128,-1,19
 127 224 127 224 201 243 c 2,20,-1
 287 264 l 2,21,22
 293 266 293 266 293 276 c 0,23,24
 293 406 293 406 212 406 c 0,25,26
 179 406 179 406 155.5 395.5 c 128,-1,27
 132 385 132 385 132 364 c 0,28,29
 132 350 132 350 134 344 c 0,30,31
 137 338 137 338 137 326 c 0,32,33
 137 315 137 315 123.5 303.5 c 128,-1,34
 110 292 110 292 90 292 c 0,35,36
 55 292 55 292 55 328 c 0,37,38
 55 370 55 370 106.5 404.5 c 128,-1,39
 158 439 158 439 220 439 c 0,40,41
 371 439 371 439 371 270 c 2,42,-1
 371 123 l 2,43,44
 371 102 371 102 371.5 90 c 128,-1,45
 372 78 372 78 375 64 c 128,-1,46
 378 50 378 50 384.5 44 c 128,-1,47
 391 38 391 38 401 38 c 0,48,49
 419 38 419 38 438 54 c 1,50,51
 452 46 452 46 455 27 c 1,52,53
 417 -10 417 -10 360 -10 c 0,54,55
 326 -10 326 -10 312 5 c 128,-1,56
 298 20 298 20 293 48 c 1,11,-1
EndSplineSet
Substitution2: "'sinf' Scientific Inferiors lookup 8 subtable" a.inferior
Substitution2: "'sups' Superscript lookup 7 subtable" a.superior
Substitution2: "'smcp' Lowercase to Small Capitals lookup 4 subtable" a.sc
AlternateSubs2: "'aalt' Access All Alternates lookup 0 subtable" a.sc
EndChar

StartChar: b
Encoding: 98 98 67
Width: 493
GlyphClass: 2
Flags: W
AnchorPoint: "Anchor-6" 234 -110 basechar 0
AnchorPoint: "Anchor-3" 236 215 basechar 0
AnchorPoint: "Anchor-0" 420 580 basechar 0
LayerCount: 2
Fore
SplineSet
174 363 m 0,0,1
 157 348 157 348 157 321 c 2,2,-1
 157 71 l 1,3,4
 195 24 195 24 229 24 c 0,5,6
 298 24 298 24 334 79.5 c 128,-1,7
 370 135 370 135 370 224 c 0,8,9
 370 296 370 296 337.5 345.5 c 128,-1,10
 305 395 305 395 259 395 c 0,11,12
 210 395 210 395 174 363 c 0,0,1
167 394 m 0,13,14
 217 439 217 439 279 439 c 0,15,16
 348 439 348 439 402 384 c 128,-1,17
 456 329 456 329 456 242 c 0,18,19
 456 130 456 130 387 60 c 128,-1,20
 318 -10 318 -10 235 -10 c 0,21,22
 176 -10 176 -10 147 15 c 0,23,24
 139 22 139 22 133 21.5 c 128,-1,25
 127 21 127 21 120 12 c 0,26,27
 113 4 113 4 96 -12 c 1,28,29
 82 -12 82 -12 74 0 c 1,30,31
 78 19 78 19 78 71 c 2,32,-1
 78 559 l 2,33,34
 78 591 78 591 76.5 607 c 128,-1,35
 75 623 75 623 64 630.5 c 128,-1,36
 53 638 53 638 47 638.5 c 128,-1,37
 41 639 41 639 14 641 c 1,38,39
 3 652 3 652 8 671 c 1,40,41
 97 678 97 678 148 698 c 1,42,43
 161 698 161 698 161 688 c 0,44,45
 157 648 157 648 157 583 c 2,46,-1
 157 399 l 2,47,48
 157 385 157 385 167 394 c 0,13,14
EndSplineSet
Substitution2: "'sinf' Scientific Inferiors lookup 8 subtable" b.inferior
Substitution2: "'sups' Superscript lookup 7 subtable" b.superior
Substitution2: "'smcp' Lowercase to Small Capitals lookup 4 subtable" b.sc
AlternateSubs2: "'aalt' Access All Alternates lookup 0 subtable" b.sc
EndChar

StartChar: c
Encoding: 99 99 68
Width: 428
GlyphClass: 2
Flags: W
AnchorPoint: "Anchor-6" 236 -110 basechar 0
AnchorPoint: "Anchor-5" 242 -2 basechar 0
AnchorPoint: "Anchor-4" 361 42 basechar 0
AnchorPoint: "Anchor-3" 236 215 basechar 0
AnchorPoint: "Anchor-2" 242 645 basechar 0
LayerCount: 2
Fore
SplineSet
398 91 m 1,0,1
 363 33 363 33 324 11.5 c 128,-1,2
 285 -10 285 -10 235 -10 c 0,3,4
 142 -10 142 -10 89.5 49.5 c 128,-1,5
 37 109 37 109 37 208 c 0,6,7
 37 309 37 309 100 374 c 128,-1,8
 163 439 163 439 242 439 c 0,9,10
 313 439 313 439 354 412.5 c 128,-1,11
 395 386 395 386 395 344 c 0,12,13
 395 323 395 323 379.5 311.5 c 128,-1,14
 364 300 364 300 346 300 c 0,15,16
 312 300 312 300 308 336 c 0,17,18
 306 358 306 358 301.5 370.5 c 128,-1,19
 297 383 297 383 281 394.5 c 128,-1,20
 265 406 265 406 237 406 c 0,21,22
 187 406 187 406 155 358.5 c 128,-1,23
 123 311 123 311 123 230 c 0,24,25
 123 144 123 144 162 91.5 c 128,-1,26
 201 39 201 39 257 39 c 0,27,28
 326 39 326 39 377 105 c 1,29,30
 393 103 393 103 398 91 c 1,0,1
EndSplineSet
Substitution2: "'sinf' Scientific Inferiors lookup 8 subtable" c.inferior
Substitution2: "'sups' Superscript lookup 7 subtable" c.superior
Substitution2: "'smcp' Lowercase to Small Capitals lookup 4 subtable" c.sc
AlternateSubs2: "'aalt' Access All Alternates lookup 0 subtable" c.sc
EndChar

StartChar: d
Encoding: 100 100 69
Width: 506
GlyphClass: 2
Flags: W
AnchorPoint: "Anchor-6" 221 -110 basechar 0
AnchorPoint: "Anchor-4" 312 20 basechar 0
AnchorPoint: "Anchor-3" 236 215 basechar 0
AnchorPoint: "Anchor-2" 218 645 basechar 0
AnchorPoint: "Anchor-1" 500 466 basechar 0
AnchorPoint: "Anchor-0" 490 580 basechar 0
LayerCount: 2
Fore
SplineSet
345 124 m 2,0,-1
 345 314 l 2,1,2
 345 337 345 337 342 346.5 c 128,-1,3
 339 356 339 356 328 368 c 0,4,5
 297 404 297 404 247 404 c 0,6,7
 187 404 187 404 154 354 c 1,8,9
 125 313 125 313 125 221 c 0,10,11
 125 133 125 133 158 85 c 128,-1,12
 191 37 191 37 235 37 c 0,13,14
 274 37 274 37 329 85 c 0,15,16
 345 99 345 99 345 124 c 2,0,-1
334 50 m 0,17,18
 261 -10 261 -10 209 -10 c 0,19,20
 130 -10 130 -10 84.5 49 c 128,-1,21
 39 108 39 108 39 203 c 0,22,23
 39 310 39 310 108 379 c 1,24,25
 171 439 171 439 258 439 c 0,26,27
 273 439 273 439 291 434.5 c 128,-1,28
 309 430 309 430 322 426 c 128,-1,29
 335 422 335 422 336 422 c 0,30,31
 345 422 345 422 345 431 c 2,32,-1
 345 559 l 2,33,34
 345 591 345 591 343.5 607 c 128,-1,35
 342 623 342 623 331 630.5 c 128,-1,36
 320 638 320 638 314 638.5 c 128,-1,37
 308 639 308 639 281 641 c 1,38,39
 270 652 270 652 275 671 c 1,40,41
 364 678 364 678 415 698 c 1,42,43
 428 698 428 698 428 688 c 0,44,45
 424 648 424 648 424 583 c 2,46,-1
 424 130 l 2,47,48
 424 91 424 91 437.5 76 c 128,-1,49
 451 61 451 61 497 57 c 1,50,51
 502 52 502 52 502 43 c 128,-1,52
 502 34 502 34 497 30 c 1,53,54
 417 21 417 21 379 -10 c 1,55,56
 370 -14 370 -14 360 -10 c 1,57,58
 351 25 351 25 349 49 c 0,59,60
 348 54 348 54 343 54 c 128,-1,61
 338 54 338 54 334 50 c 0,17,18
EndSplineSet
Substitution2: "'sinf' Scientific Inferiors lookup 8 subtable" d.inferior
Substitution2: "'sups' Superscript lookup 7 subtable" d.superior
Substitution2: "'smcp' Lowercase to Small Capitals lookup 4 subtable" d.sc
AlternateSubs2: "'aalt' Access All Alternates lookup 0 subtable" d.sc
EndChar

StartChar: e
Encoding: 101 101 70
Width: 447
GlyphClass: 2
Flags: W
AnchorPoint: "Anchor-6" 234 -110 basechar 0
AnchorPoint: "Anchor-5" 241 -3 basechar 0
AnchorPoint: "Anchor-4" 384 41 basechar 0
AnchorPoint: "Anchor-3" 236 215 basechar 0
AnchorPoint: "Anchor-2" 242 645 basechar 0
AnchorPoint: "Anchor-1" 420 396 basechar 0
LayerCount: 2
Fore
SplineSet
124 282 m 1,0,-1
 305 285 l 2,1,2
 320 285 320 285 320 299 c 0,3,4
 320 356 320 356 295.5 380 c 128,-1,5
 271 404 271 404 237 404 c 0,6,7
 224 404 224 404 211 400.5 c 128,-1,8
 198 397 198 397 179.5 386 c 128,-1,9
 161 375 161 375 146 348 c 128,-1,10
 131 321 131 321 124 282 c 1,0,-1
386 93 m 1,11,12
 403 92 403 92 407 77 c 1,13,14
 340 -10 340 -10 237 -10 c 0,15,16
 138 -10 138 -10 84 54 c 1,17,18
 37 108 37 108 37 202 c 0,19,20
 37 308 37 308 100.5 372.5 c 128,-1,21
 164 437 164 437 237 437 c 0,22,23
 406 437 406 437 406 263 c 0,24,25
 406 246 406 246 387 246 c 2,26,-1
 121 248 l 1,27,28
 121 164 121 164 153 111 c 0,29,30
 197 39 197 39 262 39 c 0,31,32
 304 39 304 39 330.5 51 c 128,-1,33
 357 63 357 63 386 93 c 1,11,12
EndSplineSet
Substitution2: "'sinf' Scientific Inferiors lookup 8 subtable" e.inferior
Substitution2: "'sups' Superscript lookup 7 subtable" e.superior
Substitution2: "'smcp' Lowercase to Small Capitals lookup 4 subtable" e.sc
AlternateSubs2: "'aalt' Access All Alternates lookup 0 subtable" e.sc
EndChar

StartChar: f
Encoding: 102 102 71
Width: 310
GlyphClass: 2
Flags: W
AnchorPoint: "Anchor-6" 132 -110 basechar 0
AnchorPoint: "Anchor-3" 136 215 basechar 0
AnchorPoint: "Anchor-0" 410 750 basechar 0
LayerCount: 2
Fore
SplineSet
175 122 m 2,0,1
 175 60 175 60 187.5 47 c 128,-1,2
 200 34 200 34 259 31 c 1,3,4
 264 26 264 26 264 14 c 128,-1,5
 264 2 264 2 259 -2 c 1,6,7
 189 0 189 0 136 0 c 0,8,9
 96 0 96 0 26 -2 c 1,10,11
 22 2 22 2 22 14 c 128,-1,12
 22 26 22 26 26 31 c 1,13,14
 70 34 70 34 83 48.5 c 128,-1,15
 96 63 96 63 96 122 c 2,16,-1
 96 390 l 1,17,-1
 27 390 l 2,18,19
 22 390 22 390 22 396 c 2,20,-1
 22 409 l 2,21,22
 22 429 22 429 45 429 c 2,23,-1
 96 429 l 1,24,-1
 96 469 l 2,25,26
 96 578 96 578 149.5 638 c 128,-1,27
 203 698 203 698 273 698 c 0,28,29
 333 698 333 698 363 677 c 1,30,31
 395 653 395 653 395 626 c 0,32,33
 395 611 395 611 381 598 c 128,-1,34
 367 585 367 585 354 585 c 0,35,36
 328 585 328 585 314 617 c 1,37,38
 304 643 304 643 290.5 653.5 c 128,-1,39
 277 664 277 664 254 664 c 0,40,41
 175 664 175 664 175 486 c 2,42,-1
 175 429 l 1,43,-1
 283 429 l 2,44,45
 291 429 291 429 291 423 c 2,46,-1
 291 403 l 2,47,48
 291 390 291 390 268 390 c 2,49,-1
 175 390 l 1,50,-1
 175 122 l 2,0,1
EndSplineSet
Substitution2: "Single Substitution lookup 31 subtable" f.short
Substitution2: "'sinf' Scientific Inferiors lookup 8 subtable" f.inferior
Substitution2: "'sups' Superscript lookup 7 subtable" f.superior
Substitution2: "'smcp' Lowercase to Small Capitals lookup 4 subtable" f.sc
AlternateSubs2: "'aalt' Access All Alternates lookup 0 subtable" f.sc
EndChar

StartChar: g
Encoding: 103 103 72
Width: 500
GlyphClass: 2
Flags: W
AnchorPoint: "Anchor-6" 229 -319 basechar 0
AnchorPoint: "Anchor-3" 227 285 basechar 0
AnchorPoint: "Anchor-2" 231 645 basechar 0
AnchorPoint: "Anchor-0" 492 580 basechar 0
LayerCount: 2
Fore
SplineSet
319 279 m 0,0,1
 319 341 319 341 294 374.5 c 128,-1,2
 269 408 269 408 222 408 c 0,3,4
 142 408 142 408 142 302 c 0,5,6
 142 274 142 274 145 253.5 c 128,-1,7
 148 233 148 233 157 211.5 c 128,-1,8
 166 190 166 190 185.5 178.5 c 128,-1,9
 205 167 205 167 235 167 c 0,10,11
 319 167 319 167 319 279 c 0,0,1
132 -10 m 1,12,13
 101 -47 101 -47 101 -104 c 0,14,15
 101 -149 101 -149 143 -175 c 128,-1,16
 185 -201 185 -201 221 -201 c 0,17,18
 268 -201 268 -201 312 -189 c 128,-1,19
 356 -177 356 -177 386.5 -151 c 128,-1,20
 417 -125 417 -125 417 -91 c 0,21,22
 417 -72 417 -72 406 -59 c 128,-1,23
 395 -46 395 -46 366 -29 c 0,24,25
 335 -12 335 -12 245 -12 c 0,26,27
 240 -12 240 -12 215 -13.5 c 128,-1,28
 190 -15 190 -15 172 -15 c 0,29,30
 150 -15 150 -15 132 -10 c 1,12,13
444 387 m 0,31,32
 425 387 425 387 416 405 c 1,33,34
 408 417 408 417 396 417 c 0,35,36
 387 417 387 417 374.5 409 c 128,-1,37
 362 401 362 401 356 393 c 1,38,39
 399 349 399 349 399 289 c 0,40,41
 399 219 399 219 349.5 177.5 c 128,-1,42
 300 136 300 136 230 136 c 0,43,44
 175 136 175 136 139 157 c 1,45,46
 121 132 121 132 121 99 c 0,47,48
 121 70 121 70 140 56 c 128,-1,49
 159 42 159 42 185 42 c 1,50,-1
 215 44 l 1,51,52
 255 49 255 49 282 49 c 0,53,54
 388 49 388 49 428 16 c 0,55,56
 472 -20 472 -20 472 -65 c 0,57,58
 472 -117 472 -117 429.5 -157.5 c 128,-1,59
 387 -198 387 -198 323.5 -218 c 128,-1,60
 260 -238 260 -238 191 -238 c 0,61,62
 124 -238 124 -238 78 -211 c 128,-1,63
 32 -184 32 -184 32 -124 c 0,64,65
 32 -52 32 -52 114 -3 c 1,66,67
 68 20 68 20 68 74 c 0,68,69
 68 101 68 101 80 129.5 c 128,-1,70
 92 158 92 158 112 175 c 1,71,72
 60 225 60 225 60 287 c 0,73,74
 60 354 60 354 111 396.5 c 128,-1,75
 162 439 162 439 231 439 c 0,76,77
 293 439 293 439 335 411 c 1,78,79
 353 435 353 435 383 448.5 c 128,-1,80
 413 462 413 462 435 462 c 0,81,82
 455 462 455 462 468 451.5 c 128,-1,83
 481 441 481 441 481 425 c 0,84,85
 481 410 481 410 469.5 398.5 c 128,-1,86
 458 387 458 387 444 387 c 0,31,32
EndSplineSet
Substitution2: "'sinf' Scientific Inferiors lookup 8 subtable" g.inferior
Substitution2: "'sups' Superscript lookup 7 subtable" g.superior
Substitution2: "'smcp' Lowercase to Small Capitals lookup 4 subtable" g.sc
AlternateSubs2: "'aalt' Access All Alternates lookup 0 subtable" g.sc
EndChar

StartChar: h
Encoding: 104 104 73
Width: 538
GlyphClass: 2
Flags: W
AnchorPoint: "Anchor-6" 259 -110 basechar 0
AnchorPoint: "Anchor-4" 423 10 basechar 0
AnchorPoint: "Anchor-3" 264 215 basechar 0
AnchorPoint: "Anchor-2" 299 645 basechar 0
AnchorPoint: "Anchor-0" 429 580 basechar 0
LayerCount: 2
Fore
SplineSet
167 286 m 2,0,-1
 167 122 l 2,1,2
 167 79 167 79 172 61.5 c 128,-1,3
 177 44 177 44 187.5 38.5 c 128,-1,4
 198 33 198 33 227 31 c 1,5,6
 231 26 231 26 231 14 c 128,-1,7
 231 2 231 2 227 -2 c 1,8,9
 171 0 171 0 128 0 c 0,10,11
 84 0 84 0 18 -2 c 1,12,13
 14 2 14 2 14 14 c 128,-1,14
 14 26 14 26 18 31 c 1,15,16
 43 33 43 33 54 35 c 128,-1,17
 65 37 65 37 74.5 47 c 128,-1,18
 84 57 84 57 86 73.5 c 128,-1,19
 88 90 88 90 88 122 c 2,20,-1
 88 559 l 2,21,22
 88 589 88 589 86 604.5 c 128,-1,23
 84 620 84 620 76.5 628 c 128,-1,24
 69 636 69 636 61 637.5 c 128,-1,25
 53 639 53 639 33 641 c 0,26,27
 27 641 27 641 24 641 c 1,28,29
 21 644 21 644 19.5 649.5 c 128,-1,30
 18 655 18 655 17.5 661 c 128,-1,31
 17 667 17 667 18 671 c 1,32,33
 49 673 49 673 94.5 682 c 128,-1,34
 140 691 140 691 158 698 c 1,35,36
 171 698 171 698 171 688 c 0,37,38
 167 648 167 648 167 583 c 2,39,-1
 166 358 l 2,40,41
 166 346 166 346 174 356 c 0,42,43
 176 357 176 357 176 358 c 0,44,45
 249 439 249 439 346 439 c 0,46,47
 403 439 403 439 429 405 c 0,48,49
 456 370 456 370 456 271 c 2,50,-1
 456 122 l 2,51,52
 456 63 456 63 467.5 49 c 128,-1,53
 479 35 479 35 523 31 c 1,54,55
 527 27 527 27 527 15 c 128,-1,56
 527 3 527 3 523 -2 c 1,57,58
 457 0 457 0 417 0 c 0,59,60
 371 0 371 0 315 -2 c 1,61,62
 311 2 311 2 311 14 c 128,-1,63
 311 26 311 26 315 31 c 1,64,65
 356 35 356 35 366.5 49 c 128,-1,66
 377 63 377 63 377 122 c 2,67,-1
 377 274 l 2,68,69
 377 327 377 327 365 351 c 0,70,71
 347 387 347 387 312 387 c 0,72,73
 244 387 244 387 184 328 c 0,74,75
 167 310 167 310 167 286 c 2,0,-1
EndSplineSet
Substitution2: "'salt' Stylistic Alternatives lookup 19 subtable" h.alt
Substitution2: "'sinf' Scientific Inferiors lookup 8 subtable" h.inferior
Substitution2: "'sups' Superscript lookup 7 subtable" h.superior
Substitution2: "'smcp' Lowercase to Small Capitals lookup 4 subtable" h.sc
AlternateSubs2: "'aalt' Access All Alternates lookup 0 subtable" h.sc h.alt
EndChar

StartChar: i
Encoding: 105 105 74
Width: 271
GlyphClass: 2
Flags: W
AnchorPoint: "Anchor-6" 136 -110 basechar 0
AnchorPoint: "Anchor-5" 137 12 basechar 0
AnchorPoint: "Anchor-4" 209 10 basechar 0
AnchorPoint: "Anchor-3" 142 215 basechar 0
AnchorPoint: "Anchor-2" 137 795 basechar 0
LayerCount: 2
Fore
SplineSet
90 599 m 0,0,1
 90 617 90 617 107 632 c 128,-1,2
 124 647 124 647 142 647 c 0,3,4
 161 647 161 647 175.5 630.5 c 128,-1,5
 190 614 190 614 190 595 c 0,6,7
 190 578 190 578 174 562.5 c 128,-1,8
 158 547 158 547 138 547 c 0,9,10
 120 547 120 547 105 563.5 c 128,-1,11
 90 580 90 580 90 599 c 0,0,1
181 122 m 2,12,13
 181 62 181 62 193 48 c 128,-1,14
 205 34 205 34 253 31 c 1,15,16
 258 26 258 26 258 14 c 128,-1,17
 258 2 258 2 253 -2 c 1,18,19
 187 0 187 0 142 0 c 0,20,21
 96 0 96 0 30 -2 c 1,22,23
 26 2 26 2 26 14 c 128,-1,24
 26 26 26 26 30 31 c 1,25,26
 78 35 78 35 90 48.5 c 128,-1,27
 102 62 102 62 102 122 c 2,28,-1
 102 317 l 2,29,30
 102 359 102 359 90.5 370 c 128,-1,31
 79 381 79 381 37 385 c 1,32,33
 31 402 31 402 35 413 c 1,34,35
 128 425 128 425 172 442 c 1,36,37
 185 442 185 442 185 435 c 0,38,39
 181 371 181 371 181 321 c 2,40,-1
 181 122 l 2,12,13
EndSplineSet
Substitution2: "Single Substitution lookup 29 subtable" dotlessi
Substitution2: "'sinf' Scientific Inferiors lookup 8 subtable" i.inferior
Substitution2: "'sups' Superscript lookup 7 subtable" i.superior
Substitution2: "'smcp' Lowercase to Small Capitals in Latin lookup 5 subtable" idotaccent.sc
Substitution2: "'smcp' Lowercase to Small Capitals lookup 3 subtable" i.sc
AlternateSubs2: "'aalt' Access All Alternates lookup 0 subtable" i.sc
EndChar

StartChar: j
Encoding: 106 106 75
Width: 272
GlyphClass: 2
Flags: W
AnchorPoint: "Anchor-6" 109 -319 basechar 0
AnchorPoint: "Anchor-3" 154 215 basechar 0
LayerCount: 2
Fore
SplineSet
99 599 m 0,0,1
 99 617 99 617 116 632 c 128,-1,2
 133 647 133 647 151 647 c 0,3,4
 170 647 170 647 184.5 630.5 c 128,-1,5
 199 614 199 614 199 595 c 0,6,7
 199 578 199 578 183 562.5 c 128,-1,8
 167 547 167 547 147 547 c 0,9,10
 129 547 129 547 114 563.5 c 128,-1,11
 99 580 99 580 99 599 c 0,0,1
113 317 m 2,12,13
 113 359 113 359 101.5 370 c 128,-1,14
 90 381 90 381 48 385 c 1,15,16
 42 402 42 402 46 413 c 1,17,18
 141 425 141 425 183 442 c 1,19,20
 196 442 196 442 196 435 c 0,21,22
 192 371 192 371 192 321 c 2,23,-1
 192 110 l 2,24,25
 192 -25 192 -25 173.5 -91.5 c 128,-1,26
 155 -158 155 -158 117 -189 c 0,27,28
 76 -223 76 -223 7 -223 c 0,29,30
 -11 -223 -11 -223 -29.5 -211.5 c 128,-1,31
 -48 -200 -48 -200 -48 -180 c 0,32,33
 -48 -167 -48 -167 -36.5 -154.5 c 128,-1,34
 -25 -142 -25 -142 -16 -142 c 0,35,36
 -11 -142 -11 -142 -6 -143.5 c 128,-1,37
 -1 -145 -1 -145 2.5 -146.5 c 128,-1,38
 6 -148 6 -148 10.5 -151.5 c 128,-1,39
 15 -155 15 -155 17 -156.5 c 128,-1,40
 19 -158 19 -158 23 -162.5 c 128,-1,41
 27 -167 27 -167 28 -168 c 0,42,43
 39 -179 39 -179 59 -179 c 0,44,45
 93 -179 93 -179 103 -113 c 128,-1,46
 113 -47 113 -47 113 76 c 2,47,-1
 113 317 l 2,12,13
EndSplineSet
Substitution2: "Single Substitution lookup 29 subtable" dotlessj
Substitution2: "'sinf' Scientific Inferiors lookup 8 subtable" j.inferior
Substitution2: "'sups' Superscript lookup 7 subtable" j.superior
Substitution2: "'smcp' Lowercase to Small Capitals lookup 4 subtable" j.sc
AlternateSubs2: "'aalt' Access All Alternates lookup 0 subtable" j.sc idotaccent.sc
EndChar

StartChar: k
Encoding: 107 107 76
Width: 512
GlyphClass: 2
Flags: W
AnchorPoint: "Anchor-6" 290 -214 basechar 0
AnchorPoint: "Anchor-5" 107 -57 basechar 0
AnchorPoint: "Anchor-2" 305 783 basechar 0
AnchorPoint: "Anchor-0" 535 696 basechar 0
LayerCount: 2
Fore
SplineSet
86 122 m 2,0,-1
 86 559 l 2,1,2
 86 589 86 589 84 604.5 c 128,-1,3
 82 620 82 620 74.5 628 c 128,-1,4
 67 636 67 636 59 637.5 c 128,-1,5
 51 639 51 639 31 641 c 0,6,7
 25 641 25 641 22 641 c 1,8,9
 19 644 19 644 17.5 649.5 c 128,-1,10
 16 655 16 655 15.5 661 c 128,-1,11
 15 667 15 667 16 671 c 1,12,13
 47 673 47 673 92.5 682 c 128,-1,14
 138 691 138 691 156 698 c 1,15,16
 169 698 169 698 169 688 c 0,17,18
 165 648 165 648 165 583 c 2,19,-1
 165 234 l 1,20,21
 197 239 197 239 233 265 c 0,22,23
 269 292 269 292 313 347 c 0,24,25
 318 353 318 353 321 359.5 c 128,-1,26
 324 366 324 366 326 375 c 128,-1,27
 328 384 328 384 319 390.5 c 128,-1,28
 310 397 310 397 290 398 c 1,29,30
 286 402 286 402 286 414 c 128,-1,31
 286 426 286 426 290 431 c 1,32,33
 336 429 336 429 388 429 c 0,34,35
 429 429 429 429 475 431 c 1,36,37
 480 426 480 426 480 414 c 128,-1,38
 480 402 480 402 475 398 c 1,39,40
 405 391 405 391 370 354 c 2,41,-1
 282 263 l 2,42,43
 278 259 278 259 278 253 c 0,44,45
 278 248 278 248 285 239 c 2,46,-1
 417 73 l 2,47,48
 435 50 435 50 453.5 42.5 c 128,-1,49
 472 35 472 35 503 31 c 1,50,51
 508 26 508 26 508 14 c 128,-1,52
 508 2 508 2 503 -2 c 1,53,54
 463 0 463 0 421 0 c 0,55,56
 399 0 399 0 359 -2 c 0,57,58
 355 -2 355 -2 355 3 c 0,59,60
 353 19 353 19 313 73 c 2,61,-1
 240 171 l 2,62,63
 224 193 224 193 208 204 c 1,64,65
 195 208 195 208 165 209 c 1,66,-1
 165 122 l 2,67,68
 165 63 165 63 174.5 48.5 c 128,-1,69
 184 34 184 34 217 31 c 1,70,71
 222 26 222 26 222 14 c 128,-1,72
 222 2 222 2 217 -2 c 1,73,74
 171 0 171 0 126 0 c 0,75,76
 85 0 85 0 19 -2 c 1,77,78
 14 2 14 2 14 14 c 128,-1,79
 14 26 14 26 19 31 c 1,80,81
 63 34 63 34 74.5 48 c 128,-1,82
 86 62 86 62 86 122 c 2,0,-1
EndSplineSet
Substitution2: "'sinf' Scientific Inferiors lookup 8 subtable" k.inferior
Substitution2: "'sups' Superscript lookup 7 subtable" k.superior
Substitution2: "'smcp' Lowercase to Small Capitals lookup 4 subtable" k.sc
AlternateSubs2: "'aalt' Access All Alternates lookup 0 subtable" k.sc
EndChar

StartChar: l
Encoding: 108 108 77
Width: 264
GlyphClass: 2
Flags: W
AnchorPoint: "Anchor-6" 135 -110 basechar 0
AnchorPoint: "Anchor-5" 135 10 basechar 0
AnchorPoint: "Anchor-3" 136 215 basechar 0
AnchorPoint: "Anchor-2" 135 885 basechar 0
AnchorPoint: "Anchor-0" 249 733 basechar 0
LayerCount: 2
Fore
SplineSet
95 122 m 2,0,-1
 95 559 l 2,1,2
 95 614 95 614 85 626 c 128,-1,3
 75 638 75 638 31 641 c 1,4,5
 20 652 20 652 25 671 c 1,6,7
 114 678 114 678 165 698 c 1,8,9
 178 698 178 698 178 688 c 0,10,11
 174 648 174 648 174 583 c 2,12,-1
 174 122 l 2,13,14
 174 62 174 62 186.5 47.5 c 128,-1,15
 199 33 199 33 246 31 c 1,16,17
 250 26 250 26 250 14 c 128,-1,18
 250 2 250 2 246 -2 c 1,19,20
 180 0 180 0 135 0 c 0,21,22
 93 0 93 0 23 -2 c 1,23,24
 18 2 18 2 18 14 c 128,-1,25
 18 26 18 26 23 31 c 1,26,27
 70 33 70 33 82.5 47.5 c 128,-1,28
 95 62 95 62 95 122 c 2,0,-1
EndSplineSet
Substitution2: "'sinf' Scientific Inferiors lookup 8 subtable" l.inferior
Substitution2: "'sups' Superscript lookup 7 subtable" l.superior
Substitution2: "'smcp' Lowercase to Small Capitals lookup 4 subtable" l.sc
AlternateSubs2: "'aalt' Access All Alternates lookup 0 subtable" l.sc
EndChar

StartChar: m
Encoding: 109 109 78
Width: 790
GlyphClass: 2
Flags: W
AnchorPoint: "Anchor-6" 408 -110 basechar 0
AnchorPoint: "Anchor-5" 137 9 basechar 0
AnchorPoint: "Anchor-3" 278 215 basechar 0
AnchorPoint: "Anchor-2" 392 645 basechar 0
LayerCount: 2
Fore
SplineSet
170 358 m 0,0,1
 171 345 171 345 182 358 c 0,2,3
 254 439 254 439 334 439 c 0,4,5
 372 439 372 439 399.5 418 c 128,-1,6
 427 397 427 397 434 366 c 0,7,8
 436 356 436 356 445 365 c 0,9,10
 515 439 515 439 610 439 c 0,11,12
 671 439 671 439 692 398 c 128,-1,13
 713 357 713 357 713 280 c 2,14,-1
 713 122 l 2,15,16
 713 62 713 62 723.5 48 c 128,-1,17
 734 34 734 34 777 31 c 1,18,19
 781 27 781 27 781 15 c 128,-1,20
 781 3 781 3 777 -2 c 1,21,22
 721 0 721 0 674 0 c 0,23,24
 622 0 622 0 572 -2 c 1,25,26
 568 3 568 3 568 15 c 128,-1,27
 568 27 568 27 572 31 c 1,28,29
 613 34 613 34 623.5 48.5 c 128,-1,30
 634 63 634 63 634 122 c 2,31,-1
 634 298 l 2,32,33
 634 346 634 346 619 366.5 c 128,-1,34
 604 387 604 387 574 387 c 0,35,36
 502 387 502 387 442 321 c 1,37,38
 443 309 443 309 443 281 c 2,39,-1
 443 122 l 2,40,41
 443 62 443 62 453 48 c 128,-1,42
 463 34 463 34 502 31 c 1,43,44
 506 27 506 27 506 14.5 c 128,-1,45
 506 2 506 2 502 -2 c 1,46,47
 452 0 452 0 404 0 c 0,48,49
 352 0 352 0 302 -2 c 1,50,51
 298 2 298 2 298 14 c 128,-1,52
 298 26 298 26 302 31 c 1,53,54
 344 34 344 34 354 48 c 128,-1,55
 364 62 364 62 364 122 c 2,56,-1
 364 296 l 2,57,58
 364 387 364 387 298 387 c 0,59,60
 250 387 250 387 190 328 c 0,61,62
 173 310 173 310 173 286 c 2,63,-1
 173 122 l 2,64,65
 173 80 173 80 178.5 62.5 c 128,-1,66
 184 45 184 45 195 39.5 c 128,-1,67
 206 34 206 34 235 31 c 1,68,69
 239 26 239 26 239 14 c 128,-1,70
 239 2 239 2 235 -2 c 1,71,72
 175 0 175 0 134 0 c 0,73,74
 86 0 86 0 26 -2 c 1,75,76
 22 2 22 2 22 14 c 128,-1,77
 22 26 22 26 26 31 c 1,78,79
 70 34 70 34 82 48.5 c 128,-1,80
 94 63 94 63 94 122 c 2,81,-1
 94 317 l 2,82,83
 94 359 94 359 82.5 370 c 128,-1,84
 71 381 71 381 29 385 c 1,85,86
 23 402 23 402 27 413 c 1,87,88
 101 423 101 423 150 442 c 1,89,90
 158 442 158 442 162 434 c 0,91,92
 167 423 167 423 170 358 c 0,0,1
EndSplineSet
Substitution2: "'sinf' Scientific Inferiors lookup 8 subtable" m.inferior
Substitution2: "'sups' Superscript lookup 7 subtable" m.superior
Substitution2: "'smcp' Lowercase to Small Capitals lookup 4 subtable" m.sc
AlternateSubs2: "'aalt' Access All Alternates lookup 0 subtable" m.sc
EndChar

StartChar: n
Encoding: 110 110 79
Width: 542
GlyphClass: 2
Flags: W
AnchorPoint: "Anchor-6" 265 -110 basechar 0
AnchorPoint: "Anchor-5" 136 9 basechar 0
AnchorPoint: "Anchor-3" 264 215 basechar 0
AnchorPoint: "Anchor-2" 264 646 basechar 0
LayerCount: 2
Fore
SplineSet
184 358 m 0,0,1
 255 439 255 439 348 439 c 0,2,3
 405 439 405 439 431 405 c 0,4,5
 458 369 458 369 458 271 c 2,6,-1
 458 122 l 2,7,8
 458 90 458 90 460 73.5 c 128,-1,9
 462 57 462 57 471 47.5 c 128,-1,10
 480 38 480 38 490.5 35.5 c 128,-1,11
 501 33 501 33 525 31 c 1,12,13
 529 27 529 27 529 15 c 128,-1,14
 529 3 529 3 525 -2 c 1,15,16
 465 0 465 0 419 0 c 0,17,18
 377 0 377 0 317 -2 c 1,19,20
 313 2 313 2 313 14 c 128,-1,21
 313 26 313 26 317 31 c 1,22,23
 346 34 346 34 357 39.5 c 128,-1,24
 368 45 368 45 373.5 62.5 c 128,-1,25
 379 80 379 80 379 122 c 2,26,-1
 379 274 l 2,27,28
 379 327 379 327 367 351 c 0,29,30
 348 387 348 387 314 387 c 0,31,32
 253 387 253 387 192 328 c 1,33,34
 175 309 175 309 175 286 c 2,35,-1
 175 122 l 2,36,37
 175 80 175 80 180.5 62.5 c 128,-1,38
 186 45 186 45 196.5 39.5 c 128,-1,39
 207 34 207 34 236 31 c 1,40,41
 241 26 241 26 241 14 c 128,-1,42
 241 2 241 2 236 -2 c 1,43,44
 176 0 176 0 136 0 c 0,45,46
 86 0 86 0 26 -2 c 1,47,48
 22 2 22 2 22 14 c 128,-1,49
 22 26 22 26 26 31 c 1,50,51
 52 33 52 33 63 35.5 c 128,-1,52
 74 38 74 38 83 48 c 128,-1,53
 92 58 92 58 94 74 c 128,-1,54
 96 90 96 90 96 122 c 2,55,-1
 96 317 l 2,56,57
 96 359 96 359 84.5 370 c 128,-1,58
 73 381 73 381 31 385 c 1,59,60
 25 402 25 402 29 413 c 1,61,62
 103 423 103 423 152 442 c 1,63,64
 160 442 160 442 164 434 c 0,65,66
 170 422 170 422 172 358 c 0,67,68
 172 345 172 345 184 358 c 0,0,1
EndSplineSet
Substitution2: "'sinf' Scientific Inferiors lookup 8 subtable" n.inferior
Substitution2: "'sups' Superscript lookup 7 subtable" n.superior
Substitution2: "'smcp' Lowercase to Small Capitals lookup 4 subtable" n.sc
AlternateSubs2: "'aalt' Access All Alternates lookup 0 subtable" n.sc
EndChar

StartChar: o
Encoding: 111 111 80
Width: 504
GlyphClass: 2
Flags: W
AnchorPoint: "Anchor-6" 243 -110 basechar 0
AnchorPoint: "Anchor-5" 241 -3 basechar 0
AnchorPoint: "Anchor-4" 372 44 basechar 0
AnchorPoint: "Anchor-3" 236 215 basechar 0
AnchorPoint: "Anchor-2" 238 645 basechar 0
AnchorPoint: "Anchor-1" 420 396 basechar 0
LayerCount: 2
Fore
SplineSet
41 205 m 0,0,1
 41 304 41 304 96 369 c 0,2,3
 156 439 156 439 253 439 c 0,4,5
 325 439 325 439 374.5 403.5 c 128,-1,6
 424 368 424 368 443.5 319 c 128,-1,7
 463 270 463 270 463 214 c 0,8,9
 463 110 463 110 398 46 c 0,10,11
 341 -10 341 -10 251 -10 c 0,12,13
 151 -10 151 -10 96 55 c 128,-1,14
 41 120 41 120 41 205 c 0,0,1
238 404 m 0,15,16
 127 404 127 404 127 228 c 0,17,18
 127 203 127 203 131 177 c 128,-1,19
 135 151 135 151 145.5 123.5 c 128,-1,20
 156 96 156 96 171.5 74.5 c 128,-1,21
 187 53 187 53 211 39 c 128,-1,22
 235 25 235 25 265 25 c 0,23,24
 285 25 285 25 303 32 c 128,-1,25
 321 39 321 39 338.5 55.5 c 128,-1,26
 356 72 356 72 366.5 104.5 c 128,-1,27
 377 137 377 137 377 182 c 0,28,29
 377 289 377 289 340 346.5 c 128,-1,30
 303 404 303 404 238 404 c 0,15,16
EndSplineSet
Substitution2: "'sinf' Scientific Inferiors lookup 8 subtable" o.inferior
Substitution2: "'sups' Superscript lookup 7 subtable" o.superior
Substitution2: "'smcp' Lowercase to Small Capitals lookup 4 subtable" o.sc
AlternateSubs2: "'aalt' Access All Alternates lookup 0 subtable" o.sc
EndChar

StartChar: p
Encoding: 112 112 81
Width: 519
GlyphClass: 2
Flags: W
AnchorPoint: "Anchor-6" 179 -319 basechar 0
AnchorPoint: "Anchor-3" 246 215 basechar 0
AnchorPoint: "Anchor-2" 271 646 basechar 0
AnchorPoint: "Anchor-0" 429 580 basechar 0
LayerCount: 2
Fore
SplineSet
175 331 m 0,0,1
 159 311 159 311 159 287 c 2,2,-1
 159 105 l 2,3,4
 159 79 159 79 163 69 c 128,-1,5
 167 59 167 59 183 45 c 0,6,7
 207 24 207 24 254 24 c 0,8,9
 294 24 294 24 323 40.5 c 128,-1,10
 352 57 352 57 367 85.5 c 128,-1,11
 382 114 382 114 388.5 144 c 128,-1,12
 395 174 395 174 395 208 c 0,13,14
 395 290 395 290 360.5 341.5 c 128,-1,15
 326 393 326 393 276 393 c 0,16,17
 255 393 255 393 225 374.5 c 128,-1,18
 195 356 195 356 175 331 c 0,0,1
156 368 m 0,19,20
 157 353 157 353 167 364 c 0,21,22
 187 387 187 387 209.5 403.5 c 128,-1,23
 232 420 232 420 256.5 429.5 c 128,-1,24
 281 439 281 439 304 439 c 0,25,26
 379 439 379 439 430 378 c 128,-1,27
 481 317 481 317 481 235 c 0,28,29
 481 118 481 118 407 46 c 1,30,31
 348 -10 348 -10 260 -10 c 0,32,33
 211 -10 211 -10 173 5 c 0,34,35
 165 9 165 9 162 8 c 128,-1,36
 159 7 159 7 159 -2 c 2,37,-1
 159 -110 l 2,38,39
 159 -143 159 -143 161 -159 c 128,-1,40
 163 -175 163 -175 174 -185 c 128,-1,41
 185 -195 185 -195 198 -197 c 128,-1,42
 211 -199 211 -199 241 -201 c 1,43,44
 246 -206 246 -206 246 -218 c 128,-1,45
 246 -230 246 -230 241 -234 c 1,46,47
 175 -232 175 -232 120 -232 c 0,48,49
 78 -232 78 -232 8 -234 c 1,50,51
 4 -230 4 -230 4 -218 c 128,-1,52
 4 -206 4 -206 8 -201 c 1,53,54
 34 -200 34 -200 45.5 -197.5 c 128,-1,55
 57 -195 57 -195 66.5 -185.5 c 128,-1,56
 76 -176 76 -176 78 -159 c 128,-1,57
 80 -142 80 -142 80 -110 c 2,58,-1
 80 317 l 2,59,60
 80 359 80 359 68.5 370 c 128,-1,61
 57 381 57 381 15 385 c 1,62,63
 9 402 9 402 13 413 c 1,64,65
 87 423 87 423 136 442 c 1,66,67
 144 442 144 442 148 434 c 0,68,69
 153 422 153 422 156 368 c 0,19,20
EndSplineSet
Substitution2: "'sinf' Scientific Inferiors lookup 8 subtable" p.inferior
Substitution2: "'sups' Superscript lookup 7 subtable" p.superior
Substitution2: "'smcp' Lowercase to Small Capitals lookup 4 subtable" p.sc
AlternateSubs2: "'aalt' Access All Alternates lookup 0 subtable" p.sc
EndChar

StartChar: q
Encoding: 113 113 82
Width: 503
GlyphClass: 2
Flags: W
AnchorPoint: "Anchor-6" 348 -319 basechar 0
AnchorPoint: "Anchor-3" 236 215 basechar 0
AnchorPoint: "Anchor-2" 238 645 basechar 0
AnchorPoint: "Anchor-0" 469 732 basechar 0
LayerCount: 2
Fore
SplineSet
322 368 m 0,0,1
 289 405 289 405 243 405 c 0,2,3
 185 405 185 405 153 356 c 128,-1,4
 121 307 121 307 121 227 c 0,5,6
 121 173 121 173 135 133.5 c 128,-1,7
 149 94 149 94 172 73.5 c 128,-1,8
 195 53 195 53 218.5 43.5 c 128,-1,9
 242 34 242 34 266 34 c 0,10,11
 306 34 306 34 332 47 c 0,12,13
 339 51 339 51 341.5 54.5 c 128,-1,14
 344 58 344 58 345 62.5 c 128,-1,15
 346 67 346 67 346 77 c 2,16,-1
 346 307 l 2,17,18
 346 326 346 326 341 339 c 128,-1,19
 336 352 336 352 322 368 c 0,0,1
346 -111 m 2,20,-1
 346 0 l 2,21,22
 346 15 346 15 341 15.5 c 128,-1,23
 336 16 336 16 319 6 c 0,24,25
 292 -10 292 -10 242 -10 c 0,26,27
 191 -10 191 -10 149.5 10.5 c 128,-1,28
 108 31 108 31 84 64 c 128,-1,29
 60 97 60 97 47.5 133.5 c 128,-1,30
 35 170 35 170 35 207 c 0,31,32
 35 306 35 306 95.5 372.5 c 128,-1,33
 156 439 156 439 247 439 c 0,34,35
 315 439 315 439 360 410 c 0,36,37
 369 404 369 404 374 406.5 c 128,-1,38
 379 409 379 409 389 423 c 0,39,40
 403 442 403 442 410 442 c 0,41,42
 425 442 425 442 425 417 c 2,43,-1
 425 -111 l 2,44,45
 425 -143 425 -143 427 -159.5 c 128,-1,46
 429 -176 429 -176 438.5 -185.5 c 128,-1,47
 448 -195 448 -195 459.5 -197.5 c 128,-1,48
 471 -200 471 -200 497 -201 c 1,49,50
 502 -205 502 -205 502 -217 c 128,-1,51
 502 -229 502 -229 497 -234 c 1,52,53
 431 -232 431 -232 386 -232 c 0,54,55
 344 -232 344 -232 274 -234 c 1,56,57
 270 -229 270 -229 270 -217 c 128,-1,58
 270 -205 270 -205 274 -201 c 1,59,60
 295 -200 295 -200 305 -198.5 c 128,-1,61
 315 -197 315 -197 325 -192.5 c 128,-1,62
 335 -188 335 -188 338.5 -177.5 c 128,-1,63
 342 -167 342 -167 344 -152 c 128,-1,64
 346 -137 346 -137 346 -111 c 2,20,-1
EndSplineSet
Substitution2: "'sinf' Scientific Inferiors lookup 8 subtable" q.inferior
Substitution2: "'sups' Superscript lookup 7 subtable" q.superior
Substitution2: "'smcp' Lowercase to Small Capitals lookup 4 subtable" q.sc
AlternateSubs2: "'aalt' Access All Alternates lookup 0 subtable" q.sc
EndChar

StartChar: r
Encoding: 114 114 83
Width: 372
GlyphClass: 2
Flags: W
AnchorPoint: "Anchor-6" 135 -110 basechar 0
AnchorPoint: "Anchor-5" 134 7 basechar 0
AnchorPoint: "Anchor-3" 136 185 basechar 0
AnchorPoint: "Anchor-2" 191 646 basechar 0
AnchorPoint: "Anchor-0" 349 580 basechar 0
LayerCount: 2
Fore
SplineSet
176 358 m 0,0,1
 176 353 176 353 179 351 c 128,-1,2
 182 349 182 349 187 356 c 0,3,4
 207 390 207 390 236.5 414.5 c 128,-1,5
 266 439 266 439 298 439 c 0,6,7
 327 439 327 439 342.5 423.5 c 128,-1,8
 358 408 358 408 358 391 c 0,9,10
 358 372 358 372 343.5 356.5 c 128,-1,11
 329 341 329 341 311 341 c 256,12,13
 293 341 293 341 275 364 c 0,14,15
 265 377 265 377 249 377 c 0,16,17
 237 377 237 377 203 328 c 0,18,19
 179 292 179 292 179 261 c 2,20,-1
 179 122 l 2,21,22
 179 62 179 62 192.5 48.5 c 128,-1,23
 206 35 206 35 261 31 c 1,24,25
 266 26 266 26 266 14 c 128,-1,26
 266 2 266 2 261 -2 c 1,27,28
 191 0 191 0 140 0 c 0,29,30
 96 0 96 0 26 -2 c 1,31,32
 22 2 22 2 22 14 c 128,-1,33
 22 26 22 26 26 31 c 1,34,35
 75 34 75 34 87.5 48 c 128,-1,36
 100 62 100 62 100 122 c 2,37,-1
 100 317 l 2,38,39
 100 359 100 359 88.5 370 c 128,-1,40
 77 381 77 381 35 385 c 1,41,42
 29 402 29 402 33 413 c 1,43,44
 107 423 107 423 156 442 c 1,45,46
 164 442 164 442 168 434 c 0,47,48
 173 422 173 422 176 358 c 0,0,1
EndSplineSet
Substitution2: "'sinf' Scientific Inferiors lookup 8 subtable" r.inferior
Substitution2: "'sups' Superscript lookup 7 subtable" r.superior
Substitution2: "'smcp' Lowercase to Small Capitals lookup 4 subtable" r.sc
AlternateSubs2: "'aalt' Access All Alternates lookup 0 subtable" r.sc
EndChar

StartChar: s
Encoding: 115 115 84
Width: 390
GlyphClass: 2
Flags: W
AnchorPoint: "Anchor-6" 196 -110 basechar 0
AnchorPoint: "Anchor-5" 194 1 basechar 0
AnchorPoint: "Anchor-4" 290 13 basechar 0
AnchorPoint: "Anchor-2" 206 645 basechar 0
AnchorPoint: "Anchor-0" 366 580 basechar 0
LayerCount: 2
Fore
SplineSet
48 138 m 1,0,1
 53 143 53 143 63.5 143 c 128,-1,2
 74 143 74 143 79 139 c 1,3,4
 95 71 95 71 118 47 c 128,-1,5
 141 23 141 23 189 23 c 0,6,7
 221 23 221 23 247.5 41 c 128,-1,8
 274 59 274 59 274 93 c 0,9,10
 274 126 274 126 253.5 146 c 128,-1,11
 233 166 233 166 172 191 c 0,12,13
 112 216 112 216 87 245 c 128,-1,14
 62 274 62 274 62 327 c 0,15,16
 62 374 62 374 104 406.5 c 128,-1,17
 146 439 146 439 203 439 c 0,18,19
 226 439 226 439 250 435.5 c 128,-1,20
 274 432 274 432 300.5 426.5 c 128,-1,21
 327 421 327 421 334 420 c 1,22,23
 332 367 332 367 328 314 c 1,24,25
 323 309 323 309 312 309 c 128,-1,26
 301 309 301 309 296 313 c 1,27,28
 291 343 291 343 279.5 363 c 128,-1,29
 268 383 268 383 252.5 391.5 c 128,-1,30
 237 400 237 400 225.5 403 c 128,-1,31
 214 406 214 406 203 406 c 0,32,33
 176 406 176 406 154.5 388.5 c 128,-1,34
 133 371 133 371 133 342 c 0,35,36
 133 305 133 305 155.5 287 c 128,-1,37
 178 269 178 269 233 249 c 0,38,39
 350 206 350 206 350 116 c 0,40,41
 350 81 350 81 333.5 55 c 128,-1,42
 317 29 317 29 291 15.5 c 128,-1,43
 265 2 265 2 240 -4 c 128,-1,44
 215 -10 215 -10 191 -10 c 0,45,46
 142 -10 142 -10 100 1 c 0,47,48
 93 3 93 3 80 3 c 0,49,50
 70 3 70 3 55 0 c 1,51,52
 55 52 55 52 48 138 c 1,0,1
EndSplineSet
Substitution2: "'sinf' Scientific Inferiors lookup 8 subtable" s.inferior
Substitution2: "'sups' Superscript lookup 7 subtable" s.superior
Substitution2: "'smcp' Lowercase to Small Capitals lookup 4 subtable" s.sc
AlternateSubs2: "'aalt' Access All Alternates lookup 0 subtable" s.sc
EndChar

StartChar: t
Encoding: 116 116 85
Width: 316
GlyphClass: 2
Flags: W
AnchorPoint: "Anchor-6" 163 -110 basechar 0
AnchorPoint: "Anchor-5" 165 -3 basechar 0
AnchorPoint: "Anchor-4" 237 15 basechar 0
AnchorPoint: "Anchor-3" 127 215 basechar 0
AnchorPoint: "Anchor-0" 279 580 basechar 0
LayerCount: 2
Fore
SplineSet
43 429 m 2,0,-1
 89 429 l 1,1,2
 89 467 89 467 88.5 492 c 128,-1,3
 88 517 88 517 87.5 524.5 c 128,-1,4
 87 532 87 532 86.5 537 c 128,-1,5
 86 542 86 542 86 545 c 0,6,7
 86 552 86 552 108 559 c 0,8,9
 125 564 125 564 142 573 c 0,10,11
 158 582 158 582 164 582 c 0,12,13
 172 582 172 582 172 573 c 0,14,15
 168 533 168 533 168 468 c 2,16,-1
 168 429 l 1,17,-1
 288 429 l 2,18,19
 296 429 296 429 296 423 c 2,20,-1
 296 403 l 2,21,22
 296 390 296 390 272 390 c 2,23,-1
 168 390 l 1,24,-1
 168 137 l 2,25,26
 168 88 168 88 175 66.5 c 128,-1,27
 182 45 182 45 201 45 c 0,28,29
 247 45 247 45 283 73 c 1,30,31
 298 72 298 72 301 56 c 1,32,33
 242 -10 242 -10 166 -10 c 0,34,35
 89 -10 89 -10 89 89 c 2,36,-1
 89 390 l 1,37,-1
 30 390 l 2,38,39
 25 390 25 390 25 396 c 2,40,-1
 25 409 l 2,41,42
 25 429 25 429 43 429 c 2,0,-1
EndSplineSet
Substitution2: "'sinf' Scientific Inferiors lookup 8 subtable" t.inferior
Substitution2: "'sups' Superscript lookup 7 subtable" t.superior
Substitution2: "'smcp' Lowercase to Small Capitals lookup 4 subtable" t.sc
AlternateSubs2: "'aalt' Access All Alternates lookup 0 subtable" t.sc
EndChar

StartChar: u
Encoding: 117 117 86
Width: 531
GlyphClass: 2
Flags: W
AnchorPoint: "Anchor-6" 239 -110 basechar 0
AnchorPoint: "Anchor-5" 213 0 basechar 0
AnchorPoint: "Anchor-4" 293 7 basechar 0
AnchorPoint: "Anchor-3" 252 215 basechar 0
AnchorPoint: "Anchor-2" 255 645 basechar 0
LayerCount: 2
Fore
SplineSet
217 -10 m 0,0,1
 148 -10 148 -10 118 28.5 c 128,-1,2
 88 67 88 67 88 126 c 2,3,-1
 88 318 l 2,4,5
 88 365 88 365 75.5 380 c 128,-1,6
 63 395 63 395 26 398 c 1,7,8
 22 402 22 402 22 414 c 128,-1,9
 22 426 22 426 26 431 c 1,10,11
 94 429 94 429 128 429 c 0,12,13
 153 429 153 429 163 431 c 1,14,15
 171 431 171 431 171 425 c 0,16,17
 167 352 167 352 167 322 c 2,18,-1
 167 140 l 2,19,20
 167 81 167 81 191.5 59 c 128,-1,21
 216 37 216 37 247 37 c 0,22,23
 292 37 292 37 347 85 c 0,24,25
 363 99 363 99 363 124 c 2,26,-1
 363 317 l 2,27,28
 363 365 363 365 351 380.5 c 128,-1,29
 339 396 339 396 301 398 c 1,30,31
 296 402 296 402 296 414 c 128,-1,32
 296 426 296 426 301 431 c 1,33,34
 369 429 369 429 403 429 c 0,35,36
 428 429 428 429 438 431 c 1,37,38
 446 431 446 431 446 425 c 0,39,40
 442 352 442 352 442 322 c 2,41,-1
 442 130 l 2,42,43
 442 91 442 91 455.5 76 c 128,-1,44
 469 61 469 61 515 57 c 1,45,46
 520 52 520 52 520 43 c 128,-1,47
 520 34 520 34 515 30 c 1,48,49
 435 21 435 21 397 -10 c 1,50,51
 388 -14 388 -14 378 -10 c 1,52,53
 369 24 369 24 367 49 c 0,54,55
 366 54 366 54 361 53.5 c 128,-1,56
 356 53 356 53 352 50 c 0,57,58
 279 -10 279 -10 217 -10 c 0,0,1
EndSplineSet
Substitution2: "'sinf' Scientific Inferiors lookup 8 subtable" u.inferior
Substitution2: "'sups' Superscript lookup 7 subtable" u.superior
Substitution2: "'smcp' Lowercase to Small Capitals lookup 4 subtable" u.sc
AlternateSubs2: "'aalt' Access All Alternates lookup 0 subtable" u.sc
EndChar

StartChar: v
Encoding: 118 118 87
Width: 497
GlyphClass: 2
Flags: W
AnchorPoint: "Anchor-6" 241 -110 basechar 0
AnchorPoint: "Anchor-3" 247 267 basechar 0
AnchorPoint: "Anchor-2" 256 646 basechar 0
AnchorPoint: "Anchor-0" 460 580 basechar 0
LayerCount: 2
Fore
SplineSet
325 398 m 1,0,1
 320 402 320 402 320 414.5 c 128,-1,2
 320 427 320 427 325 431 c 1,3,4
 375 429 375 429 417 429 c 0,5,6
 447 429 447 429 487 431 c 1,7,8
 492 427 492 427 492 415 c 128,-1,9
 492 403 492 403 487 398 c 1,10,11
 449 395 449 395 433.5 379 c 128,-1,12
 418 363 418 363 401 324 c 2,13,-1
 268 11 l 2,14,15
 258 -12 258 -12 244 -12 c 0,16,17
 227 -12 227 -12 219 9 c 2,18,-1
 91 325 l 2,19,20
 75 367 75 367 61.5 380.5 c 128,-1,21
 48 394 48 394 11 398 c 1,22,23
 6 402 6 402 6 414 c 128,-1,24
 6 426 6 426 11 431 c 1,25,26
 71 429 71 429 104 429 c 0,27,28
 139 429 139 429 205 431 c 1,29,30
 209 426 209 426 209 414 c 128,-1,31
 209 402 209 402 205 398 c 1,32,33
 167 393 167 393 162.5 380 c 128,-1,34
 158 367 158 367 174 331 c 1,35,-1
 246 138 l 2,36,37
 251 125 251 125 254.5 118 c 128,-1,38
 258 111 258 111 261 107.5 c 128,-1,39
 264 104 264 104 267.5 107 c 128,-1,40
 271 110 271 110 274.5 116 c 128,-1,41
 278 122 278 122 283 135 c 2,42,-1
 364 331 l 2,43,44
 380 369 380 369 372.5 382 c 128,-1,45
 365 395 365 395 325 398 c 1,0,1
EndSplineSet
Substitution2: "'sinf' Scientific Inferiors lookup 8 subtable" v.inferior
Substitution2: "'sups' Superscript lookup 7 subtable" v.superior
Substitution2: "'smcp' Lowercase to Small Capitals lookup 4 subtable" v.sc
AlternateSubs2: "'aalt' Access All Alternates lookup 0 subtable" v.sc
Position2: "'rtbd' Right Bounds lookup 4 subtable" dx=0 dy=0 dh=-28 dv=0
EndChar

StartChar: w
Encoding: 119 119 88
Width: 747
GlyphClass: 2
Flags: W
AnchorPoint: "Anchor-6" 352 -110 basechar 0
AnchorPoint: "Anchor-2" 345 646 basechar 0
AnchorPoint: "Anchor-0" 719 580 basechar 0
LayerCount: 2
Fore
SplineSet
203 398 m 1,0,1
 168 396 168 396 162.5 381.5 c 128,-1,2
 157 367 157 367 173 331 c 1,3,-1
 253 125 l 2,4,5
 260 108 260 108 263.5 104 c 128,-1,6
 267 100 267 100 270.5 104.5 c 128,-1,7
 274 109 274 109 281 127 c 2,8,-1
 351 304 l 1,9,-1
 345 320 l 1,10,11
 336 341 336 341 331 351 c 128,-1,12
 326 361 326 361 317.5 373.5 c 128,-1,13
 309 386 309 386 297 391 c 128,-1,14
 285 396 285 396 268 398 c 1,15,16
 264 402 264 402 264 414 c 128,-1,17
 264 426 264 426 268 431 c 1,18,19
 328 429 328 429 356 429 c 0,20,21
 396 429 396 429 456 431 c 1,22,23
 461 426 461 426 461 414 c 128,-1,24
 461 402 461 402 456 398 c 1,25,26
 417 395 417 395 411 383.5 c 128,-1,27
 405 372 405 372 420 337 c 1,28,-1
 506 118 l 2,29,30
 512 102 512 102 516.5 102.5 c 128,-1,31
 521 103 521 103 528 122 c 2,32,-1
 612 330 l 2,33,34
 618 347 618 347 620 355.5 c 128,-1,35
 622 364 622 364 619.5 375 c 128,-1,36
 617 386 617 386 602.5 391.5 c 128,-1,37
 588 397 588 397 561 398 c 1,38,39
 556 402 556 402 556 414 c 128,-1,40
 556 426 556 426 561 431 c 1,41,42
 621 429 621 429 663 429 c 0,43,44
 695 429 695 429 735 431 c 1,45,46
 740 426 740 426 740 414 c 128,-1,47
 740 402 740 402 735 398 c 1,48,49
 700 396 700 396 682.5 378.5 c 128,-1,50
 665 361 665 361 651 326 c 2,51,-1
 520 9 l 2,52,53
 512 -12 512 -12 497 -12 c 128,-1,54
 482 -12 482 -12 473 8 c 2,55,-1
 370 256 l 1,56,-1
 269 10 l 2,57,58
 259 -12 259 -12 245 -12 c 0,59,60
 230 -12 230 -12 221 8 c 2,61,-1
 90 331 l 2,62,63
 74 370 74 370 60 382 c 128,-1,64
 46 394 46 394 11 398 c 1,65,66
 6 402 6 402 6 414 c 128,-1,67
 6 426 6 426 11 431 c 1,68,69
 63 429 63 429 102 429 c 0,70,71
 143 429 143 429 203 431 c 1,72,73
 208 426 208 426 208 414 c 128,-1,74
 208 402 208 402 203 398 c 1,0,1
EndSplineSet
Substitution2: "'sinf' Scientific Inferiors lookup 8 subtable" w.inferior
Substitution2: "'sups' Superscript lookup 7 subtable" w.superior
Substitution2: "'smcp' Lowercase to Small Capitals lookup 4 subtable" w.sc
AlternateSubs2: "'aalt' Access All Alternates lookup 0 subtable" w.sc
EndChar

StartChar: x
Encoding: 120 120 89
Width: 490
GlyphClass: 2
Flags: W
AnchorPoint: "Anchor-6" 224 -110 basechar 0
AnchorPoint: "Anchor-5" 94 8 basechar 0
AnchorPoint: "Anchor-3" 237 215 basechar 0
AnchorPoint: "Anchor-2" 256 646 basechar 0
AnchorPoint: "Anchor-0" 469 580 basechar 0
LayerCount: 2
Fore
SplineSet
182 358 m 1,0,-1
 243 268 l 2,1,2
 249 260 249 260 253 259.5 c 128,-1,3
 257 259 257 259 262 266 c 2,4,-1
 327 357 l 2,5,6
 339 374 339 374 339 382 c 128,-1,7
 339 390 339 390 331.5 393 c 128,-1,8
 324 396 324 396 303 398 c 1,9,10
 299 403 299 403 299 415 c 128,-1,11
 299 427 299 427 303 431 c 1,12,13
 355 429 355 429 387 429 c 0,14,15
 420 429 420 429 460 431 c 1,16,17
 465 427 465 427 465 415 c 128,-1,18
 465 403 465 403 460 398 c 1,19,20
 429 395 429 395 409 385 c 128,-1,21
 389 375 389 375 363 343 c 2,22,-1
 279 236 l 2,23,24
 273 229 273 229 279 221 c 2,25,-1
 369 94 l 2,26,27
 398 54 398 54 415 43.5 c 128,-1,28
 432 33 432 33 469 31 c 1,29,30
 474 27 474 27 474 15 c 128,-1,31
 474 3 474 3 469 -2 c 1,32,33
 421 0 421 0 380 0 c 0,34,35
 341 0 341 0 281 -2 c 1,36,37
 277 3 277 3 277 15 c 128,-1,38
 277 27 277 27 281 31 c 1,39,40
 296 33 296 33 302 34.5 c 128,-1,41
 308 36 308 36 312 41 c 128,-1,42
 316 46 316 46 311.5 56 c 128,-1,43
 307 66 307 66 294 84 c 2,44,-1
 236 164 l 2,45,46
 232 171 232 171 228 171 c 128,-1,47
 224 171 224 171 218 162 c 2,48,-1
 155 71 l 1,49,50
 140 46 140 46 144 40 c 128,-1,51
 148 34 148 34 177 31 c 1,52,53
 182 26 182 26 182 14 c 128,-1,54
 182 2 182 2 177 -2 c 1,55,56
 125 0 125 0 93 0 c 128,-1,57
 61 0 61 0 21 -2 c 1,58,59
 17 2 17 2 17 14 c 128,-1,60
 17 26 17 26 21 31 c 1,61,62
 52 33 52 33 71.5 42.5 c 128,-1,63
 91 52 91 52 118 87 c 2,64,-1
 202 195 l 2,65,66
 207 201 207 201 201 210 c 2,67,-1
 114 337 l 2,68,69
 75 393 75 393 24 398 c 1,70,71
 20 402 20 402 20 414 c 128,-1,72
 20 426 20 426 24 431 c 1,73,74
 76 429 76 429 110 429 c 0,75,76
 157 429 157 429 211 431 c 1,77,78
 216 426 216 426 216 414 c 128,-1,79
 216 402 216 402 211 398 c 1,80,81
 176 394 176 394 171 389 c 128,-1,82
 166 384 166 384 182 358 c 1,0,-1
EndSplineSet
Substitution2: "'sinf' Scientific Inferiors lookup 8 subtable" x.inferior
Substitution2: "'sups' Superscript lookup 7 subtable" x.superior
Substitution2: "'smcp' Lowercase to Small Capitals lookup 4 subtable" x.sc
AlternateSubs2: "'aalt' Access All Alternates lookup 0 subtable" x.sc
EndChar

StartChar: y
Encoding: 121 121 90
Width: 515
GlyphClass: 2
Flags: W
AnchorPoint: "Anchor-6" 242 -319 basechar 0
AnchorPoint: "Anchor-2" 262 645 basechar 0
LayerCount: 2
Fore
SplineSet
204 -160 m 0,0,1
 163 -232 163 -232 107 -232 c 0,2,3
 87 -232 87 -232 73.5 -221.5 c 128,-1,4
 60 -211 60 -211 60 -195 c 0,5,6
 60 -182 60 -182 72.5 -167 c 128,-1,7
 85 -152 85 -152 104 -152 c 0,8,9
 109 -152 109 -152 117.5 -153.5 c 128,-1,10
 126 -155 126 -155 133 -155 c 0,11,12
 167 -155 167 -155 183 -126 c 1,13,14
 207 -77 207 -77 222 -34 c 0,15,16
 234 0 234 0 208 60 c 2,17,-1
 95 323 l 2,18,19
 76 368 76 368 61.5 381 c 128,-1,20
 47 394 47 394 16 398 c 1,21,22
 11 402 11 402 11 414 c 128,-1,23
 11 426 11 426 16 431 c 1,24,25
 56 429 56 429 97 429 c 0,26,27
 136 429 136 429 210 431 c 1,28,29
 214 426 214 426 214 414 c 128,-1,30
 214 402 214 402 210 398 c 1,31,32
 171 395 171 395 166 379.5 c 128,-1,33
 161 364 161 364 177 333 c 1,34,-1
 266 125 l 2,35,36
 278 97 278 97 290 124 c 2,37,-1
 389 353 l 2,38,39
 400 377 400 377 385.5 386 c 128,-1,40
 371 395 371 395 341 398 c 1,41,42
 336 402 336 402 336 414 c 128,-1,43
 336 426 336 426 341 431 c 1,44,45
 401 429 401 429 432 429 c 128,-1,46
 463 429 463 429 503 431 c 1,47,48
 507 426 507 426 507 414 c 128,-1,49
 507 402 507 402 503 398 c 1,50,51
 480 395 480 395 465.5 387.5 c 128,-1,52
 451 380 451 380 442 368.5 c 128,-1,53
 433 357 433 357 422 334 c 0,54,55
 349 176 349 176 245 -74 c 0,56,57
 224 -124 224 -124 204 -160 c 0,0,1
EndSplineSet
Substitution2: "'sinf' Scientific Inferiors lookup 8 subtable" y.inferior
Substitution2: "'sups' Superscript lookup 7 subtable" y.superior
Substitution2: "'smcp' Lowercase to Small Capitals lookup 4 subtable" y.sc
AlternateSubs2: "'aalt' Access All Alternates lookup 0 subtable" y.sc
EndChar

StartChar: z
Encoding: 122 122 91
Width: 424
GlyphClass: 2
Flags: W
AnchorPoint: "Anchor-6" 207 -110 basechar 0
AnchorPoint: "Anchor-5" 208 4 basechar 0
AnchorPoint: "Anchor-3" 207 215 basechar 0
AnchorPoint: "Anchor-2" 220 646 basechar 0
AnchorPoint: "Anchor-0" 399 580 basechar 0
LayerCount: 2
Fore
SplineSet
71 439 m 1,0,1
 98 429 98 429 130 429 c 2,2,-1
 313 429 l 2,3,4
 326 429 326 429 340 429.5 c 128,-1,5
 354 430 354 430 364 430.5 c 128,-1,6
 374 431 374 431 375 431 c 0,7,8
 387 431 387 431 387 424 c 256,9,10
 387 417 387 417 369 387 c 0,11,12
 318 303 318 303 249.5 201.5 c 128,-1,13
 181 100 181 100 129 34 c 1,14,-1
 262 34 l 1,15,16
 299 35 299 35 319.5 51.5 c 128,-1,17
 340 68 340 68 360 110 c 2,18,-1
 374 139 l 1,19,20
 393 139 393 139 404 133 c 1,21,22
 393 58 393 58 372 -3 c 1,23,-1
 60 0 l 2,24,25
 37 0 37 0 37 12 c 0,26,27
 37 20 37 20 46 32 c 0,28,29
 196 233 196 233 292 395 c 1,30,-1
 164 392 l 2,31,32
 108 391 108 391 83 301 c 1,33,34
 66 297 66 297 50 304 c 1,35,36
 64 379 64 379 65 433 c 0,37,38
 65 439 65 439 71 439 c 1,0,1
EndSplineSet
Substitution2: "'sinf' Scientific Inferiors lookup 8 subtable" z.inferior
Substitution2: "'sups' Superscript lookup 7 subtable" z.superior
Substitution2: "'smcp' Lowercase to Small Capitals lookup 4 subtable" z.sc
AlternateSubs2: "'aalt' Access All Alternates lookup 0 subtable" z.sc
EndChar

StartChar: braceleft
Encoding: 123 123 92
Width: 277
GlyphClass: 2
Flags: W
GlyphCompositionVertical: 5  uni23A9%0,0,138,432 uni23AA%1,431,431,432 uni23A8%0,58,58,894 uni23AA%1,431,431,432 uni23A7%0,138,0,432
LayerCount: 2
Fore
SplineSet
178 552 m 2,0,-1
 186 386 l 2,1,2
 189 324 189 324 163 294.5 c 128,-1,3
 137 265 137 265 81 249 c 1,4,-1
 81 245 l 1,5,6
 136 222 136 222 162.5 187.5 c 128,-1,7
 189 153 189 153 186 95 c 2,8,-1
 178 -54 l 2,9,10
 175 -114 175 -114 199 -151 c 128,-1,11
 223 -188 223 -188 258 -188 c 1,12,13
 262 -192 262 -192 262 -200 c 128,-1,14
 262 -208 262 -208 258 -212 c 1,15,16
 177 -212 177 -212 139.5 -177 c 128,-1,17
 102 -142 102 -142 106 -49 c 2,18,-1
 112 121 l 2,19,20
 115 223 115 223 14 235 c 1,21,22
 2 247 2 247 14 259 c 1,23,24
 65 264 65 264 88.5 295.5 c 128,-1,25
 112 327 112 327 112 370 c 1,26,-1
 106 554 l 2,27,28
 101 707 101 707 258 707 c 1,29,30
 262 702 262 702 262 695 c 128,-1,31
 262 688 262 688 258 683 c 1,32,33
 240 678 240 678 228.5 672 c 128,-1,34
 217 666 217 666 202.5 652.5 c 128,-1,35
 188 639 188 639 182 614 c 128,-1,36
 176 589 176 589 178 552 c 2,0,-1
EndSplineSet
Substitution2: "'case' Case-Sensitive Forms lookup 27 subtable" braceleft.sc
Substitution2: "'c2sc' Capitals to Small Capitals lookup 9 subtable" braceleft.sc
AlternateSubs2: "'aalt' Access All Alternates lookup 0 subtable" braceleft.sc
EndChar

StartChar: bar
Encoding: 124 124 93
Width: 205
GlyphClass: 2
Flags: W
LayerCount: 2
Fore
SplineSet
125 -232 m 1,0,-1
 81 -232 l 1,1,-1
 81 698 l 1,2,-1
 125 698 l 1,3,-1
 125 -232 l 1,0,-1
EndSplineSet
EndChar

StartChar: braceright
Encoding: 125 125 94
Width: 277
GlyphClass: 2
Flags: W
LayerCount: 2
Fore
SplineSet
95 -58 m 2,0,-1
 87 108 l 2,1,2
 84 170 84 170 110 199.5 c 128,-1,3
 136 229 136 229 192 245 c 1,4,-1
 192 249 l 1,5,6
 156 264 156 264 133 282 c 128,-1,7
 110 300 110 300 97.5 329.5 c 128,-1,8
 85 359 85 359 87 399 c 2,9,-1
 95 548 l 2,10,11
 98 608 98 608 74 645 c 128,-1,12
 50 682 50 682 15 682 c 1,13,14
 10 686 10 686 10 694 c 128,-1,15
 10 702 10 702 15 706 c 1,16,17
 96 706 96 706 133.5 671 c 128,-1,18
 171 636 171 636 167 543 c 2,19,-1
 161 373 l 2,20,21
 158 271 158 271 259 259 c 1,22,23
 271 247 271 247 259 235 c 1,24,25
 208 230 208 230 184.5 198.5 c 128,-1,26
 161 167 161 167 161 124 c 1,27,-1
 167 -60 l 2,28,29
 172 -213 172 -213 15 -213 c 1,30,31
 10 -208 10 -208 10 -201 c 128,-1,32
 10 -194 10 -194 15 -189 c 1,33,34
 33 -184 33 -184 44.5 -178 c 128,-1,35
 56 -172 56 -172 70.5 -158.5 c 128,-1,36
 85 -145 85 -145 91 -120 c 128,-1,37
 97 -95 97 -95 95 -58 c 2,0,-1
EndSplineSet
Substitution2: "'case' Case-Sensitive Forms lookup 27 subtable" braceright.sc
Substitution2: "'c2sc' Capitals to Small Capitals lookup 9 subtable" braceright.sc
AlternateSubs2: "'aalt' Access All Alternates lookup 0 subtable" braceright.sc
EndChar

StartChar: asciitilde
Encoding: 126 126 95
Width: 449
GlyphClass: 2
Flags: W
LayerCount: 2
Fore
SplineSet
26 209 m 1,0,1
 36 260 36 260 73 298.5 c 128,-1,2
 110 337 110 337 154 337 c 0,3,4
 186 337 186 337 229 305 c 0,5,6
 274 272 274 272 301 272 c 0,7,8
 327 272 327 272 356 288.5 c 128,-1,9
 385 305 385 305 400 339 c 1,10,11
 412 339 412 339 417 333 c 1,12,13
 403 284 403 284 377 255 c 128,-1,14
 351 226 351 226 332.5 219.5 c 128,-1,15
 314 213 314 213 297 213 c 0,16,17
 265 213 265 213 221 246 c 0,18,19
 178 278 178 278 148 278 c 0,20,21
 121 278 121 278 90.5 257.5 c 128,-1,22
 60 237 60 237 43 205 c 1,23,24
 34 205 34 205 26 209 c 1,0,1
EndSplineSet
EndChar

StartChar: exclamdown
Encoding: 161 161 97
Width: 288
GlyphClass: 2
Flags: W
LayerCount: 2
Fore
SplineSet
144 -229 m 128,-1,1
 123 -229 123 -229 107 -211 c 128,-1,2
 91 -193 91 -193 91 -156 c 0,3,4
 91 -127 91 -127 94.5 -99.5 c 128,-1,5
 98 -72 98 -72 104.5 -33.5 c 128,-1,6
 111 5 111 5 115 37 c 0,7,8
 121 84 121 84 124 126.5 c 128,-1,9
 127 169 127 169 128 192 c 128,-1,10
 129 215 129 215 130 219 c 0,11,12
 132 239 132 239 144 239 c 128,-1,13
 156 239 156 239 158 226 c 0,14,15
 159 220 159 220 161 188 c 128,-1,16
 163 156 163 156 166.5 113.5 c 128,-1,17
 170 71 170 71 174 37 c 0,18,19
 177 6 177 6 187 -55 c 128,-1,20
 197 -116 197 -116 197 -156 c 0,21,22
 197 -193 197 -193 181 -211 c 128,-1,0
 165 -229 165 -229 144 -229 c 128,-1,1
197 386 m 128,-1,24
 197 364 197 364 181.5 348.5 c 128,-1,25
 166 333 166 333 144 333 c 128,-1,26
 122 333 122 333 106.5 348.5 c 128,-1,27
 91 364 91 364 91 386 c 128,-1,28
 91 408 91 408 106.5 423.5 c 128,-1,29
 122 439 122 439 144 439 c 128,-1,30
 166 439 166 439 181.5 423.5 c 128,-1,23
 197 408 197 408 197 386 c 128,-1,24
EndSplineSet
Substitution2: "'case' Case-Sensitive Forms lookup 27 subtable" exclamdown.sc
Substitution2: "'c2sc' Capitals to Small Capitals lookup 9 subtable" exclamdown.sc
AlternateSubs2: "'aalt' Access All Alternates lookup 0 subtable" exclamdown.sc
EndChar

StartChar: cent
Encoding: 162 162 98
Width: 465
GlyphClass: 2
Flags: W
LayerCount: 2
Fore
SplineSet
232 611 m 1,0,-1
 268 611 l 1,1,-1
 268 514 l 1,2,3
 334 514 334 514 371.5 488.5 c 128,-1,4
 409 463 409 463 409 424 c 0,5,6
 409 404 409 404 394.5 393 c 128,-1,7
 380 382 380 382 363 382 c 0,8,9
 331 382 331 382 327 416 c 0,10,11
 325 431 325 431 322.5 440 c 128,-1,12
 320 449 320 449 314 459.5 c 128,-1,13
 308 470 308 470 296.5 476 c 128,-1,14
 285 482 285 482 268 483 c 1,15,-1
 268 135 l 1,16,17
 274 134 274 134 278 134 c 0,18,19
 344 134 344 134 392 197 c 1,20,21
 407 195 407 195 412 184 c 1,22,23
 381 132 381 132 346 111 c 128,-1,24
 311 90 311 90 268 88 c 1,25,-1
 268 -13 l 1,26,-1
 232 -13 l 1,27,-1
 232 89 l 1,28,29
 155 97 155 97 112 152.5 c 128,-1,30
 69 208 69 208 69 295 c 0,31,32
 69 352 69 352 92.5 399.5 c 128,-1,33
 116 447 116 447 152.5 475 c 128,-1,34
 189 503 189 503 232 511 c 1,35,-1
 232 611 l 1,0,-1
232 145 m 1,36,-1
 232 479 l 1,37,38
 195 467 195 467 173 424 c 128,-1,39
 151 381 151 381 151 316 c 0,40,41
 151 254 151 254 173 209 c 128,-1,42
 195 164 195 164 232 145 c 1,36,-1
EndSplineSet
EndChar

StartChar: sterling
Encoding: 163 163 99
Width: 465
GlyphClass: 2
Flags: W
LayerCount: 2
Fore
SplineSet
74 300 m 2,0,1
 68 300 68 300 68 307 c 2,2,-1
 68 318 l 2,3,4
 68 326 68 326 74 332.5 c 128,-1,5
 80 339 80 339 92 339 c 2,6,-1
 137 339 l 1,7,-1
 137 359 l 2,8,9
 137 421 137 421 156.5 465.5 c 128,-1,10
 176 510 176 510 219 552 c 1,11,12
 276 611 276 611 352 611 c 0,13,14
 376 611 376 611 404 598.5 c 128,-1,15
 432 586 432 586 432 562 c 0,16,17
 432 543 432 543 420.5 532 c 128,-1,18
 409 521 409 521 391 521 c 0,19,20
 376 521 376 521 355 540 c 0,21,22
 330 563 330 563 305 563 c 0,23,24
 270 563 270 563 246 519 c 128,-1,25
 222 475 222 475 222 410 c 2,26,-1
 222 339 l 1,27,-1
 346 339 l 2,28,29
 354 339 354 339 354 333 c 2,30,-1
 354 313 l 2,31,32
 354 300 354 300 330 300 c 2,33,-1
 222 300 l 1,34,35
 221 160 221 160 147 91 c 1,36,37
 189 91 189 91 218 83.5 c 128,-1,38
 247 76 247 76 259 67.5 c 128,-1,39
 271 59 271 59 289 51.5 c 128,-1,40
 307 44 307 44 329 44 c 0,41,42
 400 44 400 44 432 88 c 1,43,44
 445 86 445 86 450 77 c 1,45,46
 431 37 431 37 395 13 c 128,-1,47
 359 -11 359 -11 311 -11 c 0,48,49
 266 -11 266 -11 221 19 c 128,-1,50
 176 49 176 49 132 49 c 0,51,52
 92 49 92 49 92 24 c 0,53,54
 92 7 92 7 80.5 -2 c 128,-1,55
 69 -11 69 -11 52 -11 c 0,56,57
 37 -11 37 -11 26.5 -3 c 128,-1,58
 16 5 16 5 16 17 c 0,59,60
 16 39 16 39 67 67 c 1,61,62
 108 97 108 97 122.5 150 c 128,-1,63
 137 203 137 203 137 281 c 2,64,-1
 137 300 l 1,65,-1
 74 300 l 2,0,1
EndSplineSet
EndChar

StartChar: currency
Encoding: 164 164 100
Width: 465
GlyphClass: 2
Flags: W
LayerCount: 2
Fore
SplineSet
108 305 m 0,0,1
 108 246 108 246 142 205 c 128,-1,2
 176 164 176 164 231 164 c 0,3,4
 285 164 285 164 319.5 205 c 128,-1,5
 354 246 354 246 354 304 c 0,6,7
 354 363 354 363 318 404 c 128,-1,8
 282 445 282 445 233 445 c 0,9,10
 179 445 179 445 143.5 404 c 128,-1,11
 108 363 108 363 108 305 c 0,0,1
231 119 m 0,12,13
 169 119 169 119 117 157 c 1,14,-1
 72 101 l 1,15,-1
 29 144 l 1,16,-1
 86 189 l 1,17,18
 44 240 44 240 44 304 c 0,19,20
 44 370 44 370 86 420 c 1,21,-1
 31 464 l 1,22,-1
 70 506 l 1,23,-1
 118 452 l 1,24,25
 170 489 170 489 231 489 c 0,26,27
 295 489 295 489 346 450 c 1,28,-1
 395 508 l 1,29,-1
 436 465 l 1,30,-1
 378 418 l 1,31,32
 418 369 418 369 418 304 c 0,33,34
 418 242 418 242 379 191 c 1,35,-1
 434 145 l 1,36,-1
 396 105 l 1,37,-1
 348 158 l 1,38,39
 296 119 296 119 231 119 c 0,12,13
EndSplineSet
EndChar

StartChar: yen
Encoding: 165 165 101
Width: 465
GlyphClass: 2
Flags: W
LayerCount: 2
Fore
SplineSet
191 127 m 2,0,-1
 191 134 l 1,1,-1
 50 134 l 2,2,3
 44 134 44 134 44 141 c 2,4,-1
 44 154 l 2,5,6
 44 173 44 173 68 173 c 2,7,-1
 191 173 l 1,8,-1
 191 245 l 1,9,-1
 50 245 l 2,10,11
 44 245 44 245 44 251 c 2,12,-1
 44 263 l 2,13,14
 44 271 44 271 50 277.5 c 128,-1,15
 56 284 56 284 68 284 c 2,16,-1
 187 284 l 1,17,-1
 80 503 l 2,18,19
 51 564 51 564 0 569 c 1,20,21
 -4 574 -4 574 -4 586 c 128,-1,22
 -4 598 -4 598 0 602 c 1,23,24
 64 600 64 600 90 600 c 0,25,26
 115 600 115 600 179 602 c 1,27,28
 184 598 184 598 184 586 c 128,-1,29
 184 574 184 574 179 569 c 1,30,31
 150 569 150 569 144 563 c 128,-1,32
 138 557 138 557 149 531 c 1,33,-1
 256 311 l 1,34,-1
 258 311 l 1,35,-1
 335 487 l 2,36,37
 360 542 360 542 358.5 554 c 128,-1,38
 357 566 357 566 320 569 c 1,39,40
 316 574 316 574 316 586 c 128,-1,41
 316 598 316 598 320 602 c 1,42,43
 384 600 384 600 399 600 c 0,44,45
 402 600 402 600 466 602 c 1,46,47
 470 597 470 597 469.5 585.5 c 128,-1,48
 469 574 469 574 464 569 c 1,49,50
 425 565 425 565 414.5 554.5 c 128,-1,51
 404 544 404 544 378 487 c 2,52,-1
 286 284 l 1,53,-1
 415 284 l 2,54,55
 423 284 423 284 423 278 c 2,56,-1
 423 259 l 2,57,58
 423 245 423 245 398 245 c 2,59,-1
 276 245 l 1,60,-1
 276 173 l 1,61,-1
 415 173 l 2,62,63
 423 173 423 173 423 167 c 2,64,-1
 423 148 l 2,65,66
 423 134 423 134 398 134 c 2,67,-1
 276 134 l 1,68,-1
 276 127 l 2,69,70
 276 63 276 63 293.5 48 c 128,-1,71
 311 33 311 33 378 31 c 1,72,73
 382 26 382 26 382 14 c 128,-1,74
 382 2 382 2 378 -2 c 1,75,76
 272 0 272 0 235 0 c 0,77,78
 193 0 193 0 89 -2 c 1,79,80
 84 2 84 2 84 14 c 128,-1,81
 84 26 84 26 89 31 c 1,82,83
 156 33 156 33 173.5 48 c 128,-1,84
 191 63 191 63 191 127 c 2,0,-1
EndSplineSet
Substitution2: "'pnum' Proportional Numbers lookup 16 subtable" Yen.fitted
EndChar

StartChar: brokenbar
Encoding: 166 166 102
Width: 211
GlyphClass: 2
Flags: W
LayerCount: 2
Fore
SplineSet
130 674 m 1,0,-1
 130 312 l 1,1,-1
 81 312 l 1,2,-1
 81 674 l 1,3,-1
 130 674 l 1,0,-1
130 161 m 1,4,-1
 130 -201 l 1,5,-1
 81 -201 l 1,6,-1
 81 161 l 1,7,-1
 130 161 l 1,4,-1
EndSplineSet
EndChar

StartChar: section
Encoding: 167 167 103
Width: 473
GlyphClass: 2
Flags: W
LayerCount: 2
Fore
SplineSet
125 415 m 1,0,1
 80 460 80 460 80 526 c 0,2,3
 80 579 80 579 121.5 618.5 c 128,-1,4
 163 658 163 658 236 658 c 0,5,6
 302 658 302 658 338.5 625 c 128,-1,7
 375 592 375 592 375 557 c 0,8,9
 375 519 375 519 339 519 c 0,10,11
 309 519 309 519 298 560 c 0,12,13
 289 593 289 593 274.5 610 c 128,-1,14
 260 627 260 627 230 627 c 0,15,16
 195 627 195 627 172 604 c 128,-1,17
 149 581 149 581 149 546 c 0,18,19
 149 510 149 510 170.5 481.5 c 128,-1,20
 192 453 192 453 240 427 c 0,21,22
 246 424 246 424 263.5 414.5 c 128,-1,23
 281 405 281 405 288.5 401 c 128,-1,24
 296 397 296 397 313 387.5 c 128,-1,25
 330 378 330 378 338 371.5 c 128,-1,26
 346 365 346 365 360 354 c 128,-1,27
 374 343 374 343 381 333.5 c 128,-1,28
 388 324 388 324 397.5 310.5 c 128,-1,29
 407 297 407 297 411.5 283.5 c 128,-1,30
 416 270 416 270 419.5 253.5 c 128,-1,31
 423 237 423 237 423 219 c 0,32,33
 423 131 423 131 348 71 c 1,34,35
 393 26 393 26 393 -40 c 0,36,37
 393 -93 393 -93 351.5 -132.5 c 128,-1,38
 310 -172 310 -172 237 -172 c 0,39,40
 171 -172 171 -172 134.5 -139 c 128,-1,41
 98 -106 98 -106 98 -71 c 0,42,43
 98 -33 98 -33 134 -33 c 0,44,45
 164 -33 164 -33 175 -74 c 0,46,47
 184 -107 184 -107 198.5 -124 c 128,-1,48
 213 -141 213 -141 243 -141 c 0,49,50
 278 -141 278 -141 301 -118 c 128,-1,51
 324 -95 324 -95 324 -60 c 0,52,53
 324 -24 324 -24 302.5 4.5 c 128,-1,54
 281 33 281 33 233 59 c 0,55,56
 227 62 227 62 209.5 71.5 c 128,-1,57
 192 81 192 81 184.5 85 c 128,-1,58
 177 89 177 89 160 98.5 c 128,-1,59
 143 108 143 108 135 114.5 c 128,-1,60
 127 121 127 121 113 132 c 128,-1,61
 99 143 99 143 92 152.5 c 128,-1,62
 85 162 85 162 75.5 175.5 c 128,-1,63
 66 189 66 189 61.5 202.5 c 128,-1,64
 57 216 57 216 53.5 232.5 c 128,-1,65
 50 249 50 249 50 267 c 0,66,67
 50 355 50 355 125 415 c 1,0,1
327 90 m 1,68,69
 369 127 369 127 369 171 c 0,70,71
 369 248 369 248 290 303 c 0,72,73
 272 316 272 316 222 345 c 0,74,75
 175 372 175 372 146 396 c 1,76,77
 104 358 104 358 104 315 c 0,78,79
 104 288 104 288 114 264.5 c 128,-1,80
 124 241 124 241 134 226.5 c 128,-1,81
 144 212 144 212 169.5 193 c 128,-1,82
 195 174 195 174 206.5 167 c 128,-1,83
 218 160 218 160 251 141 c 0,84,85
 298 114 298 114 327 90 c 1,68,69
EndSplineSet
EndChar

StartChar: dieresis
Encoding: 168 168 104
Width: 379
GlyphClass: 2
Flags: W
LayerCount: 2
Fore
SplineSet
50 575 m 0,0,1
 50 595 50 595 64 609 c 128,-1,2
 78 623 78 623 97 623 c 128,-1,3
 116 623 116 623 130 609 c 128,-1,4
 144 595 144 595 144 575 c 0,5,6
 144 556 144 556 130 542 c 128,-1,7
 116 528 116 528 97 528 c 128,-1,8
 78 528 78 528 64 542 c 128,-1,9
 50 556 50 556 50 575 c 0,0,1
219 575 m 0,10,11
 219 595 219 595 233 609 c 128,-1,12
 247 623 247 623 266 623 c 128,-1,13
 285 623 285 623 299 609 c 128,-1,14
 313 595 313 595 313 575 c 0,15,16
 313 556 313 556 299.5 542 c 128,-1,17
 286 528 286 528 266 528 c 128,-1,18
 246 528 246 528 232.5 542 c 128,-1,19
 219 556 219 556 219 575 c 0,10,11
EndSplineSet
Substitution2: "'case' Case-Sensitive Forms lookup 27 subtable" dieresis.cap
EndChar

StartChar: copyright
Encoding: 169 169 105
Width: 695
GlyphClass: 2
Flags: W
LayerCount: 2
Fore
SplineSet
439 216 m 1,0,1
 422 190 422 190 390.5 171 c 128,-1,2
 359 152 359 152 321 152 c 0,3,4
 261 152 261 152 219 187 c 0,5,6
 165 232 165 232 165 304 c 0,7,8
 165 365 165 365 201 406 c 0,9,10
 247 457 247 457 323 457 c 0,11,12
 354 457 354 457 375.5 454 c 128,-1,13
 397 451 397 451 410.5 447 c 128,-1,14
 424 443 424 443 430 442 c 1,15,16
 432 406 432 406 430 359 c 1,17,18
 423 355 423 355 410 355 c 1,19,20
 404 371 404 371 399.5 381 c 128,-1,21
 395 391 395 391 387.5 402 c 128,-1,22
 380 413 380 413 371 419.5 c 128,-1,23
 362 426 362 426 349 430 c 128,-1,24
 336 434 336 434 319 434 c 0,25,26
 303 434 303 434 288.5 428.5 c 128,-1,27
 274 423 274 423 260.5 410 c 128,-1,28
 247 397 247 397 239.5 371.5 c 128,-1,29
 232 346 232 346 232 311 c 0,30,31
 232 256 232 256 260 218.5 c 128,-1,32
 288 181 288 181 330 181 c 0,33,34
 386 181 386 181 420 231 c 1,35,36
 430 228 430 228 439 216 c 1,0,1
321 23 m 0,37,38
 203 23 203 23 118.5 106.5 c 128,-1,39
 34 190 34 190 34 306 c 0,40,41
 34 383 34 383 73 448 c 128,-1,42
 112 513 112 513 178 550.5 c 128,-1,43
 244 588 244 588 321 588 c 0,44,45
 438 588 438 588 523 505.5 c 128,-1,46
 608 423 608 423 608 306 c 128,-1,47
 608 189 608 189 523 106 c 128,-1,48
 438 23 438 23 321 23 c 0,37,38
321 556 m 0,49,50
 216 556 216 556 145 483.5 c 128,-1,51
 74 411 74 411 74 306 c 0,52,53
 74 202 74 202 145.5 128.5 c 128,-1,54
 217 55 217 55 321 55 c 0,55,56
 424 55 424 55 496 128.5 c 128,-1,57
 568 202 568 202 568 306 c 0,58,59
 568 357 568 357 549 403.5 c 128,-1,60
 530 450 530 450 497 483.5 c 128,-1,61
 464 517 464 517 418 536.5 c 128,-1,62
 372 556 372 556 321 556 c 0,49,50
EndSplineSet
EndChar

StartChar: ordfeminine
Encoding: 170 170 106
Width: 307
GlyphClass: 2
Flags: W
LayerCount: 2
Fore
SplineSet
192 502 m 1,0,1
 129 486 129 486 106 470.5 c 128,-1,2
 83 455 83 455 83 431 c 0,3,4
 83 390 83 390 128 390 c 0,5,6
 155 390 155 390 192 423 c 1,7,-1
 192 502 l 1,0,1
235 358 m 0,8,9
 218 358 218 358 207 370 c 128,-1,10
 196 382 196 382 193 397 c 1,11,12
 167 374 167 374 149.5 366 c 128,-1,13
 132 358 132 358 108 358 c 0,14,15
 76 358 76 358 53.5 377.5 c 128,-1,16
 31 397 31 397 31 428 c 0,17,18
 31 488 31 488 134 514 c 2,19,-1
 192 529 l 1,20,21
 192 612 192 612 138 612 c 0,22,23
 113 612 113 612 98.5 604.5 c 128,-1,24
 84 597 84 597 84 585 c 0,25,26
 84 576 84 576 86 572 c 128,-1,27
 88 568 88 568 88 560 c 0,28,29
 88 553 88 553 81.5 546 c 128,-1,30
 75 539 75 539 62 539 c 0,31,32
 51 539 51 539 43.5 546 c 128,-1,33
 36 553 36 553 36 564 c 0,34,35
 36 592 36 592 71 614.5 c 128,-1,36
 106 637 106 637 140 637 c 0,37,38
 246 637 246 637 246 523 c 2,39,-1
 246 448 l 2,40,41
 246 391 246 391 260 391 c 0,42,43
 267 391 267 391 272 396 c 1,44,45
 283 392 283 392 282 380 c 1,46,47
 262 358 262 358 235 358 c 0,8,9
EndSplineSet
EndChar

StartChar: guillemotleft
Encoding: 171 171 107
Width: 543
GlyphClass: 2
Flags: W
LayerCount: 2
Fore
SplineSet
156 215 m 1,0,1
 215 148 215 148 283 45 c 1,2,3
 279 28 279 28 259 26 c 1,4,5
 157 136 157 136 74 209 c 1,6,-1
 74 221 l 1,7,8
 157 294 157 294 259 404 c 1,9,10
 279 402 279 402 283 385 c 1,11,12
 215 282 215 282 156 215 c 1,0,1
336 215 m 1,13,14
 395 148 395 148 463 45 c 1,15,16
 459 28 459 28 439 26 c 1,17,18
 337 136 337 136 254 209 c 1,19,-1
 254 221 l 1,20,21
 337 294 337 294 439 404 c 1,22,23
 459 402 459 402 463 385 c 1,24,25
 395 282 395 282 336 215 c 1,13,14
EndSplineSet
Substitution2: "'case' Case-Sensitive Forms lookup 27 subtable" guillemotleft.sc
Substitution2: "'c2sc' Capitals to Small Capitals lookup 9 subtable" guillemotleft.sc
AlternateSubs2: "'aalt' Access All Alternates lookup 0 subtable" guillemotleft.sc
EndChar

StartChar: logicalnot
Encoding: 172 172 108
Width: 599
GlyphClass: 2
Flags: W
LayerCount: 2
Fore
SplineSet
499 99 m 1,0,-1
 499 323 l 1,1,-1
 40 323 l 1,2,3
 33 348 33 348 40 367 c 1,4,-1
 553 367 l 1,5,-1
 553 99 l 1,6,7
 523 88 523 88 499 99 c 1,0,-1
EndSplineSet
EndChar

StartChar: uni00AD
Encoding: 173 173 109
Width: 338
GlyphClass: 2
Flags: W
LayerCount: 2
Fore
SplineSet
271 223 m 2,0,-1
 55 223 l 2,1,2
 40 223 40 223 40 242 c 0,3,4
 40 256 40 256 48 269.5 c 128,-1,5
 56 283 56 283 65 283 c 2,6,-1
 284 283 l 2,7,8
 298 283 298 283 298 263 c 0,9,10
 298 253 298 253 289 238 c 128,-1,11
 280 223 280 223 271 223 c 2,0,-1
EndSplineSet
EndChar

StartChar: registered
Encoding: 174 174 110
Width: 695
GlyphClass: 2
Flags: W
LayerCount: 2
Fore
SplineSet
376 370 m 0,0,1
 376 421 376 421 326 421 c 0,2,3
 308 421 308 421 297 411 c 128,-1,4
 286 401 286 401 286 387 c 2,5,-1
 286 312 l 1,6,-1
 328 312 l 2,7,8
 352 312 352 312 364 324.5 c 128,-1,9
 376 337 376 337 376 370 c 0,0,1
263 443 m 0,10,11
 270 443 270 443 297 444 c 128,-1,12
 324 445 324 445 335 445 c 0,13,14
 385 445 385 445 407.5 422 c 128,-1,15
 430 399 430 399 430 370 c 0,16,17
 430 342 430 342 414 323 c 128,-1,18
 398 304 398 304 373 296 c 1,19,-1
 421 214 l 2,20,21
 438 185 438 185 464 190 c 1,22,23
 470 184 470 184 468 173 c 1,24,25
 451 166 451 166 432 166 c 0,26,27
 393 166 393 166 371 204 c 2,28,-1
 323 284 l 1,29,30
 318 288 318 288 286 288 c 1,31,-1
 286 232 l 2,32,33
 286 208 286 208 293.5 200.5 c 128,-1,34
 301 193 301 193 326 191 c 1,35,36
 329 188 329 188 329 179 c 128,-1,37
 329 170 329 170 326 167 c 1,38,39
 290 169 290 169 263 169 c 0,40,41
 235 169 235 169 199 167 c 1,42,43
 196 170 196 170 196 179 c 128,-1,44
 196 188 196 188 199 191 c 1,45,46
 224 193 224 193 231.5 200.5 c 128,-1,47
 239 208 239 208 239 232 c 2,48,-1
 239 380 l 2,49,50
 239 404 239 404 231.5 411.5 c 128,-1,51
 224 419 224 419 199 421 c 1,52,53
 196 424 196 424 196 433 c 128,-1,54
 196 442 196 442 199 445 c 1,55,56
 235 443 235 443 263 443 c 0,10,11
321 23 m 0,57,58
 203 23 203 23 118.5 106.5 c 128,-1,59
 34 190 34 190 34 306 c 0,60,61
 34 423 34 423 119 505.5 c 128,-1,62
 204 588 204 588 321 588 c 128,-1,63
 438 588 438 588 523 505.5 c 128,-1,64
 608 423 608 423 608 306 c 128,-1,65
 608 189 608 189 523 106 c 128,-1,66
 438 23 438 23 321 23 c 0,57,58
321 556 m 0,67,68
 216 556 216 556 145 483.5 c 128,-1,69
 74 411 74 411 74 306 c 0,70,71
 74 202 74 202 145.5 128.5 c 128,-1,72
 217 55 217 55 321 55 c 0,73,74
 424 55 424 55 496 128.5 c 128,-1,75
 568 202 568 202 568 306 c 0,76,77
 568 411 568 411 496.5 483.5 c 128,-1,78
 425 556 425 556 321 556 c 0,67,68
EndSplineSet
EndChar

StartChar: macron
Encoding: 175 175 111
Width: 397
GlyphClass: 2
Flags: W
LayerCount: 2
Fore
SplineSet
315 529 m 2,0,-1
 71 529 l 2,1,2
 59 529 59 529 59 544 c 0,3,4
 59 554 59 554 65.5 563.5 c 128,-1,5
 72 573 72 573 81 573 c 2,6,-1
 325 573 l 2,7,8
 339 573 339 573 339 559 c 0,9,10
 339 549 339 549 331.5 539 c 128,-1,11
 324 529 324 529 315 529 c 2,0,-1
EndSplineSet
EndChar

StartChar: degree
Encoding: 176 176 112
Width: 267
GlyphClass: 2
Flags: W
LayerCount: 2
Fore
SplineSet
199 508 m 0,0,1
 199 536 199 536 182 558 c 128,-1,2
 165 580 165 580 134 580 c 128,-1,3
 103 580 103 580 85.5 558.5 c 128,-1,4
 68 537 68 537 68 508 c 0,5,6
 68 480 68 480 86 459.5 c 128,-1,7
 104 439 104 439 134 439 c 0,8,9
 163 439 163 439 181 460 c 128,-1,10
 199 481 199 481 199 508 c 0,0,1
34 509 m 0,11,12
 34 551 34 551 63.5 580.5 c 128,-1,13
 93 610 93 610 134 610 c 128,-1,14
 175 610 175 610 204 580.5 c 128,-1,15
 233 551 233 551 233 509 c 0,16,17
 233 468 233 468 204 438.5 c 128,-1,18
 175 409 175 409 134 409 c 128,-1,19
 93 409 93 409 63.5 438.5 c 128,-1,20
 34 468 34 468 34 509 c 0,11,12
EndSplineSet
EndChar

StartChar: plusminus
Encoding: 177 177 113
Width: 550
GlyphClass: 2
Flags: W
LayerCount: 2
Fore
SplineSet
250 520 m 2,0,1
 250 529 250 529 262.5 538 c 128,-1,2
 275 547 275 547 283 547 c 0,3,4
 300 547 300 547 300 533 c 2,5,-1
 300 361 l 1,6,-1
 476 361 l 2,7,8
 490 361 490 361 490 344 c 0,9,10
 490 336 490 336 481 323.5 c 128,-1,11
 472 311 472 311 463 311 c 2,12,-1
 300 311 l 1,13,-1
 300 151 l 2,14,15
 300 142 300 142 288.5 134 c 128,-1,16
 277 126 277 126 266 126 c 0,17,18
 250 126 250 126 250 141 c 2,19,-1
 250 311 l 1,20,-1
 75 311 l 2,21,22
 60 311 60 311 60 327 c 0,23,24
 60 338 60 338 68 349.5 c 128,-1,25
 76 361 76 361 85 361 c 2,26,-1
 250 361 l 1,27,-1
 250 520 l 2,0,1
463 37 m 2,28,-1
 75 37 l 2,29,30
 60 37 60 37 60 53 c 0,31,32
 60 64 60 64 68 75.5 c 128,-1,33
 76 87 76 87 85 87 c 2,34,-1
 476 87 l 2,35,36
 490 87 490 87 490 70 c 0,37,38
 490 62 490 62 481 49.5 c 128,-1,39
 472 37 472 37 463 37 c 2,28,-1
EndSplineSet
EndChar

StartChar: two.superior
Encoding: 178 178 114
Width: 307
GlyphClass: 2
Flags: W
LayerCount: 2
Fore
SplineSet
73 587 m 0,0,1
 64 587 64 587 55.5 594.5 c 128,-1,2
 47 602 47 602 47 611 c 0,3,4
 47 637 47 637 74 662.5 c 128,-1,5
 101 688 101 688 154 688 c 0,6,7
 198 688 198 688 230 668.5 c 128,-1,8
 262 649 262 649 262 605 c 0,9,10
 262 573 262 573 240.5 546 c 128,-1,11
 219 519 219 519 173 486 c 0,12,13
 122 449 122 449 107 396 c 1,14,-1
 190 396 l 2,15,16
 201 396 201 396 210 401.5 c 128,-1,17
 219 407 219 407 226 420 c 128,-1,18
 233 433 233 433 236.5 440 c 128,-1,19
 240 447 240 447 246 463 c 1,20,21
 262 463 262 463 270 458 c 1,22,23
 263 403 263 403 251 364 c 1,24,-1
 45 364 l 1,25,26
 45 425 45 425 131 491 c 1,27,28
 169 522 169 522 184.5 544.5 c 128,-1,29
 200 567 200 567 200 604 c 0,30,31
 200 658 200 658 150 658 c 0,32,33
 111 658 111 658 102 637 c 0,34,35
 100 632 100 632 100 622 c 128,-1,36
 100 612 100 612 100 608 c 0,37,38
 96 587 96 587 73 587 c 0,0,1
EndSplineSet
EndChar

StartChar: three.superior
Encoding: 179 179 115
Width: 307
GlyphClass: 2
Flags: W
LayerCount: 2
Fore
SplineSet
186 624 m 0,0,1
 186 642 186 642 174.5 650 c 128,-1,2
 163 658 163 658 148 658 c 128,-1,3
 133 658 133 658 117 651.5 c 128,-1,4
 101 645 101 645 96 634 c 0,5,6
 95 632 95 632 93 625 c 128,-1,7
 91 618 91 618 89.5 615 c 128,-1,8
 88 612 88 612 82.5 608.5 c 128,-1,9
 77 605 77 605 69 605 c 0,10,11
 60 605 60 605 54.5 609 c 128,-1,12
 49 613 49 613 47.5 617 c 128,-1,13
 46 621 46 621 46 623 c 0,14,15
 46 634 46 634 55.5 647.5 c 128,-1,16
 65 661 65 661 92.5 674.5 c 128,-1,17
 120 688 120 688 160 688 c 0,18,19
 199 688 199 688 222 672.5 c 128,-1,20
 245 657 245 657 245 629 c 0,21,22
 245 589 245 589 194 561 c 1,23,24
 224 558 224 558 249 535.5 c 128,-1,25
 274 513 274 513 274 473 c 0,26,27
 274 422 274 422 235 390 c 128,-1,28
 196 358 196 358 135 358 c 0,29,30
 106 358 106 358 72 369 c 128,-1,31
 38 380 38 380 38 401 c 0,32,33
 38 410 38 410 45.5 416.5 c 128,-1,34
 53 423 53 423 63 423 c 0,35,36
 84 423 84 423 93 406 c 0,37,38
 102 388 102 388 139 388 c 0,39,40
 168 388 168 388 190 405 c 128,-1,41
 212 422 212 422 212 465 c 0,42,43
 212 526 212 526 137 526 c 0,44,45
 133 526 133 526 117 524 c 1,46,47
 110 533 110 533 115 551 c 1,48,49
 186 561 186 561 186 624 c 0,0,1
EndSplineSet
EndChar

StartChar: acute
Encoding: 180 180 116
Width: 341
GlyphClass: 2
Flags: W
LayerCount: 2
Fore
SplineSet
175 703 m 1,0,1
 181 705 181 705 189 705 c 0,2,3
 220 705 220 705 244 682 c 1,4,-1
 247 671 l 1,5,-1
 132 562 l 2,6,7
 113 543 113 543 102 543 c 0,8,9
 97 543 97 543 92.5 547 c 128,-1,10
 88 551 88 551 88 556 c 0,11,12
 88 566 88 566 99 584 c 2,13,-1
 175 703 l 1,0,1
EndSplineSet
Substitution2: "'case' Case-Sensitive Forms lookup 27 subtable" uni0359
EndChar

StartChar: uni00B5
Encoding: 181 181 117
Width: 515
GlyphClass: 2
Flags: W
LayerCount: 2
Fore
SplineSet
340 60 m 1,0,1
 278 -10 278 -10 194 -10 c 0,2,3
 150 -10 150 -10 129 13 c 1,4,5
 116 13 116 13 116 4 c 0,6,7
 116 -31 116 -31 133 -93 c 128,-1,8
 150 -155 150 -155 150 -174 c 0,9,10
 150 -203 150 -203 138 -218.5 c 128,-1,11
 126 -234 126 -234 107 -234 c 0,12,13
 91 -234 91 -234 70.5 -215.5 c 128,-1,14
 50 -197 50 -197 50 -169 c 0,15,16
 50 -145 50 -145 58 -93 c 128,-1,17
 66 -41 66 -41 66 -8 c 0,18,19
 66 5 66 5 61.5 53.5 c 128,-1,20
 57 102 57 102 57 134 c 2,21,-1
 57 322 l 1,22,-1
 46 429 l 1,23,24
 60 429 60 429 92 433.5 c 128,-1,25
 124 438 124 438 133 439 c 1,26,27
 136 375 136 375 136 343 c 2,28,-1
 136 147 l 2,29,30
 136 35 136 35 209 35 c 0,31,32
 247 35 247 35 285 57 c 128,-1,33
 323 79 323 79 342 107 c 1,34,-1
 342 429 l 1,35,36
 357 429 357 429 386.5 433.5 c 128,-1,37
 416 438 416 438 421 439 c 1,38,-1
 421 121 l 2,39,40
 421 92 421 92 422.5 76.5 c 128,-1,41
 424 61 424 61 434 47.5 c 128,-1,42
 444 34 444 34 463 34 c 0,43,44
 478 34 478 34 488 42 c 2,45,-1
 498 50 l 1,46,47
 501 50 501 50 505.5 45 c 128,-1,48
 510 40 510 40 510 35 c 0,49,50
 510 31 510 31 499.5 21 c 128,-1,51
 489 11 489 11 467 0.5 c 128,-1,52
 445 -10 445 -10 422 -10 c 0,53,54
 350 -10 350 -10 342 60 c 1,55,-1
 340 60 l 1,0,1
EndSplineSet
EndChar

StartChar: pilcrow
Encoding: 182 182 118
Width: 602
GlyphClass: 2
Flags: W
LayerCount: 2
Fore
SplineSet
367 574 m 2,0,-1
 367 -161 l 2,1,2
 367 -199 367 -199 407 -199 c 0,3,4
 448 -199 448 -199 448 -161 c 2,5,-1
 448 574 l 2,6,7
 448 612 448 612 407 612 c 0,8,9
 367 612 367 612 367 574 c 2,0,-1
408 645 m 0,10,11
 538 645 538 645 585 647 c 1,12,-1
 587 645 l 1,13,-1
 587 626 l 2,14,15
 587 619 587 619 579 618 c 2,16,-1
 553 616 l 2,17,18
 522 614 522 614 510 605 c 128,-1,19
 498 596 498 596 498 574 c 2,20,-1
 498 -161 l 2,21,22
 498 -183 498 -183 510 -192 c 128,-1,23
 522 -201 522 -201 553 -203 c 2,24,-1
 579 -205 l 2,25,26
 587 -206 587 -206 587 -213 c 2,27,-1
 587 -232 l 1,28,-1
 585 -234 l 1,29,30
 537 -232 537 -232 408 -232 c 0,31,32
 280 -232 280 -232 231 -234 c 1,33,-1
 229 -232 l 1,34,-1
 229 -213 l 2,35,36
 229 -206 229 -206 236 -205 c 2,37,-1
 263 -203 l 2,38,39
 294 -201 294 -201 305.5 -191.5 c 128,-1,40
 317 -182 317 -182 317 -161 c 2,41,-1
 317 285 l 1,42,43
 304 282 304 282 285 282 c 0,44,45
 174 282 174 282 115.5 332 c 128,-1,46
 57 382 57 382 57 481 c 0,47,48
 57 547 57 547 106 597 c 128,-1,49
 155 647 155 647 247 647 c 0,50,51
 290 647 290 647 345 646 c 128,-1,52
 400 645 400 645 408 645 c 0,10,11
EndSplineSet
EndChar

StartChar: periodcentered
Encoding: 183 183 119
Width: 250
GlyphClass: 2
Flags: W
LayerCount: 2
Fore
SplineSet
125 199 m 128,-1,1
 104 199 104 199 87.5 215.5 c 128,-1,2
 71 232 71 232 71 253 c 128,-1,3
 71 274 71 274 87.5 290.5 c 128,-1,4
 104 307 104 307 125 307 c 128,-1,5
 146 307 146 307 162.5 290.5 c 128,-1,6
 179 274 179 274 179 253 c 128,-1,7
 179 232 179 232 162.5 215.5 c 128,-1,0
 146 199 146 199 125 199 c 128,-1,1
EndSplineSet
EndChar

StartChar: cedilla
Encoding: 184 184 120
Width: 541
GlyphClass: 4
Flags: W
AnchorPoint: "Anchor-5" 306 -2 mark 0
LayerCount: 2
Fore
SplineSet
302 -96 m 0,0,1
 276 -96 276 -96 257 -102 c 1,2,-1
 251 -96 l 1,3,-1
 291 0 l 1,4,-1
 325 0 l 1,5,-1
 300 -67 l 1,6,7
 312 -64 312 -64 326 -64 c 0,8,9
 357 -64 357 -64 377 -81 c 128,-1,10
 397 -98 397 -98 397 -126 c 0,11,12
 397 -158 397 -158 366.5 -179 c 128,-1,13
 336 -200 336 -200 290 -200 c 0,14,15
 255 -200 255 -200 216 -183 c 1,16,17
 216 -167 216 -167 226 -157 c 1,18,19
 264 -171 264 -171 284 -171 c 0,20,21
 307 -171 307 -171 321 -160.5 c 128,-1,22
 335 -150 335 -150 335 -131 c 0,23,24
 335 -96 335 -96 302 -96 c 0,0,1
EndSplineSet
EndChar

StartChar: one.superior
Encoding: 185 185 121
Width: 307
GlyphClass: 2
Flags: W
LayerCount: 2
Fore
SplineSet
135 620 m 0,0,1
 120 620 120 620 78 605 c 1,2,3
 68 613 68 613 68 632 c 1,4,5
 131 655 131 655 185 688 c 0,6,7
 196 694 196 694 203 688 c 1,8,-1
 203 449 l 2,9,10
 203 430 203 430 206.5 419 c 128,-1,11
 210 408 210 408 218.5 402.5 c 128,-1,12
 227 397 227 397 235 395.5 c 128,-1,13
 243 394 243 394 258 393 c 1,14,15
 266 378 266 378 258 364 c 1,16,17
 228 365 228 365 174 365 c 0,18,19
 108 365 108 365 78 364 c 1,20,21
 69 378 69 378 78 393 c 1,22,23
 103 394 103 394 115.5 397 c 128,-1,24
 128 400 128 400 138.5 412.5 c 128,-1,25
 149 425 149 425 149 449 c 2,26,-1
 149 579 l 2,27,28
 149 604 149 604 146.5 612 c 128,-1,29
 144 620 144 620 135 620 c 0,0,1
EndSplineSet
EndChar

StartChar: ordmasculine
Encoding: 186 186 122
Width: 349
GlyphClass: 2
Flags: W
LayerCount: 2
Fore
SplineSet
39 429 m 0,0,1
 39 490 39 490 77 528 c 128,-1,2
 115 566 115 566 179 566 c 0,3,4
 241 566 241 566 276 528 c 128,-1,5
 311 490 311 490 311 435 c 0,6,7
 311 382 311 382 274.5 342.5 c 128,-1,8
 238 303 238 303 172 303 c 0,9,10
 116 303 116 303 77.5 339.5 c 128,-1,11
 39 376 39 376 39 429 c 0,0,1
171 540 m 0,12,13
 135 540 135 540 116 511 c 128,-1,14
 97 482 97 482 97 439 c 0,15,16
 97 397 97 397 119 363 c 128,-1,17
 141 329 141 329 183 329 c 0,18,19
 209 329 209 329 231 350 c 128,-1,20
 253 371 253 371 253 419 c 0,21,22
 253 478 253 478 231 509 c 128,-1,23
 209 540 209 540 171 540 c 0,12,13
EndSplineSet
EndChar

StartChar: guillemotright
Encoding: 187 187 123
Width: 543
GlyphClass: 2
Flags: W
LayerCount: 2
Fore
SplineSet
387 215 m 1,0,1
 328 282 328 282 260 385 c 1,2,3
 264 402 264 402 284 404 c 1,4,5
 386 294 386 294 469 221 c 1,6,-1
 469 209 l 1,7,8
 386 136 386 136 284 26 c 1,9,10
 264 28 264 28 260 45 c 1,11,12
 328 148 328 148 387 215 c 1,0,1
207 215 m 1,13,14
 148 282 148 282 80 385 c 1,15,16
 84 402 84 402 104 404 c 1,17,18
 206 294 206 294 289 221 c 1,19,-1
 289 209 l 1,20,21
 206 136 206 136 104 26 c 1,22,23
 84 28 84 28 80 45 c 1,24,25
 148 148 148 148 207 215 c 1,13,14
EndSplineSet
Substitution2: "'case' Case-Sensitive Forms lookup 27 subtable" guillemotright.sc
Substitution2: "'c2sc' Capitals to Small Capitals lookup 9 subtable" guillemotright.sc
AlternateSubs2: "'aalt' Access All Alternates lookup 0 subtable" guillemotright.sc
EndChar

StartChar: onequarter
Encoding: 188 188 124
Width: 660
GlyphClass: 3
LigCaretCntFixed: 1
Flags: W
LayerCount: 2
Fore
SplineSet
557 601 m 1,0,-1
 598 593 l 1,1,-1
 140 -62 l 1,2,-1
 98 -54 l 1,3,-1
 557 601 l 1,0,-1
528 192 m 1,4,5
 509 168 509 168 487 138.5 c 128,-1,6
 465 109 465 109 449 84.5 c 128,-1,7
 433 60 433 60 430 52 c 1,8,-1
 528 52 l 1,9,-1
 528 192 l 1,4,5
528 -6 m 2,10,-1
 528 18 l 1,11,-1
 409 18 l 2,12,13
 381 18 381 18 390 46 c 1,14,15
 393 52 393 52 400 63 c 0,16,17
 435 121 435 121 512 210 c 0,18,19
 529 230 529 230 548 241 c 0,20,21
 549 242 549 242 561 242 c 0,22,23
 580 242 580 242 580 232 c 2,24,-1
 580 52 l 1,25,-1
 636 52 l 1,26,-1
 630 18 l 1,27,-1
 580 18 l 1,28,-1
 580 -6 l 2,29,30
 580 -34 580 -34 591 -42 c 128,-1,31
 602 -50 602 -50 631 -52 c 1,32,33
 639 -67 639 -67 631 -81 c 1,34,35
 601 -80 601 -80 553 -80 c 128,-1,36
 505 -80 505 -80 475 -81 c 1,37,38
 466 -67 466 -67 475 -52 c 1,39,40
 507 -50 507 -50 517.5 -42.5 c 128,-1,41
 528 -35 528 -35 528 -6 c 2,10,-1
132 571 m 0,42,43
 117 571 117 571 75 556 c 1,44,45
 65 564 65 564 65 583 c 1,46,47
 128 606 128 606 182 639 c 0,48,49
 193 645 193 645 200 639 c 1,50,-1
 200 400 l 2,51,52
 200 381 200 381 203.5 370 c 128,-1,53
 207 359 207 359 215.5 353.5 c 128,-1,54
 224 348 224 348 232 346.5 c 128,-1,55
 240 345 240 345 255 344 c 1,56,57
 263 329 263 329 255 315 c 1,58,59
 225 316 225 316 171 316 c 0,60,61
 105 316 105 316 75 315 c 1,62,63
 66 329 66 329 75 344 c 1,64,65
 100 345 100 345 112.5 348 c 128,-1,66
 125 351 125 351 135.5 363.5 c 128,-1,67
 146 376 146 376 146 400 c 2,68,-1
 146 530 l 2,69,70
 146 555 146 555 143.5 563 c 128,-1,71
 141 571 141 571 132 571 c 0,42,43
EndSplineSet
MultipleSubs2: "Multiple Substitution lookup 32 subtable" space onequarter
Ligature2: "'frac' Diagonal Fractions lookup 6 subtable" one slash four
LCarets2: 2 215 424 
EndChar

StartChar: onehalf
Encoding: 189 189 125
Width: 660
GlyphClass: 3
LigCaretCntFixed: 1
Flags: W
LayerCount: 2
Fore
SplineSet
532 601 m 1,0,-1
 574 593 l 1,1,-1
 115 -62 l 1,2,-1
 74 -54 l 1,3,-1
 532 601 l 1,0,-1
431 144 m 0,4,5
 422 144 422 144 413.5 151.5 c 128,-1,6
 405 159 405 159 405 168 c 0,7,8
 405 194 405 194 432 219.5 c 128,-1,9
 459 245 459 245 512 245 c 0,10,11
 556 245 556 245 588 225.5 c 128,-1,12
 620 206 620 206 620 162 c 0,13,14
 620 130 620 130 598.5 103 c 128,-1,15
 577 76 577 76 531 43 c 0,16,17
 480 6 480 6 465 -47 c 1,18,-1
 548 -47 l 2,19,20
 559 -47 559 -47 568 -41.5 c 128,-1,21
 577 -36 577 -36 584 -23 c 128,-1,22
 591 -10 591 -10 594.5 -3 c 128,-1,23
 598 4 598 4 604 20 c 1,24,25
 620 20 620 20 628 15 c 1,26,27
 621 -40 621 -40 609 -79 c 1,28,-1
 403 -79 l 1,29,30
 403 -18 403 -18 489 48 c 1,31,32
 527 79 527 79 542.5 101.5 c 128,-1,33
 558 124 558 124 558 161 c 0,34,35
 558 215 558 215 508 215 c 0,36,37
 469 215 469 215 460 194 c 0,38,39
 458 189 458 189 458 179 c 128,-1,40
 458 169 458 169 458 165 c 0,41,42
 454 144 454 144 431 144 c 0,4,5
134 571 m 0,43,44
 119 571 119 571 77 556 c 1,45,46
 67 564 67 564 67 583 c 1,47,48
 130 606 130 606 184 639 c 0,49,50
 195 645 195 645 202 639 c 1,51,-1
 202 400 l 2,52,53
 202 381 202 381 205.5 370 c 128,-1,54
 209 359 209 359 217.5 353.5 c 128,-1,55
 226 348 226 348 234 346.5 c 128,-1,56
 242 345 242 345 257 344 c 1,57,58
 265 329 265 329 257 315 c 1,59,60
 227 316 227 316 173 316 c 0,61,62
 107 316 107 316 77 315 c 1,63,64
 68 329 68 329 77 344 c 1,65,66
 102 345 102 345 114.5 348 c 128,-1,67
 127 351 127 351 137.5 363.5 c 128,-1,68
 148 376 148 376 148 400 c 2,69,-1
 148 530 l 2,70,71
 148 555 148 555 145.5 563 c 128,-1,72
 143 571 143 571 134 571 c 0,43,44
EndSplineSet
MultipleSubs2: "Multiple Substitution lookup 32 subtable" space onehalf
Ligature2: "'frac' Diagonal Fractions lookup 6 subtable" one slash two
LCarets2: 2 208 414 
EndChar

StartChar: threequarters
Encoding: 190 190 126
Width: 660
GlyphClass: 3
LigCaretCntFixed: 1
Flags: W
LayerCount: 2
Fore
SplineSet
562 601 m 1,0,-1
 603 593 l 1,1,-1
 145 -62 l 1,2,-1
 103 -54 l 1,3,-1
 562 601 l 1,0,-1
184 573 m 0,4,5
 184 591 184 591 172.5 599 c 128,-1,6
 161 607 161 607 146 607 c 128,-1,7
 131 607 131 607 115 600.5 c 128,-1,8
 99 594 99 594 94 583 c 0,9,10
 93 581 93 581 91 574 c 128,-1,11
 89 567 89 567 87.5 564 c 128,-1,12
 86 561 86 561 80.5 557.5 c 128,-1,13
 75 554 75 554 67 554 c 0,14,15
 58 554 58 554 52.5 558 c 128,-1,16
 47 562 47 562 45.5 566 c 128,-1,17
 44 570 44 570 44 572 c 0,18,19
 44 583 44 583 53.5 596.5 c 128,-1,20
 63 610 63 610 90.5 623.5 c 128,-1,21
 118 637 118 637 158 637 c 0,22,23
 197 637 197 637 220 621.5 c 128,-1,24
 243 606 243 606 243 578 c 0,25,26
 243 538 243 538 192 510 c 1,27,28
 222 507 222 507 247 484.5 c 128,-1,29
 272 462 272 462 272 422 c 0,30,31
 272 371 272 371 233 339 c 128,-1,32
 194 307 194 307 133 307 c 0,33,34
 104 307 104 307 70 318 c 128,-1,35
 36 329 36 329 36 350 c 0,36,37
 36 359 36 359 43.5 365.5 c 128,-1,38
 51 372 51 372 61 372 c 0,39,40
 82 372 82 372 91 355 c 0,41,42
 100 337 100 337 137 337 c 0,43,44
 166 337 166 337 188 354 c 128,-1,45
 210 371 210 371 210 414 c 0,46,47
 210 475 210 475 135 475 c 0,48,49
 131 475 131 475 115 473 c 1,50,51
 108 482 108 482 113 500 c 1,52,53
 184 510 184 510 184 573 c 0,4,5
532 194 m 1,54,55
 502 156 502 156 470.5 111.5 c 128,-1,56
 439 67 439 67 434 54 c 1,57,-1
 532 54 l 1,58,-1
 532 194 l 1,54,55
532 -4 m 2,59,-1
 532 20 l 1,60,-1
 413 20 l 2,61,62
 385 20 385 20 394 48 c 1,63,64
 397 54 397 54 404 65 c 0,65,66
 439 123 439 123 516 212 c 0,67,68
 533 232 533 232 552 243 c 0,69,70
 553 244 553 244 565 244 c 0,71,72
 584 244 584 244 584 234 c 2,73,-1
 584 54 l 1,74,-1
 640 54 l 1,75,-1
 634 20 l 1,76,-1
 584 20 l 1,77,-1
 584 -4 l 2,78,79
 584 -32 584 -32 595 -40 c 128,-1,80
 606 -48 606 -48 635 -50 c 1,81,82
 643 -65 643 -65 635 -79 c 1,83,84
 605 -78 605 -78 557 -78 c 128,-1,85
 509 -78 509 -78 479 -79 c 1,86,87
 470 -65 470 -65 479 -50 c 1,88,89
 511 -48 511 -48 521.5 -40.5 c 128,-1,90
 532 -33 532 -33 532 -4 c 2,59,-1
EndSplineSet
MultipleSubs2: "Multiple Substitution lookup 32 subtable" space threequarters
Ligature2: "'frac' Diagonal Fractions lookup 6 subtable" three slash four
LCarets2: 2 260 447 
EndChar

StartChar: questiondown
Encoding: 191 191 127
Width: 435
GlyphClass: 2
Flags: W
LayerCount: 2
Fore
SplineSet
321 -143 m 0,0,1
 321 -124 321 -124 315 -117 c 128,-1,2
 309 -110 309 -110 309 -93 c 0,3,4
 309 -77 309 -77 321 -67.5 c 128,-1,5
 333 -58 333 -58 348 -58 c 0,6,7
 364 -58 364 -58 376.5 -68 c 128,-1,8
 389 -78 389 -78 389 -101 c 0,9,10
 389 -150 389 -150 338 -191 c 1,11,12
 293 -230 293 -230 214 -230 c 0,13,14
 138 -230 138 -230 92 -188.5 c 128,-1,15
 46 -147 46 -147 46 -79 c 0,16,17
 46 -51 46 -51 55 -27 c 128,-1,18
 64 -3 64 -3 84 17.5 c 128,-1,19
 104 38 104 38 117 49 c 128,-1,20
 130 60 130 60 155 78 c 0,21,22
 197 109 197 109 207 128 c 0,23,24
 221 155 221 155 221 201 c 2,25,-1
 221 245 l 2,26,27
 221 255 221 255 238 255 c 0,28,29
 254 255 254 255 254 245 c 2,30,-1
 254 199 l 2,31,32
 254 102 254 102 184 38 c 0,33,34
 154 10 154 10 141.5 -15 c 128,-1,35
 129 -40 129 -40 129 -75 c 0,36,37
 129 -125 129 -125 155.5 -161 c 128,-1,38
 182 -197 182 -197 224 -197 c 128,-1,39
 266 -197 266 -197 293.5 -181.5 c 128,-1,40
 321 -166 321 -166 321 -143 c 0,0,1
291 386 m 128,-1,42
 291 364 291 364 275.5 348.5 c 128,-1,43
 260 333 260 333 238 333 c 128,-1,44
 216 333 216 333 200.5 348.5 c 128,-1,45
 185 364 185 364 185 386 c 128,-1,46
 185 408 185 408 200.5 423.5 c 128,-1,47
 216 439 216 439 238 439 c 128,-1,48
 260 439 260 439 275.5 423.5 c 128,-1,41
 291 408 291 408 291 386 c 128,-1,42
EndSplineSet
Substitution2: "'case' Case-Sensitive Forms lookup 27 subtable" questiondown.sc
Substitution2: "'c2sc' Capitals to Small Capitals lookup 9 subtable" questiondown.sc
AlternateSubs2: "'aalt' Access All Alternates lookup 0 subtable" questiondown.sc
EndChar

StartChar: Agrave
Encoding: 192 192 128
Width: 695
GlyphClass: 2
Flags: W
LayerCount: 2
Fore
SplineSet
286 818 m 1,0,-1
 407 734 l 2,1,2
 422 723 422 723 422 713 c 0,3,4
 422 707 422 707 417.5 702.5 c 128,-1,5
 413 698 413 698 407 698 c 0,6,7
 392 698 392 698 364 710 c 2,8,-1
 210 773 l 1,9,10
 241 803 241 803 286 818 c 1,0,-1
265 283 m 2,11,-1
 442 283 l 1,12,-1
 348 555 l 1,13,-1
 342 555 l 1,14,-1
 240 296 l 2,15,16
 237 289 237 289 242.5 286 c 128,-1,17
 248 283 248 283 265 283 c 2,11,-1
157 79 m 1,18,19
 156 69 156 69 154 61.5 c 128,-1,20
 152 54 152 54 159.5 49 c 128,-1,21
 167 44 167 44 171.5 41 c 128,-1,22
 176 38 176 38 188 35.5 c 128,-1,23
 200 33 200 33 207 32.5 c 128,-1,24
 214 32 214 32 226 31 c 1,25,26
 230 26 230 26 230 14 c 128,-1,27
 230 2 230 2 226 -2 c 1,28,29
 152 0 152 0 98 0 c 0,30,31
 61 0 61 0 9 -2 c 1,32,33
 4 2 4 2 4 14 c 128,-1,34
 4 26 4 26 9 31 c 1,35,36
 47 34 47 34 69 46.5 c 128,-1,37
 91 59 91 59 109 102 c 2,38,-1
 336 638 l 1,39,40
 358 638 358 638 391 658 c 1,41,-1
 597 86 l 2,42,43
 605 63 605 63 620.5 51 c 128,-1,44
 636 39 636 39 649 36 c 128,-1,45
 662 33 662 33 687 31 c 1,46,47
 692 26 692 26 692 14 c 128,-1,48
 692 2 692 2 687 -2 c 1,49,50
 617 0 617 0 573 0 c 0,51,52
 516 0 516 0 442 -2 c 1,53,54
 438 2 438 2 438 14 c 128,-1,55
 438 26 438 26 442 31 c 1,56,57
 451 32 451 32 456 32 c 128,-1,58
 461 32 461 32 469 33 c 128,-1,59
 477 34 477 34 481.5 35 c 128,-1,60
 486 36 486 36 492 37 c 128,-1,61
 498 38 498 38 501.5 39.5 c 128,-1,62
 505 41 505 41 509 43.5 c 128,-1,63
 513 46 513 46 514.5 48.5 c 128,-1,64
 516 51 516 51 517.5 54.5 c 128,-1,65
 519 58 519 58 518.5 62.5 c 128,-1,66
 518 67 518 67 516 72 c 2,67,-1
 458 241 l 1,68,-1
 247 241 l 2,69,70
 229 241 229 241 222.5 237.5 c 128,-1,71
 216 234 216 234 212 224 c 2,72,-1
 157 79 l 1,18,19
EndSplineSet
Substitution2: "'c2sc' Capitals to Small Capitals lookup 9 subtable" agrave.sc
AlternateSubs2: "'aalt' Access All Alternates lookup 0 subtable" agrave.sc
Position2: "'cpsp' Capital Spacing lookup 0 subtable" dx=2 dy=0 dh=5 dv=0
EndChar

StartChar: Aacute
Encoding: 193 193 129
Width: 695
GlyphClass: 2
Flags: W
LayerCount: 2
Fore
SplineSet
417 820 m 1,0,1
 460 800 460 800 479 768 c 1,2,-1
 335 710 l 2,3,4
 307 698 307 698 293 698 c 0,5,6
 278 698 278 698 278 713 c 0,7,8
 278 724 278 724 293 734 c 2,9,-1
 417 820 l 1,0,1
263 283 m 2,10,-1
 440 283 l 1,11,-1
 346 555 l 1,12,-1
 340 555 l 1,13,-1
 238 296 l 2,14,15
 235 289 235 289 240.5 286 c 128,-1,16
 246 283 246 283 263 283 c 2,10,-1
155 79 m 1,17,18
 154 69 154 69 152 61.5 c 128,-1,19
 150 54 150 54 157.5 49 c 128,-1,20
 165 44 165 44 169.5 41 c 128,-1,21
 174 38 174 38 186 35.5 c 128,-1,22
 198 33 198 33 205 32.5 c 128,-1,23
 212 32 212 32 224 31 c 1,24,25
 228 26 228 26 228 14 c 128,-1,26
 228 2 228 2 224 -2 c 1,27,28
 150 0 150 0 96 0 c 0,29,30
 59 0 59 0 7 -2 c 1,31,32
 2 2 2 2 2 14 c 128,-1,33
 2 26 2 26 7 31 c 1,34,35
 45 34 45 34 67 46.5 c 128,-1,36
 89 59 89 59 107 102 c 2,37,-1
 334 638 l 1,38,39
 356 638 356 638 389 658 c 1,40,-1
 595 86 l 2,41,42
 603 63 603 63 618.5 51 c 128,-1,43
 634 39 634 39 647 36 c 128,-1,44
 660 33 660 33 685 31 c 1,45,46
 690 26 690 26 690 14 c 128,-1,47
 690 2 690 2 685 -2 c 1,48,49
 615 0 615 0 571 0 c 0,50,51
 514 0 514 0 440 -2 c 1,52,53
 436 2 436 2 436 14 c 128,-1,54
 436 26 436 26 440 31 c 1,55,56
 449 32 449 32 454 32 c 128,-1,57
 459 32 459 32 467 33 c 128,-1,58
 475 34 475 34 479.5 35 c 128,-1,59
 484 36 484 36 490 37 c 128,-1,60
 496 38 496 38 499.5 39.5 c 128,-1,61
 503 41 503 41 507 43.5 c 128,-1,62
 511 46 511 46 512.5 48.5 c 128,-1,63
 514 51 514 51 515.5 54.5 c 128,-1,64
 517 58 517 58 516.5 62.5 c 128,-1,65
 516 67 516 67 514 72 c 2,66,-1
 456 241 l 1,67,-1
 245 241 l 2,68,69
 227 241 227 241 220.5 237.5 c 128,-1,70
 214 234 214 234 210 224 c 2,71,-1
 155 79 l 1,17,18
EndSplineSet
Substitution2: "'c2sc' Capitals to Small Capitals lookup 9 subtable" aacute.sc
AlternateSubs2: "'aalt' Access All Alternates lookup 0 subtable" aacute.sc
Position2: "'cpsp' Capital Spacing lookup 0 subtable" dx=2 dy=0 dh=5 dv=0
EndChar

StartChar: Acircumflex
Encoding: 194 194 130
Width: 695
GlyphClass: 2
Flags: W
AnchorPoint: "Anchor-2" 362 894 basechar 0
LayerCount: 2
Fore
SplineSet
377 808 m 1,0,1
 421 755 421 755 480 711 c 1,2,3
 475 695 475 695 464 690 c 1,4,5
 399 720 399 720 358 751 c 1,6,7
 311 717 311 717 251 690 c 1,8,9
 240 697 240 697 237 711 c 1,10,11
 278 742 278 742 338 808 c 1,12,13
 356 819 356 819 377 808 c 1,0,1
263 283 m 2,14,-1
 440 283 l 1,15,-1
 346 555 l 1,16,-1
 340 555 l 1,17,-1
 238 296 l 2,18,19
 235 289 235 289 240.5 286 c 128,-1,20
 246 283 246 283 263 283 c 2,14,-1
155 79 m 2,21,22
 152 71 152 71 151.5 65 c 128,-1,23
 151 59 151 59 154 54.5 c 128,-1,24
 157 50 157 50 160 46.5 c 128,-1,25
 163 43 163 43 169.5 40.5 c 128,-1,26
 176 38 176 38 181.5 36.5 c 128,-1,27
 187 35 187 35 195.5 34 c 128,-1,28
 204 33 204 33 209.5 32.5 c 128,-1,29
 215 32 215 32 224 31 c 1,30,31
 228 26 228 26 228 14 c 128,-1,32
 228 2 228 2 224 -2 c 1,33,34
 150 0 150 0 96 0 c 0,35,36
 59 0 59 0 7 -2 c 1,37,38
 2 2 2 2 2 14 c 128,-1,39
 2 26 2 26 7 31 c 1,40,41
 45 34 45 34 67 46.5 c 128,-1,42
 89 59 89 59 107 102 c 2,43,-1
 334 638 l 1,44,45
 356 638 356 638 389 658 c 1,46,-1
 595 86 l 2,47,48
 601 69 601 69 610 58 c 128,-1,49
 619 47 619 47 632.5 41.5 c 128,-1,50
 646 36 646 36 656 34.5 c 128,-1,51
 666 33 666 33 685 31 c 1,52,53
 689 26 689 26 689 14 c 128,-1,54
 689 2 689 2 685 -2 c 1,55,56
 615 0 615 0 571 0 c 0,57,58
 514 0 514 0 440 -2 c 1,59,60
 435 2 435 2 435 14 c 128,-1,61
 435 26 435 26 440 31 c 1,62,63
 451 32 451 32 457 32.5 c 128,-1,64
 463 33 463 33 473 34 c 128,-1,65
 483 35 483 35 487.5 36.5 c 128,-1,66
 492 38 492 38 499.5 40 c 128,-1,67
 507 42 507 42 508.5 44.5 c 128,-1,68
 510 47 510 47 514.5 51.5 c 128,-1,69
 519 56 519 56 516.5 60.5 c 128,-1,70
 514 65 514 65 514 72 c 1,71,-1
 456 241 l 1,72,-1
 245 241 l 2,73,74
 227 241 227 241 220.5 237.5 c 128,-1,75
 214 234 214 234 210 224 c 2,76,-1
 155 79 l 2,21,22
EndSplineSet
Substitution2: "'c2sc' Capitals to Small Capitals lookup 9 subtable" acircumflex.sc
AlternateSubs2: "'aalt' Access All Alternates lookup 0 subtable" acircumflex.sc
Position2: "'cpsp' Capital Spacing lookup 0 subtable" dx=2 dy=0 dh=5 dv=0
EndChar

StartChar: Atilde
Encoding: 195 195 131
Width: 695
GlyphClass: 2
Flags: W
AnchorPoint: "Anchor-2" 364 894 basechar 0
LayerCount: 2
Fore
SplineSet
422 747 m 0,0,1
 439 747 439 747 449 757.5 c 128,-1,2
 459 768 459 768 469 799 c 1,3,4
 485 800 485 800 496 793 c 1,5,6
 476 694 476 694 409 694 c 0,7,8
 403 694 403 694 396.5 695.5 c 128,-1,9
 390 697 390 697 382.5 701 c 128,-1,10
 375 705 375 705 370.5 708 c 128,-1,11
 366 711 366 711 357.5 717.5 c 128,-1,12
 349 724 349 724 345 726 c 0,13,14
 314 745 314 745 291 745 c 0,15,16
 272 745 272 745 262.5 734 c 128,-1,17
 253 723 253 723 245 697 c 1,18,19
 226 694 226 694 218 702 c 1,20,21
 241 800 241 800 298 800 c 0,22,23
 307 800 307 800 314.5 798 c 128,-1,24
 322 796 322 796 331 791.5 c 128,-1,25
 340 787 340 787 344 784.5 c 128,-1,26
 348 782 348 782 358 774.5 c 128,-1,27
 368 767 368 767 370 766 c 0,28,29
 395 747 395 747 422 747 c 0,0,1
263 283 m 2,30,-1
 440 283 l 1,31,-1
 346 555 l 1,32,-1
 340 555 l 1,33,-1
 238 296 l 2,34,35
 235 289 235 289 240.5 286 c 128,-1,36
 246 283 246 283 263 283 c 2,30,-1
155 79 m 1,37,38
 154 69 154 69 152 61.5 c 128,-1,39
 150 54 150 54 157.5 49 c 128,-1,40
 165 44 165 44 169.5 41 c 128,-1,41
 174 38 174 38 186 35.5 c 128,-1,42
 198 33 198 33 205 32.5 c 128,-1,43
 212 32 212 32 224 31 c 1,44,45
 228 26 228 26 228 14 c 128,-1,46
 228 2 228 2 224 -2 c 1,47,48
 150 0 150 0 96 0 c 0,49,50
 59 0 59 0 7 -2 c 1,51,52
 2 2 2 2 2 14 c 128,-1,53
 2 26 2 26 7 31 c 1,54,55
 45 34 45 34 67 46.5 c 128,-1,56
 89 59 89 59 107 102 c 2,57,-1
 334 638 l 1,58,59
 356 638 356 638 389 658 c 1,60,-1
 595 86 l 2,61,62
 603 63 603 63 618.5 51 c 128,-1,63
 634 39 634 39 647 36 c 128,-1,64
 660 33 660 33 685 31 c 1,65,66
 690 26 690 26 690 14 c 128,-1,67
 690 2 690 2 685 -2 c 1,68,69
 615 0 615 0 571 0 c 0,70,71
 514 0 514 0 440 -2 c 1,72,73
 436 2 436 2 436 14 c 128,-1,74
 436 26 436 26 440 31 c 1,75,76
 449 32 449 32 454 32 c 128,-1,77
 459 32 459 32 467 33 c 128,-1,78
 475 34 475 34 479.5 35 c 128,-1,79
 484 36 484 36 490 37 c 128,-1,80
 496 38 496 38 499.5 39.5 c 128,-1,81
 503 41 503 41 507 43.5 c 128,-1,82
 511 46 511 46 512.5 48.5 c 128,-1,83
 514 51 514 51 515.5 54.5 c 128,-1,84
 517 58 517 58 516.5 62.5 c 128,-1,85
 516 67 516 67 514 72 c 2,86,-1
 456 241 l 1,87,-1
 245 241 l 2,88,89
 227 241 227 241 220.5 237.5 c 128,-1,90
 214 234 214 234 210 224 c 2,91,-1
 155 79 l 1,37,38
EndSplineSet
Substitution2: "'c2sc' Capitals to Small Capitals lookup 9 subtable" atilde.sc
AlternateSubs2: "'aalt' Access All Alternates lookup 0 subtable" atilde.sc
Position2: "'cpsp' Capital Spacing lookup 0 subtable" dx=2 dy=0 dh=5 dv=0
EndChar

StartChar: Adieresis
Encoding: 196 196 132
Width: 695
GlyphClass: 2
Flags: W
AnchorPoint: "Anchor-2" 362 894 basechar 0
LayerCount: 2
Fore
SplineSet
193 706 m 128,-1,1
 193 726 193 726 207.5 740 c 128,-1,2
 222 754 222 754 241 754 c 128,-1,3
 260 754 260 754 274.5 740 c 128,-1,4
 289 726 289 726 289 706 c 128,-1,5
 289 686 289 686 274.5 672 c 128,-1,6
 260 658 260 658 241 658 c 128,-1,7
 222 658 222 658 207.5 672 c 128,-1,0
 193 686 193 686 193 706 c 128,-1,1
430 706 m 128,-1,9
 430 726 430 726 444 740 c 128,-1,10
 458 754 458 754 478 754 c 128,-1,11
 498 754 498 754 512 740 c 128,-1,12
 526 726 526 726 526 706 c 128,-1,13
 526 686 526 686 512 672 c 128,-1,14
 498 658 498 658 478 658 c 128,-1,15
 458 658 458 658 444 672 c 128,-1,8
 430 686 430 686 430 706 c 128,-1,9
263 283 m 2,16,-1
 440 283 l 1,17,-1
 346 555 l 1,18,-1
 340 555 l 1,19,-1
 238 296 l 2,20,21
 235 289 235 289 240.5 286 c 128,-1,22
 246 283 246 283 263 283 c 2,16,-1
155 79 m 1,23,24
 154 69 154 69 152 61.5 c 128,-1,25
 150 54 150 54 157.5 49 c 128,-1,26
 165 44 165 44 169.5 41 c 128,-1,27
 174 38 174 38 186 35.5 c 128,-1,28
 198 33 198 33 205 32.5 c 128,-1,29
 212 32 212 32 224 31 c 1,30,31
 228 26 228 26 228 14 c 128,-1,32
 228 2 228 2 224 -2 c 1,33,34
 150 0 150 0 96 0 c 0,35,36
 59 0 59 0 7 -2 c 1,37,38
 2 2 2 2 2 14 c 128,-1,39
 2 26 2 26 7 31 c 1,40,41
 45 34 45 34 67 46.5 c 128,-1,42
 89 59 89 59 107 102 c 2,43,-1
 334 638 l 1,44,45
 356 638 356 638 389 658 c 1,46,-1
 595 86 l 2,47,48
 603 63 603 63 618.5 51 c 128,-1,49
 634 39 634 39 647 36 c 128,-1,50
 660 33 660 33 685 31 c 1,51,52
 690 26 690 26 690 14 c 128,-1,53
 690 2 690 2 685 -2 c 1,54,55
 615 0 615 0 571 0 c 0,56,57
 514 0 514 0 440 -2 c 1,58,59
 436 2 436 2 436 14 c 128,-1,60
 436 26 436 26 440 31 c 1,61,62
 449 32 449 32 454 32 c 128,-1,63
 459 32 459 32 467 33 c 128,-1,64
 475 34 475 34 479.5 35 c 128,-1,65
 484 36 484 36 490 37 c 128,-1,66
 496 38 496 38 499.5 39.5 c 128,-1,67
 503 41 503 41 507 43.5 c 128,-1,68
 511 46 511 46 512.5 48.5 c 128,-1,69
 514 51 514 51 515.5 54.5 c 128,-1,70
 517 58 517 58 516.5 62.5 c 128,-1,71
 516 67 516 67 514 72 c 2,72,-1
 456 241 l 1,73,-1
 245 241 l 2,74,75
 227 241 227 241 220.5 237.5 c 128,-1,76
 214 234 214 234 210 224 c 2,77,-1
 155 79 l 1,23,24
EndSplineSet
Substitution2: "'ss01' Style Set 1 lookup 21 subtable" Adieresis.alt
Substitution2: "'c2sc' Capitals to Small Capitals lookup 9 subtable" adieresis.sc
AlternateSubs2: "'aalt' Access All Alternates lookup 0 subtable" adieresis.sc
Position2: "'cpsp' Capital Spacing lookup 0 subtable" dx=2 dy=0 dh=5 dv=0
EndChar

StartChar: Aring
Encoding: 197 197 133
Width: 695
GlyphClass: 2
Flags: W
AnchorPoint: "Anchor-2" 364 894 basechar 0
LayerCount: 2
Fore
SplineSet
263 283 m 2,0,-1
 440 283 l 1,1,-1
 346 555 l 1,2,-1
 340 555 l 1,3,-1
 238 296 l 2,4,5
 235 289 235 289 240.5 286 c 128,-1,6
 246 283 246 283 263 283 c 2,0,-1
155 79 m 2,7,8
 152 71 152 71 151.5 65 c 128,-1,9
 151 59 151 59 154 54.5 c 128,-1,10
 157 50 157 50 160 46.5 c 128,-1,11
 163 43 163 43 169.5 40.5 c 128,-1,12
 176 38 176 38 181.5 36.5 c 128,-1,13
 187 35 187 35 195.5 34 c 128,-1,14
 204 33 204 33 209.5 32.5 c 128,-1,15
 215 32 215 32 224 31 c 1,16,17
 229 26 229 26 229 14 c 128,-1,18
 229 2 229 2 224 -2 c 1,19,20
 150 0 150 0 96 0 c 0,21,22
 59 0 59 0 7 -2 c 1,23,24
 3 2 3 2 3 14 c 128,-1,25
 3 26 3 26 7 31 c 1,26,27
 45 34 45 34 67 46.5 c 128,-1,28
 89 59 89 59 107 102 c 2,29,-1
 332 634 l 1,30,31
 315 639 315 639 301 651 c 128,-1,32
 287 663 287 663 279 679.5 c 128,-1,33
 271 696 271 696 271 714 c 0,34,35
 271 736 271 736 283.5 756 c 128,-1,36
 296 776 296 776 316 787.5 c 128,-1,37
 336 799 336 799 359 799 c 0,38,39
 394 799 394 799 420.5 774 c 128,-1,40
 447 749 447 749 447 714 c 0,41,42
 447 690 447 690 433 669 c 128,-1,43
 419 648 419 648 396 638 c 1,44,-1
 595 86 l 2,45,46
 603 63 603 63 618.5 51 c 128,-1,47
 634 39 634 39 647 36 c 128,-1,48
 660 33 660 33 685 31 c 1,49,50
 690 26 690 26 690 14 c 128,-1,51
 690 2 690 2 685 -2 c 1,52,53
 615 0 615 0 571 0 c 0,54,55
 514 0 514 0 440 -2 c 1,56,57
 436 2 436 2 436 14 c 128,-1,58
 436 26 436 26 440 31 c 1,59,60
 449 32 449 32 454 32 c 128,-1,61
 459 32 459 32 467 33 c 128,-1,62
 475 34 475 34 479.5 35 c 128,-1,63
 484 36 484 36 490 37 c 128,-1,64
 496 38 496 38 499.5 39.5 c 128,-1,65
 503 41 503 41 507 43.5 c 128,-1,66
 511 46 511 46 512.5 48.5 c 128,-1,67
 514 51 514 51 515.5 54.5 c 128,-1,68
 517 58 517 58 516.5 62.5 c 128,-1,69
 516 67 516 67 514 72 c 2,70,-1
 456 241 l 1,71,-1
 245 241 l 2,72,73
 227 241 227 241 220.5 237.5 c 128,-1,74
 214 234 214 234 210 224 c 2,75,-1
 155 79 l 2,7,8
359 767 m 0,76,77
 336 767 336 767 323.5 752 c 128,-1,78
 311 737 311 737 311 714 c 0,79,80
 311 692 311 692 324 676.5 c 128,-1,81
 337 661 337 661 359 661 c 128,-1,82
 381 661 381 661 394 676.5 c 128,-1,83
 407 692 407 692 407 714 c 0,84,85
 407 738 407 738 394 752.5 c 128,-1,86
 381 767 381 767 359 767 c 0,76,77
EndSplineSet
Substitution2: "'c2sc' Capitals to Small Capitals lookup 9 subtable" aring.sc
AlternateSubs2: "'aalt' Access All Alternates lookup 0 subtable" aring.sc
Position2: "'cpsp' Capital Spacing lookup 0 subtable" dx=2 dy=0 dh=5 dv=0
EndChar

StartChar: AE
Encoding: 198 198 134
Width: 865
GlyphClass: 2
Flags: W
AnchorPoint: "Anchor-6" 549 -107 basechar 0
AnchorPoint: "Anchor-5" 549 4 basechar 0
AnchorPoint: "Anchor-2" 553 805 basechar 0
LayerCount: 2
Fore
SplineSet
271 305 m 1,0,-1
 429 305 l 1,1,-1
 429 575 l 2,2,3
 429 596 429 596 424 598 c 1,4,-1
 271 305 l 1,0,-1
429 122 m 2,5,-1
 429 266 l 1,6,-1
 251 266 l 1,7,-1
 154 79 l 1,8,9
 151 69 151 69 149.5 62 c 128,-1,10
 148 55 148 55 154.5 50 c 128,-1,11
 161 45 161 45 167 41.5 c 128,-1,12
 173 38 173 38 184.5 36 c 128,-1,13
 196 34 196 34 204.5 33 c 128,-1,14
 213 32 213 32 224 31 c 1,15,16
 228 26 228 26 228 14 c 128,-1,17
 228 2 228 2 224 -2 c 1,18,19
 150 0 150 0 96 0 c 0,20,21
 81 0 81 0 7 -2 c 1,22,23
 2 2 2 2 2 14 c 128,-1,24
 2 26 2 26 7 31 c 1,25,26
 44 34 44 34 66.5 47.5 c 128,-1,27
 89 61 89 61 111 102 c 2,28,-1
 354 557 l 1,29,30
 370 580 370 580 356.5 596 c 128,-1,31
 343 612 343 612 294 614 c 1,32,33
 290 618 290 618 290 630 c 128,-1,34
 290 642 290 642 294 647 c 1,35,-1
 409 645 l 1,36,-1
 549 645 l 1,37,-1
 725 645 l 2,38,39
 751 645 751 645 774 649 c 0,40,41
 778 649 778 649 778 646 c 0,42,43
 786 612 786 612 800 501 c 1,44,45
 784 493 784 493 767 496 c 1,46,47
 748 556 748 556 727 580.5 c 128,-1,48
 706 605 706 605 654 605 c 2,49,-1
 549 605 l 2,50,51
 532 605 532 605 522.5 592.5 c 128,-1,52
 513 580 513 580 513 561 c 2,53,-1
 513 361 l 1,54,-1
 604 361 l 2,55,56
 665 361 665 361 679 373 c 128,-1,57
 693 385 693 385 695 429 c 1,58,59
 700 434 700 434 712 434 c 128,-1,60
 724 434 724 434 728 429 c 1,61,62
 726 369 726 369 726 343 c 0,63,64
 726 325 726 325 728 255 c 1,65,66
 724 250 724 250 712 250 c 128,-1,67
 700 250 700 250 695 255 c 1,68,69
 693 282 693 282 689 293.5 c 128,-1,70
 685 305 685 305 665 314 c 128,-1,71
 645 323 645 323 604 323 c 2,72,-1
 513 323 l 1,73,-1
 513 82 l 2,74,75
 513 39 513 39 549 39 c 2,76,-1
 685 39 l 2,77,78
 780 39 780 39 816 170 c 1,79,80
 834 174 834 174 851 165 c 1,81,82
 839 86 839 86 814 -2 c 1,83,84
 734 0 734 0 686 0 c 2,85,-1
 472 0 l 1,86,87
 391 -1 391 -1 342 -2 c 1,88,89
 338 2 338 2 338 14 c 128,-1,90
 338 26 338 26 342 31 c 1,91,92
 398 33 398 33 413.5 47.5 c 128,-1,93
 429 62 429 62 429 122 c 2,5,-1
EndSplineSet
Ligature2: "'liga' Standard Ligatures lookup 10 subtable" A E
Substitution2: "'c2sc' Capitals to Small Capitals lookup 9 subtable" ae.sc
AlternateSubs2: "'aalt' Access All Alternates lookup 0 subtable" ae.sc
Position2: "'cpsp' Capital Spacing lookup 0 subtable" dx=2 dy=0 dh=5 dv=0
EndChar

StartChar: Ccedilla
Encoding: 199 199 135
Width: 646
GlyphClass: 2
Flags: W
AnchorPoint: "Anchor-2" 371 850 basechar 0
LayerCount: 2
Fore
SplineSet
367 -96 m 0,0,1
 341 -96 341 -96 322 -102 c 1,2,-1
 316 -96 l 1,3,-1
 352 -10 l 1,4,5
 275 -9 275 -9 214 16.5 c 128,-1,6
 153 42 153 42 115 86.5 c 128,-1,7
 77 131 77 131 57 187.5 c 128,-1,8
 37 244 37 244 37 310 c 0,9,10
 37 388 37 388 65 457.5 c 128,-1,11
 93 527 93 527 143 573 c 0,12,13
 236 658 236 658 358 658 c 0,14,15
 430 658 430 658 498.5 636 c 128,-1,16
 567 614 567 614 577 613 c 1,17,18
 592 530 592 530 599 458 c 1,19,20
 580 448 580 448 566 453 c 1,21,22
 515 621 515 621 347 621 c 0,23,24
 260 621 260 621 187 532 c 0,25,26
 128 459 128 459 128 329 c 0,27,28
 128 214 128 214 193.5 122.5 c 128,-1,29
 259 31 259 31 356 31 c 0,30,31
 426 31 426 31 480.5 56.5 c 128,-1,32
 535 82 535 82 588 140 c 1,33,34
 603 140 603 140 611 125 c 1,35,36
 519 5 519 5 387 -8 c 1,37,-1
 365 -67 l 1,38,39
 377 -64 377 -64 391 -64 c 0,40,41
 422 -64 422 -64 442 -81 c 128,-1,42
 462 -98 462 -98 462 -126 c 0,43,44
 462 -158 462 -158 431.5 -179 c 128,-1,45
 401 -200 401 -200 355 -200 c 0,46,47
 320 -200 320 -200 281 -183 c 1,48,49
 281 -167 281 -167 291 -157 c 1,50,51
 329 -171 329 -171 349 -171 c 0,52,53
 372 -171 372 -171 386 -160.5 c 128,-1,54
 400 -150 400 -150 400 -131 c 0,55,56
 400 -96 400 -96 367 -96 c 0,0,1
EndSplineSet
Substitution2: "'c2sc' Capitals to Small Capitals lookup 9 subtable" ccedilla.sc
AlternateSubs2: "'aalt' Access All Alternates lookup 0 subtable" ccedilla.sc
Position2: "'cpsp' Capital Spacing lookup 0 subtable" dx=2 dy=0 dh=5 dv=0
EndChar

StartChar: Egrave
Encoding: 200 200 136
Width: 557
GlyphClass: 2
Flags: W
AnchorPoint: "Anchor-6" 279 -107 basechar 0
AnchorPoint: "Anchor-5" 279 4 basechar 0
LayerCount: 2
Fore
SplineSet
245 817 m 1,0,-1
 366 733 l 2,1,2
 381 722 381 722 381 712 c 0,3,4
 381 706 381 706 376.5 701.5 c 128,-1,5
 372 697 372 697 366 697 c 0,6,7
 351 697 351 697 323 709 c 2,8,-1
 169 772 l 1,9,10
 200 802 200 802 245 817 c 1,0,-1
281 361 m 2,11,12
 342 361 342 361 356 373 c 128,-1,13
 370 385 370 385 372 429 c 1,14,15
 376 434 376 434 388 434 c 128,-1,16
 400 434 400 434 405 429 c 1,17,18
 403 381 403 381 403 343 c 0,19,20
 403 307 403 307 405 255 c 1,21,22
 400 250 400 250 388 250 c 128,-1,23
 376 250 376 250 372 255 c 1,24,25
 370 282 370 282 366 293.5 c 128,-1,26
 362 305 362 305 342 314 c 128,-1,27
 322 323 322 323 281 323 c 2,28,-1
 190 323 l 1,29,-1
 190 102 l 2,30,31
 190 67 190 67 202.5 53 c 128,-1,32
 215 39 215 39 246 39 c 2,33,-1
 362 39 l 2,34,35
 457 39 457 39 493 170 c 1,36,37
 511 175 511 175 528 165 c 1,38,39
 516 86 516 86 491 -2 c 1,40,41
 411 0 411 0 363 0 c 2,42,-1
 148 0 l 2,43,44
 92 0 92 0 18 -2 c 1,45,46
 14 2 14 2 14 14 c 128,-1,47
 14 26 14 26 18 31 c 1,48,49
 74 33 74 33 89.5 47.5 c 128,-1,50
 105 62 105 62 105 122 c 2,51,-1
 105 523 l 2,52,53
 105 583 105 583 89.5 597.5 c 128,-1,54
 74 612 74 612 18 614 c 1,55,56
 14 618 14 618 14 630 c 128,-1,57
 14 642 14 642 18 647 c 1,58,59
 98 645 98 645 147 645 c 2,60,-1
 402 645 l 2,61,62
 428 645 428 645 451 649 c 0,63,64
 455 649 455 649 455 646 c 0,65,66
 463 612 463 612 477 501 c 1,67,68
 461 493 461 493 444 496 c 1,69,70
 425 556 425 556 404 580.5 c 128,-1,71
 383 605 383 605 331 605 c 2,72,-1
 256 605 l 2,73,74
 217 605 217 605 203.5 590.5 c 128,-1,75
 190 576 190 576 190 541 c 2,76,-1
 190 361 l 1,77,-1
 281 361 l 2,11,12
EndSplineSet
Substitution2: "'c2sc' Capitals to Small Capitals lookup 9 subtable" egrave.sc
AlternateSubs2: "'aalt' Access All Alternates lookup 0 subtable" egrave.sc
Position2: "'cpsp' Capital Spacing lookup 0 subtable" dx=2 dy=0 dh=5 dv=0
EndChar

StartChar: Eacute
Encoding: 201 201 137
Width: 557
GlyphClass: 2
Flags: W
AnchorPoint: "Anchor-6" 279 -107 basechar 0
AnchorPoint: "Anchor-5" 279 4 basechar 0
LayerCount: 2
Fore
SplineSet
350 820 m 1,0,1
 393 800 393 800 412 768 c 1,2,-1
 268 710 l 2,3,4
 240 698 240 698 226 698 c 0,5,6
 211 698 211 698 211 713 c 0,7,8
 211 724 211 724 226 734 c 2,9,-1
 350 820 l 1,0,1
281 361 m 2,10,11
 342 361 342 361 356 373 c 128,-1,12
 370 385 370 385 372 429 c 1,13,14
 376 434 376 434 388 434 c 128,-1,15
 400 434 400 434 405 429 c 1,16,17
 403 381 403 381 403 343 c 0,18,19
 403 307 403 307 405 255 c 1,20,21
 400 250 400 250 388 250 c 128,-1,22
 376 250 376 250 372 255 c 1,23,24
 370 282 370 282 366 293.5 c 128,-1,25
 362 305 362 305 342 314 c 128,-1,26
 322 323 322 323 281 323 c 2,27,-1
 190 323 l 1,28,-1
 190 102 l 2,29,30
 190 67 190 67 202.5 53 c 128,-1,31
 215 39 215 39 246 39 c 2,32,-1
 362 39 l 2,33,34
 457 39 457 39 493 170 c 1,35,36
 511 175 511 175 528 165 c 1,37,38
 516 86 516 86 491 -2 c 1,39,40
 411 0 411 0 363 0 c 2,41,-1
 148 0 l 2,42,43
 92 0 92 0 18 -2 c 1,44,45
 14 2 14 2 14 14 c 128,-1,46
 14 26 14 26 18 31 c 1,47,48
 74 33 74 33 89.5 47.5 c 128,-1,49
 105 62 105 62 105 122 c 2,50,-1
 105 523 l 2,51,52
 105 583 105 583 89.5 597.5 c 128,-1,53
 74 612 74 612 18 614 c 1,54,55
 14 618 14 618 14 630 c 128,-1,56
 14 642 14 642 18 647 c 1,57,58
 98 645 98 645 147 645 c 2,59,-1
 402 645 l 2,60,61
 428 645 428 645 451 649 c 0,62,63
 455 649 455 649 455 646 c 0,64,65
 463 612 463 612 477 501 c 1,66,67
 461 493 461 493 444 496 c 1,68,69
 425 556 425 556 404 580.5 c 128,-1,70
 383 605 383 605 331 605 c 2,71,-1
 256 605 l 2,72,73
 217 605 217 605 203.5 590.5 c 128,-1,74
 190 576 190 576 190 541 c 2,75,-1
 190 361 l 1,76,-1
 281 361 l 2,10,11
EndSplineSet
Substitution2: "'c2sc' Capitals to Small Capitals lookup 9 subtable" eacute.sc
AlternateSubs2: "'aalt' Access All Alternates lookup 0 subtable" eacute.sc
Position2: "'cpsp' Capital Spacing lookup 0 subtable" dx=2 dy=0 dh=5 dv=0
EndChar

